<svg xmlns="http://www.w3.org/2000/svg" width="16" height="18" fill="none" viewBox="0 0 16 18">
  <path fill="#F46592" d="m14.667 5.666-5-4.383a2.5 2.5 0 0 0-3.334 0l-5 4.383A2.5 2.5 0 0 0 .5 7.55v7.283a2.5 2.5 0 0 0 2.5 2.5h10a2.5 2.5 0 0 0 2.5-2.5V7.541a2.5 2.5 0 0 0-.833-1.875Zm-5 10H6.333V11.5a.833.833 0 0 1 .834-.834h1.666a.833.833 0 0 1 .834.834v4.166Zm4.166-.833a.833.833 0 0 1-.833.833h-1.667V11.5a2.5 2.5 0 0 0-2.5-2.5H7.167a2.5 2.5 0 0 0-2.5 2.5v4.166H3a.833.833 0 0 1-.833-.833V7.541a.833.833 0 0 1 .283-.625l5-4.375a.833.833 0 0 1 1.1 0l5 4.375a.834.834 0 0 1 .283.625v7.292Z"/>
</svg>
