<svg xmlns="http://www.w3.org/2000/svg" width="18" height="18" fill="none" viewBox="0 0 18 18">
  <path fill="#71727A" d="m16.558 13.025-1.725-1.767A2.567 2.567 0 0 0 12 10.783l-.75-.75a5.833 5.833 0 1 0-1.175 1.175l.741.742a2.5 2.5 0 0 0 .442 2.883l1.767 1.767a2.5 2.5 0 0 0 3.533 0 2.5 2.5 0 0 0 0-3.575ZM9.491 9.49a4.166 4.166 0 1 1-5.884-5.899 4.166 4.166 0 0 1 5.884 5.9Zm5.892 5.892a.833.833 0 0 1-1.183 0l-1.767-1.766a.833.833 0 0 1 0-1.184.833.833 0 0 1 1.183 0l1.767 1.767a.834.834 0 0 1 0 1.183Z"/>
</svg>
