<svg xmlns="http://www.w3.org/2000/svg" width="36" height="36" fill="none" viewBox="0 0 36 36">
  <path fill="#000" d="M32.06 25.02c-.776 1.724-1.15 2.495-2.149 4.017-1.398 2.126-3.369 4.78-5.805 4.798-2.168.02-2.728-1.415-5.673-1.39-2.941.014-3.554 1.418-5.726 1.395-2.438-.022-4.303-2.413-5.7-4.536-3.91-5.954-4.323-12.935-1.908-16.647 1.71-2.633 4.413-4.18 6.953-4.18 2.588 0 4.213 1.42 6.35 1.42 2.076 0 3.339-1.423 6.331-1.423 2.262 0 4.652 1.232 6.362 3.358-5.59 3.066-4.682 11.05.965 13.188ZM22.461 6.098C23.549 4.7 24.376 2.728 24.075.72c-1.774.121-3.85 1.255-5.062 2.723-1.1 1.338-2.011 3.324-1.657 5.245 1.938.062 3.943-1.094 5.105-2.59Z"/>
</svg>
