<svg xmlns="http://www.w3.org/2000/svg" width="37" height="37" fill="none" viewBox="0 0 37 37">
  <path fill="#FBC02D" d="M32.75 15.104h-1.208v-.062h-13.5v6h8.477c-1.236 3.493-4.56 6-8.477 6a9 9 0 0 1 0-18c2.294 0 4.381.865 5.97 2.28l4.244-4.244c-2.68-2.496-6.263-4.036-10.214-4.036-8.284 0-15 6.716-15 15 0 8.284 6.716 15 15 15 8.284 0 15-6.716 15-15a15.12 15.12 0 0 0-.292-2.938Z"/>
  <path fill="#E53935" d="M4.771 11.06 9.7 14.674a8.996 8.996 0 0 1 8.342-5.632c2.294 0 4.381.865 5.97 2.28l4.244-4.244c-2.68-2.496-6.263-4.036-10.214-4.036-5.762 0-10.758 3.253-13.27 8.018Z"/>
  <path fill="#4CAF50" d="M18.042 33.042c3.875 0 7.395-1.483 10.057-3.894l-4.643-3.928a8.932 8.932 0 0 1-5.414 1.822c-3.901 0-7.214-2.488-8.462-5.96l-4.892 3.77c2.483 4.857 7.525 8.19 13.354 8.19Z"/>
  <path fill="#1565C0" d="m32.75 15.104-.012-.062H18.042v6h8.477a9.03 9.03 0 0 1-3.065 4.178l.002-.001 4.643 3.928c-.329.299 4.943-3.605 4.943-11.105a15.12 15.12 0 0 0-.292-2.938Z"/>
</svg>
