<svg xmlns="http://www.w3.org/2000/svg" width="105" height="105" fill="none" viewBox="0 0 105 105">
  <g filter="url(#a)" opacity=".4">
    <path fill="#fff" d="M40.042 76.03c-7.543.006-11.314.008-13.659-2.333-2.345-2.341-2.347-6.112-2.353-13.655l-.018-24c-.006-7.543-.009-11.314 2.333-13.659 2.341-2.345 6.112-2.347 13.655-2.353l24-.018c7.542-.006 11.314-.009 13.658 2.333 2.345 2.341 2.348 6.112 2.354 13.655l.018 24c.006 7.542.008 11.314-2.333 13.658-2.341 2.345-6.113 2.348-13.655 2.354l-24 .018Z"/>
  </g>
  <path fill="#FBC02D" d="M66.75 45.104h-1.208v-.062h-13.5v6h8.477c-1.236 3.493-4.56 6-8.477 6a9 9 0 0 1 0-18c2.294 0 4.381.865 5.97 2.28l4.243-4.244c-2.678-2.496-6.262-4.036-10.213-4.036-8.284 0-15 6.716-15 15 0 8.284 6.716 15 15 15 8.284 0 15-6.716 15-15 0-1.006-.103-1.988-.292-2.938Z"/>
  <path fill="#E53935" d="m38.772 41.06 4.928 3.614a8.996 8.996 0 0 1 8.342-5.632c2.294 0 4.381.865 5.97 2.28l4.243-4.244c-2.678-2.496-6.262-4.036-10.213-4.036-5.761 0-10.758 3.253-13.27 8.018Z"/>
  <path fill="#4CAF50" d="M52.042 63.042c3.875 0 7.395-1.483 10.057-3.894l-4.642-3.929a8.932 8.932 0 0 1-5.415 1.823c-3.901 0-7.214-2.488-8.462-5.96l-4.892 3.77c2.483 4.857 7.524 8.19 13.354 8.19Z"/>
  <path fill="#1565C0" d="m66.75 45.104-.012-.062H52.042v6h8.477a9.03 9.03 0 0 1-3.065 4.178l.002-.001 4.643 3.928c-.329.299 4.943-3.605 4.943-11.105 0-1.006-.103-1.988-.292-2.938Z"/>
  <defs>
    <filter id="a" width="104.019" height="104.019" x=".012" y=".011" color-interpolation-filters="sRGB" filterUnits="userSpaceOnUse">
      <feFlood flood-opacity="0" result="BackgroundImageFix"/>
      <feColorMatrix in="SourceAlpha" result="hardAlpha" values="0 0 0 0 0 0 0 0 0 0 0 0 0 0 0 0 0 0 127 0"/>
      <feOffset dy="4"/>
      <feGaussianBlur stdDeviation="12"/>
      <feComposite in2="hardAlpha" operator="out"/>
      <feColorMatrix values="0 0 0 0 0 0 0 0 0 0 0 0 0 0 0 0 0 0 0.14 0"/>
      <feBlend in2="BackgroundImageFix" result="effect1_dropShadow_433_4655"/>
      <feBlend in="SourceGraphic" in2="effect1_dropShadow_433_4655" result="shape"/>
    </filter>
  </defs>
</svg>
