<svg xmlns="http://www.w3.org/2000/svg" width="428" height="236" fill="none" viewBox="0 0 428 236">
  <g clip-path="url(#a)">
    <path fill="#FAFAF9" d="M295.492 20.292c.299-2.17-2.766-3.955-5.069-4.14-1.099-.09-2.24.078-3.281-.284-2.254-.785-3.155-3.695-5.355-4.622-1.645-.693-3.539-.076-5.133.726-1.594.801-3.171 1.81-4.952 1.924-1.549.1-3.232-.475-4.588.281-1.01.564-1.539 1.726-2.471 2.413-.911.671-2.098.813-3.23.875-1.129.061-2.3.073-3.329.544-1.029.47-1.88 1.558-1.667 2.668l39.075-.385Z"/>
    <path fill="#DADBD8" d="M412.939 23.611c.299-2.17-2.767-3.954-5.07-4.14-1.099-.088-2.24.08-3.281-.283-2.255-.785-3.155-3.695-5.355-4.622-1.645-.694-3.538-.077-5.133.725-1.595.802-3.17 1.811-4.952 1.925-1.55.099-3.232-.475-4.588.281-1.01.564-1.539 1.727-2.471 2.413-.911.671-2.099.813-3.229.875-1.13.06-2.301.072-3.33.543-1.029.47-1.881 1.558-1.667 2.67l39.076-.387ZM55.765 35.468c.3-2.17-2.766-3.956-5.07-4.141-1.098-.089-2.239.079-3.28-.283-2.254-.786-3.155-3.696-5.355-4.623-1.645-.693-3.538-.076-5.133.726-1.594.802-3.17 1.81-4.952 1.925-1.55.098-3.232-.475-4.588.28-1.01.564-1.54 1.727-2.47 2.413-.912.672-2.1.814-3.23.875-1.13.062-2.3.073-3.33.544-1.03.47-1.88 1.558-1.667 2.669l39.075-.385Z"/>
    <path fill="#E7E8E5" d="M342.681 45.978c.438-3.174-4.045-5.785-7.414-6.055-1.606-.13-3.275.116-4.797-.414-3.297-1.149-4.614-5.404-7.831-6.76-2.405-1.013-5.174-.112-7.507 1.061-2.332 1.173-4.636 2.648-7.241 2.815-2.266.145-4.726-.695-6.709.41-1.478.825-2.252 2.526-3.614 3.53-1.332.98-3.069 1.189-4.722 1.279-1.653.09-3.365.106-4.87.794-1.504.689-2.749 2.279-2.437 3.903l57.142-.563Z"/>
    <path fill="#F3F2F1" d="M116.816 52.24c.38-2.76-3.52-5.031-6.45-5.268-1.397-.112-2.849.102-4.173-.359-2.869-1-4.014-4.701-6.813-5.88-2.092-.882-4.501-.097-6.53.923-2.028 1.02-4.032 2.303-6.3 2.448-1.97.127-4.111-.604-5.835.358-1.286.717-1.959 2.196-3.144 3.07-1.158.853-2.67 1.034-4.108 1.112-1.438.078-2.927.093-4.236.691-1.31.6-2.392 1.982-2.12 3.395l49.709-.49Z"/>
    <path fill="#DADBD8" d="M133.45 113.798c-2.643-5.942-11.563-7.827-16.387-3.464-2.385-5.441-10.632-7.079-14.92-2.963-.053-3.031-2.148-5.922-5.014-6.917-2.866-.995-6.305-.027-8.229 2.317-.767-5.635-5.287-10.568-10.838-11.827-5.551-1.26-11.76 1.239-14.89 5.99-8.542-4.07-19.871-.872-25.02 7.06-3.228-5.221-11.972-5.589-15.627-.657-3.257-3.908-8.902-5.645-13.796-4.245-4.894 1.4-8.763 5.858-9.457 10.897-5.974-4.046-14.854.636-17.87 7.187h166.834c-.747-5.031-10.773-6.707-14.786-3.378Zm204.965 160.45c-.346-.743-1.069-1.228-1.756-1.675-5.699-3.698-11.396-7.397-17.094-11.096 3.801-1.241 6.046-5.942 4.619-9.675-1.712-4.482-7.065-6.165-11.745-7.23-4.682-1.065-10.037-2.602-11.936-7.007-.943-2.188-.82-4.729-1.825-6.89-2.198-4.724-8.381-5.569-13.045-7.9-6.755-3.377-10.88-10.533-17.353-14.422-3.861-2.321-8.672-3.599-11.141-7.363-.673-1.026-1.162-2.228-2.147-2.96-.986-.732-2.724-.633-3.109.532-.148.449-.058.939.041 1.402 3.636 16.986 16.658 30.178 24.754 45.549 5.496 10.435 8.798 22.057 15.591 31.699l20.956 6.841c3.223.642 6.511.959 9.798.947 6.293-.026 13.756-2.283 15.424-8.345.218-.79.314-1.664-.032-2.407Z"/>
    <path fill="#F3F2F1" d="M60.514 197.93c-.427-.865-1.152-1.606-1.315-2.556-.196-1.136.358-2.592-.57-3.279-.783-.58-2.2-.133-2.648-.999l-17.334-.894c-1.447.924-2.97 1.936-3.667 3.505-.696 1.569-.095 3.827 1.576 4.227 1.415.337 3.214-.655 4.204.41.28.3.411.708.517 1.105.789 2.948.97 6.597 3.635 8.087 1.2.669 2.661.708 3.906 1.29 3.093 1.447 4.32 5.928 7.694 6.456.895.14 1.947-.131 2.365-.934.609-1.172-.43-2.467-1.045-3.636-1.47-2.795-.554-6.427-2.155-9.15-.408-.693-.971-1.309-1.224-2.074-.25-.765-.048-1.778.701-2.075 1.944-.771 2.935 3.842 4.867 3.043.891-.369.918-1.661.493-2.526Zm177.803-78.846 2.637-.018a21.484 21.484 0 0 0-2.637.018Zm2.637-.017c5.378.278 10.65 2.531 14.509 6.292 2.075 2.022 4.007 4.594 6.866 5.074 2.412.405 4.81-.835 7.256-.817 3.36.026 6.189 2.352 9.225 3.789 3.037 1.438 7.447 1.581 8.984-1.404.157 2.491 2.761 4.063 5.165 4.742 2.404.68 5.089 1.004 6.865 2.758 1.428 1.409 2.276 3.715 4.253 4.055 1.097.188 2.178-.336 3.28-.494 2.193-.314 4.296.815 6.421 1.439 2.125.625 4.897.496 5.965-1.443l27.766 3.676c3.261.431 6.529.863 9.816.928 4.108.08 8.225-.418 12.194-1.475 2.069-.551 4.095-1.251 6.128-1.924 1.359-.449 2.732-.888 4.152-1.072 1.476-.191 2.971-.103 4.46-.099 8.639.021 16.999-2.807 25.172-5.603 12.666-4.333 26.087-9.193 34.207-19.827l-202.684 1.405Zm-258.619-1.891c2.791 2.468 8.807 2.539 12.295 3.85 1.446.543 2.511 1.76 3.747 2.686 3.057 2.292 7.405 2.724 10.854 1.078 3.053 1.374 6.15 2.662 9.349 3.651a53.367 53.367 0 0 0 15.61 2.379c14.18.034 27.744-5.549 41.798-7.424 17.823-2.378 36.068 1.251 53.856-1.375 2.977-.439 5.956-1.061 8.696-2.302a20.5 20.5 0 0 0 4.6-2.872l-160.805.329Z"/>
    <path fill="#DADBD8" d="M170.963 148.119c0 .092-20.677.166-46.177.166-25.509 0-46.18-.074-46.18-.166 0-.092 20.671-.166 46.18-.166 25.5 0 46.177.074 46.177.166Zm9.895 4.228c0 .091-8.054.165-17.987.165-9.936 0-17.988-.074-17.988-.165 0-.093 8.052-.167 17.988-.167 9.933 0 17.987.074 17.987.167ZM178.484 3.55c-.01.026-.277-.071-.772-.172a6.273 6.273 0 0 0-2.122-.056 5.738 5.738 0 0 0-2.837 1.241 5.913 5.913 0 0 0-1.999 3.183l-.009.035-.122.471-.181-.447a6.37 6.37 0 0 0-2.397-2.901 6.187 6.187 0 0 0-2.933-.994c-1.805-.123-2.86.44-2.873.364-.007-.015.241-.158.73-.317a6.17 6.17 0 0 1 2.157-.272c.92.042 2.037.304 3.078.973a6.538 6.538 0 0 1 2.533 3.029l-.303.024.01-.038a6.107 6.107 0 0 1 2.124-3.337 5.82 5.82 0 0 1 2.994-1.237 5.788 5.788 0 0 1 2.178.158c.498.14.75.278.744.293ZM97.688.003c.017.018-.226.268-.642.74a16.164 16.164 0 0 0-1.576 2.138c-1.191 1.88-2.383 4.871-2.341 8.302l-.002.105-.289.024c-.497-3.375-2.27-6.064-3.825-7.619-1.565-1.588-2.836-2.204-2.794-2.263.004-.009.083.027.229.104.143.082.365.186.626.361.535.328 1.274.87 2.083 1.654a13.585 13.585 0 0 1 2.398 3.14 13.594 13.594 0 0 1 1.571 4.581l-.289.024v-.107c-.04-3.502 1.209-6.54 2.46-8.416A13.91 13.91 0 0 1 96.962.667c.214-.233.406-.39.526-.505.124-.112.192-.167.2-.16Z"/>
    <path fill="#33535F" d="m291.178 249.293-7.929.805 6.128-3.48-10.244-15.223-8.055-.796 6.491-1.528-22.771-33.837h-94.003l-.99 1.525 2.85 1.358-3.873.703s1.55.936 1.813.949c.264.011-3.641 1.379-3.641 1.379l-11.007 16.949 2.676 1.032-4.679 2.051-40.789 62.802h211.367l-23.344-34.689Z"/>
    <path fill="#17282F" d="M260.627 203.993c0 .092-23.586.166-52.673.166-29.097 0-52.678-.074-52.678-.166 0-.092 23.581-.166 52.678-.166 29.087 0 52.673.074 52.673.166Zm7.097 10.192c0 .092-26.663.167-59.547.167-32.895 0-59.554-.075-59.554-.167 0-.091 26.659-.166 59.554-.166 32.884 0 59.547.075 59.547.166Zm7.134 10.858c0 .092-29.751.166-66.441.166-36.704 0-66.447-.074-66.447-.166 0-.091 29.743-.165 66.447-.165 36.69 0 66.441.074 66.441.165Zm-116.891-8.35c0 .036-.158.066-.352.066-.194 0-.351-.03-.351-.066 0-.037.157-.067.351-.067.194 0 .352.03.352.067Zm28.6-.703c0 .037-5.353.067-11.955.067-6.605 0-11.957-.03-11.957-.067 0-.036 5.352-.066 11.957-.066 6.602 0 11.955.03 11.955.066Zm2.58 2.108c0 .036-5.301.066-11.839.066-6.54 0-11.839-.03-11.839-.066 0-.037 5.299-.067 11.839-.067 6.538 0 11.839.03 11.839.067Zm70.096 1.873c0 .036-3.36.066-7.502.066-4.144 0-7.503-.03-7.503-.066 0-.037 3.359-.066 7.503-.066 4.142 0 7.502.029 7.502.066Zm9.03 13.252s-.285.025-.829.059l-2.38.14c-2.068.017-5.071.049-8.758-.32-3.688-.329-8.052-.966-12.882-1.742-4.83-.765-10.144-1.633-15.774-2.042-5.629-.382-11.036-.092-15.833.863-4.806.915-9.013 2.267-12.508 3.465-3.493 1.22-6.279 2.318-8.207 3.067l-2.219.867c-.507.199-.777.296-.777.296s.263-.114.767-.32l2.21-.891c1.922-.764 4.704-1.876 8.194-3.107 3.495-1.211 7.703-2.573 12.516-3.497 4.805-.964 10.228-1.259 15.866-.875 5.638.409 10.955 1.281 15.784 2.054 4.83.782 9.188 1.428 12.872 1.769 3.682.38 6.681.363 8.748.362l2.38-.116c.544-.025.83-.032.83-.032Zm-70.678-2.624c0 .037-12.193.067-27.232.067-15.043 0-27.234-.03-27.234-.067 0-.037 12.191-.066 27.234-.066 15.039 0 27.232.029 27.232.066Zm38.061-10.818c0 .037-7.86.067-17.553.067-9.697 0-17.555-.03-17.555-.067 0-.036 7.858-.066 17.555-.066 9.693 0 17.553.03 17.553.066Zm22.312-9.505c0 .037-11.312.067-25.264.067-13.956 0-25.266-.03-25.266-.067 0-.036 11.31-.066 25.266-.066 13.952 0 25.264.03 25.264.066Zm-66.278-11.801c0 .037-5.73.066-12.796.066-7.069 0-12.797-.029-12.797-.066 0-.037 5.728-.067 12.797-.067 7.066 0 12.796.03 12.796.067Z"/>
    <path fill="#17282F" d="M154.23 224.12c-2.567.778-5.03.859-7.353 0v-23.114c2.665-1.323 5.099-1.216 7.353 0v23.114Z"/>
    <path fill="#33535F" d="M154.241 201.019c.004.008-.088.056-.258.136a6.525 6.525 0 0 1-.742.287 8.856 8.856 0 0 1-5.189.077 6.428 6.428 0 0 1-.75-.266c-.172-.074-.266-.119-.263-.128.01-.023.394.135 1.038.303.644.17 1.557.323 2.574.31a9.876 9.876 0 0 0 2.562-.386c.64-.187 1.019-.356 1.028-.333Z"/>
    <path fill="#33535F" d="M152.986 200.829s-.085.116-.309.23c-.223.118-.578.201-1.013.267a7.976 7.976 0 0 1-2.465-.013c-.158-.034-.344-.076-.459-.252-.114-.192.019-.426.186-.506.349-.143.669-.128.992-.155a5.986 5.986 0 0 1 1.344.111c.141.033.287.083.374.226.095.169-.075.34-.202.347-.131.03-.25.012-.358.009l-1.04-.06c-.245-.018-.381-.031-.38-.04 0-.01.136-.013.382-.012l1.041.019c.111.001.226.012.33-.015.108-.019.178-.113.13-.196-.118-.178-.441-.183-.715-.225-.559-.055-1.239-.076-1.834.108-.128.066-.203.216-.135.324.064.108.223.162.367.19a8.6 8.6 0 0 0 2.429.047c.434-.054.783-.121 1.005-.221.222-.095.322-.193.33-.183Zm-6.31 14.207a.512.512 0 0 1 .013-.138l.063-.388.25-1.426c.211-1.204.498-2.867.786-4.71.288-1.842.523-3.514.689-4.725l.197-1.434.058-.389a.515.515 0 0 1 .03-.135.605.605 0 0 1-.003.138l-.034.392-.155 1.439a127.542 127.542 0 0 1-.651 4.735 125.57 125.57 0 0 1-.825 4.706l-.292 1.419-.087.384a.603.603 0 0 1-.039.132Zm7.439-10.281c-.007.015-.162-.12-.504-.199-.335-.077-.874-.063-1.417.249-.546.308-1.029.901-1.459 1.612a18.961 18.961 0 0 0-1.254 2.4c-.774 1.765-1.259 3.448-1.61 4.661l-.41 1.441-.115.39a.537.537 0 0 1-.049.134.58.58 0 0 1 .023-.141l.091-.397.369-1.452c.329-1.22.801-2.914 1.579-4.689.389-.886.822-1.704 1.272-2.413.438-.711.943-1.318 1.517-1.628.572-.314 1.133-.313 1.476-.217.349.098.491.249.491.249Zm-2.43 12.354s.133.068.219.315a.913.913 0 0 1-.342 1.002c-.406.288-1.167.207-1.597-.364-.445-.565-.469-1.434-.257-2.26.104-.417.195-.857.372-1.301.174-.435.503-.882 1.015-1.048.528-.181 1.096.131 1.431.549.356.422.599.932.801 1.467a6.23 6.23 0 0 1 .182 3.54c-.295 1.202-.943 2.417-2.039 3.195-.541.374-1.237.609-1.888.417-.65-.186-1.108-.738-1.338-1.316-.237-.592-.254-1.225-.215-1.818.045-.597.131-1.172.214-1.734.338-2.248.963-4.234 1.812-5.736.841-1.51 1.853-2.515 2.615-3.096.768-.584 1.267-.786 1.267-.786s-.111.072-.33.197c-.213.135-.532.329-.905.63-.747.59-1.741 1.597-2.564 3.1-.832 1.497-1.444 3.47-1.773 5.709-.082.56-.166 1.136-.21 1.724-.037.585-.017 1.199.21 1.761.221.553.656 1.068 1.253 1.239.599.176 1.255-.039 1.777-.401 1.056-.748 1.699-1.94 1.987-3.114a6.13 6.13 0 0 0-.17-3.47c-.195-.522-.436-1.028-.775-1.432-.324-.405-.837-.68-1.309-.52-.467.149-.783.562-.953.983-.174.426-.27.87-.376 1.282-.214.817-.193 1.652.225 2.194.4.545 1.125.631 1.509.367a.886.886 0 0 0 .345-.952c-.074-.241-.204-.316-.193-.323Z"/>
    <path fill="#17282F" d="M271.313 222.886c-2.567.777-5.03.86-7.352 0v-23.114c2.665-1.322 5.099-1.215 7.352 0v23.114Z"/>
    <path fill="#33535F" d="M271.324 199.784c.003.009-.089.056-.259.136a6.496 6.496 0 0 1-.742.288 8.898 8.898 0 0 1-2.588.428 8.89 8.89 0 0 1-2.601-.351 6.52 6.52 0 0 1-.749-.266c-.173-.075-.266-.12-.264-.129.01-.022.394.136 1.038.304a9.849 9.849 0 0 0 2.574.309 9.838 9.838 0 0 0 2.562-.385c.64-.187 1.019-.357 1.029-.334Z"/>
    <path fill="#33535F" d="M270.068 199.596s-.085.116-.309.23c-.223.118-.578.201-1.013.268a8.131 8.131 0 0 1-2.466-.014c-.157-.034-.343-.076-.458-.252-.114-.192.02-.425.185-.505.349-.145.67-.129.993-.156a5.744 5.744 0 0 1 1.344.111c.141.033.287.083.375.226.094.169-.076.34-.203.347-.131.031-.249.012-.358.009l-1.04-.06c-.245-.018-.381-.032-.381-.04.001-.009.137-.013.384-.012l1.04.019c.111.001.226.013.33-.014.107-.02.177-.114.13-.197-.118-.178-.441-.183-.716-.225-.558-.055-1.238-.076-1.833.108-.127.066-.203.216-.135.323.064.108.224.163.367.19a8.61 8.61 0 0 0 2.43.048c.434-.054.782-.121 1.003-.22.223-.096.323-.194.331-.184Zm-6.31 14.207a.503.503 0 0 1 .013-.137l.063-.39.25-1.426c.212-1.204.497-2.867.786-4.709.287-1.843.523-3.515.689-4.726l.197-1.434.058-.389a.515.515 0 0 1 .03-.135.539.539 0 0 1-.003.138l-.034.393-.155 1.44a128.404 128.404 0 0 1-1.476 9.44l-.291 1.418-.088.385a.63.63 0 0 1-.039.132Zm7.44-10.282c-.007.014-.163-.121-.504-.2-.335-.077-.875-.061-1.417.25-.546.308-1.03.901-1.46 1.611-.44.707-.867 1.52-1.253 2.402-.773 1.764-1.259 3.447-1.611 4.659l-.408 1.441-.116.391a.56.56 0 0 1-.049.134.624.624 0 0 1 .023-.14l.091-.398.369-1.453c.329-1.22.801-2.912 1.579-4.688.389-.887.822-1.704 1.272-2.412.438-.713.944-1.319 1.517-1.629.572-.314 1.133-.313 1.475-.218.35.098.492.25.492.25Zm-2.431 12.353s.134.067.219.315a.912.912 0 0 1-.342 1.003c-.405.287-1.167.206-1.597-.365-.444-.565-.468-1.433-.257-2.26.105-.417.196-.858.373-1.301.173-.436.503-.881 1.015-1.048.528-.182 1.097.13 1.431.549.356.421.599.932.801 1.466a6.238 6.238 0 0 1 .181 3.542c-.295 1.201-.942 2.415-2.038 3.194-.541.375-1.238.609-1.888.418-.65-.187-1.108-.739-1.338-1.318-.237-.591-.254-1.224-.215-1.817.045-.598.131-1.172.214-1.735.338-2.246.963-4.232 1.812-5.735.841-1.51 1.853-2.515 2.616-3.096.768-.584 1.267-.787 1.267-.787s-.113.073-.332.198c-.212.136-.531.33-.904.63-.748.589-1.741 1.596-2.565 3.101-.832 1.496-1.443 3.469-1.773 5.709-.081.559-.165 1.135-.209 1.723-.038.584-.017 1.2.21 1.76.22.554.656 1.069 1.253 1.24.598.176 1.254-.039 1.777-.4 1.056-.749 1.699-1.941 1.987-3.116a6.127 6.127 0 0 0-.17-3.469c-.195-.522-.435-1.029-.775-1.431-.324-.405-.837-.681-1.309-.521-.468.15-.783.561-.954.982-.173.426-.268.871-.375 1.283-.214.817-.194 1.652.225 2.193.4.547 1.125.632 1.509.367a.885.885 0 0 0 .345-.951c-.074-.242-.204-.316-.194-.323Z"/>
    <path fill="#17282F" d="M277.569 229.072v2.17l-6.257-.698 6.257-1.472ZM159.806 196.76v1.875l2.85-.517-2.85-1.358Zm-1.024 2.06v1.677l1.814-.728-1.814-.949Zm152.093 31.594a22.03 22.03 0 0 0 11.794-3.397 5.372 5.372 0 0 1-2.385.281 4.738 4.738 0 0 0 2.629-1.992 55.041 55.041 0 0 1-11.172.848"/>
    <path fill="#F68260" d="m294.1 235.729.06 9.041-4.78 1.679s1.613.421 1.382 1.246c0 0 1.45-.362 1.812.891l2.415-2.879-.066-9.983-.823.005Z"/>
    <path fill="#F68260" d="m298.6 235.699.06 9.042-4.779 1.678s1.612.421 1.382 1.246c0 0 1.45-.362 1.812.891l2.415-2.879-.066-9.983-.824.005Z"/>
    <path fill="#FAFAF9" d="M282.153 212.999s1.815-.539 2.42-1.229c.606-.69 2.574-2.99 5.173-2.397 2.598.592 4.441 2.562 4.378 4.544-.063 1.983.032 4.421.032 4.421l21.259 7.863s-6.654 9.037-14.815 9.397c0 0-.755 1.148-1.633 1.078-.878-.071-1.876-1.055-1.876-1.055s-5.87.801-9.777-1.689c-3.908-2.489-7.284-5.44-7.088-10.472.195-5.032 4.598-8.414 4.598-8.414l-2.671-2.047Z"/>
    <path fill="#17282F" d="m282.153 212.999 2.701 2.006.051.038-.051.042a14.048 14.048 0 0 0-3.343 4.118c-.501.955-.921 2.065-1.102 3.307a9.349 9.349 0 0 0 .283 3.954c.382 1.36 1.175 2.661 2.222 3.812 1.056 1.152 2.357 2.159 3.771 3.099.709.479 1.445.909 2.256 1.24a13.96 13.96 0 0 0 2.566.711c1.779.313 3.672.366 5.565.16l.065-.008.05.046c.468.428 1.042.87 1.683.998.632.113 1.225-.458 1.614-1.001l.042-.059.068-.004c3.17-.188 6.281-1.622 8.953-3.663a30.91 30.91 0 0 0 5.755-5.677l.065.214-21.25-7.889-.071-.027-.003-.074a70.297 70.297 0 0 1-.022-4.364 3.522 3.522 0 0 0-.473-1.873 5.082 5.082 0 0 0-1.208-1.398 6.405 6.405 0 0 0-3.048-1.33c-1.031-.107-1.976.223-2.697.676-.735.447-1.291.99-1.743 1.477-.415.541-.962.809-1.373.997a9.637 9.637 0 0 1-.98.376 3.194 3.194 0 0 1-.346.096s.114-.046.335-.128c.22-.083.55-.206.963-.405.411-.202.924-.458 1.328-1.001.449-.499 1.004-1.055 1.749-1.52.73-.471 1.704-.825 2.781-.722a6.55 6.55 0 0 1 3.145 1.343c.483.388.926.868 1.261 1.444.333.573.535 1.264.509 1.974a72.015 72.015 0 0 0 .044 4.349l-.073-.101 21.269 7.837.179.066-.115.148a31.058 31.058 0 0 1-5.812 5.739c-2.698 2.061-5.86 3.525-9.11 3.714l.11-.062a3.458 3.458 0 0 1-.785.816c-.301.22-.71.386-1.106.304-.759-.161-1.323-.62-1.83-1.077l.114.038a20.09 20.09 0 0 1-5.649-.172 14.212 14.212 0 0 1-2.614-.732c-.827-.338-1.594-.792-2.297-1.27-1.421-.952-2.735-1.974-3.804-3.152-1.062-1.174-1.868-2.512-2.252-3.906a9.52 9.52 0 0 1-.267-4.041c.193-1.264.629-2.39 1.146-3.353a13.946 13.946 0 0 1 3.421-4.124v.08l-1.987-1.565-.495-.392a3.04 3.04 0 0 1-.158-.129Z"/>
    <path fill="#E7E8E5" d="M314.128 224.799a19.432 19.432 0 0 0-10.661-6.604 19.467 19.467 0 0 0-9.738.324l.161-.061a13.193 13.193 0 0 0-5.566 2.154c-.705.482-1.425 1.16-1.395 2.013.027.77.659 1.369 1.267 1.842a22.391 22.391 0 0 0 12.746 4.666 22.398 22.398 0 0 0 13.083-3.619c.119-.078.246-.17.272-.309.027-.149-.073-.288-.169-.406Z"/>
    <path fill="#17282F" d="M288.588 212.619a.68.68 0 0 1-1.356.009.678.678 0 0 1 1.356-.009Zm16.918 10.516c.007.012-.07.074-.227.172-.158.095-.4.22-.726.333a4.563 4.563 0 0 1-2.804.04l.072-.244c.567.165.728.953.316 1.395-.402.437-1.078.478-1.603.282-.312-.108-.586-.263-.84-.406l.188-.197c.258.414.217.917.041 1.298a1.629 1.629 0 0 1-.859.824c-.718.289-1.421.148-1.92-.046-.508-.201-.866-.446-1.11-.612-.242-.169-.367-.272-.358-.287.01-.015.155.06.412.2.258.138.628.355 1.12.523.481.165 1.137.261 1.756-.007.305-.133.568-.375.714-.706.143-.323.163-.728-.034-1.036l-.297-.468.484.269c.254.141.516.287.794.383.469.176 1.011.118 1.307-.2.3-.29.161-.881-.176-.963l.072-.244a4.656 4.656 0 0 0 2.68.057c.644-.18.98-.392.998-.36Z"/>
    <path fill="#17282F" d="M313.355 225.776c.004.005-.028.039-.093.103-.067.062-.164.159-.301.273a7.812 7.812 0 0 1-1.28.858 8.516 8.516 0 0 1-5.389.905l.06-.232c.487.169.96.489 1.311.939l.121.156-.193.046a10.208 10.208 0 0 1-4.939-.051l-.817-.214.848-.062c.222-.016.43.168.479.351a.795.795 0 0 1-.015.564c-.186.405-.624.473-.958.465-4.414-.712-8.14-2.247-10.721-3.555a33.767 33.767 0 0 1-2.972-1.702c-.344-.213-.598-.399-.773-.518-.174-.123-.262-.191-.258-.199.006-.008.105.044.288.151.21.123.475.28.8.473.693.411 1.712.981 3.005 1.615a41.186 41.186 0 0 0 4.67 1.934c1.792.601 3.84 1.196 5.969 1.518.287.018.612-.082.689-.292.102-.224-.013-.552-.193-.524l.031-.277c1.672.442 3.362.411 4.807.074l-.071.203a2.63 2.63 0 0 0-1.187-.867l.06-.233a8.58 8.58 0 0 0 5.284-.791c1.173-.597 1.711-1.147 1.738-1.111Zm-24.523-14.295c-.102.061-.226.064-.33.072a1.071 1.071 0 0 1-.296-.014 1.062 1.062 0 0 1-.277-.103c-.093-.05-.204-.1-.274-.196-.068-.091-.062-.238.072-.37.129-.132.385-.219.65-.164.266.054.467.234.534.406.071.174.019.311-.079.369Z"/>
    <path fill="#F03D5F" d="M282.153 212.999s-5.326-.299-6.124 4.452l.781-.432a3.296 3.296 0 0 1 1.32-.4l5.565-.633 1.129-.94a1327.32 1327.32 0 0 0-2.671-2.047Z"/>
    <path fill="#17282F" d="M281.934 213.486c.006.079-.303.165-.686.229-.381.062-.702.082-.723.006-.019-.075.28-.22.677-.286.396-.066.727-.027.732.051Zm2.306 2.089c.003.039-.474.119-1.249.22-.775.1-1.847.219-3.033.334-.593.06-1.162.094-1.661.171-.502.075-.936.206-1.27.382-.68.35-.909.807-.946.779-.034-.001.141-.527.848-.953.344-.212.806-.374 1.324-.466.52-.093 1.086-.135 1.678-.196a97.694 97.694 0 0 1 3.04-.25c.78-.049 1.265-.061 1.269-.021Zm30.057 9.629c-.018.018-.324-.288-.889-.824a45.152 45.152 0 0 0-2.477-2.176c-1.084-.875-2.35-1.956-3.965-2.819a13.162 13.162 0 0 0-2.642-1.081c-.953-.271-1.976-.413-3.029-.463-4.228-.098-8.097.561-10.625 1.701a14.235 14.235 0 0 0-2.84 1.632c-.621.467-.934.766-.953.745-.008-.008.063-.09.206-.239.144-.147.366-.356.668-.607a12.896 12.896 0 0 1 2.823-1.745c2.553-1.214 6.453-1.918 10.736-1.818 1.073.05 2.123.198 3.103.481.98.28 1.882.677 2.699 1.125 1.641.897 2.906 2.012 3.969 2.909a33.115 33.115 0 0 1 2.418 2.263c.27.283.474.509.607.666.133.157.2.243.191.25Z"/>
    <path fill="#33535F" d="m47.743 190.986.272-.029c-.556-8.295-4.72-17.147-7.737-24.906-3.104-7.985-6.014-16.185-13.08-21.034 7.637 14.866 14.499 30.389 20.545 45.969Zm4.959-42.052a.46.46 0 0 1-.027.107l-.098.309-.391 1.179-.287.851-.31 1.022c-.215.735-.485 1.565-.718 2.501l-.386 1.463c-.132.509-.242 1.046-.37 1.598-.27 1.102-.483 2.294-.725 3.546a87.046 87.046 0 0 0-1.033 8.223 88.846 88.846 0 0 0-.178 8.289c.054 1.273.089 2.484.188 3.614.044.566.073 1.112.127 1.636l.158 1.505c.087.96.224 1.822.324 2.582.052.378.1.732.146 1.057l.148.885.2 1.227.047.32c.01.072.013.109.01.11 0 0-.535-2.331-.998-6.167l-.17-1.506c-.057-.525-.089-1.072-.137-1.638-.105-1.131-.146-2.344-.204-3.62a86.06 86.06 0 0 1 .165-8.307 84.333 84.333 0 0 1 1.049-8.239c.247-1.253.465-2.447.741-3.55.133-.552.246-1.088.382-1.597l.397-1.463c.24-.936.52-1.765.745-2.498l.323-1.019c.11-.308.21-.592.302-.847l.422-1.169.114-.303a.579.579 0 0 1 .044-.101Z"/>
    <path fill="#F3F2F1" d="m50.349 156.839-.429-.122a1.894 1.894 0 0 1-1.308-2.339l2.843-10.022a1.895 1.895 0 0 1 2.341-1.306l.43.121a1.894 1.894 0 0 1 1.307 2.339l-2.843 10.022a1.897 1.897 0 0 1-2.341 1.307Z"/>
    <path fill="#17282F" d="M50.349 156.839c.002-.013.115.028.337.044.219.017.558.004.941-.171.377-.169.797-.532.983-1.097.17-.575.347-1.244.553-1.975.41-1.469.899-3.213 1.44-5.146l.854-3.037a1.812 1.812 0 0 0-.885-2.051c-.235-.135-.518-.188-.798-.273a1.816 1.816 0 0 0-2.086.879c-.132.229-.183.499-.264.764l-.866 3.034-1.476 5.137-.302 1.043c-.096.331-.198.633-.19.929.005.595.291 1.069.594 1.35.306.292.63.392.84.459l.243.078.082.033-.086-.016-.249-.062c-.212-.056-.552-.148-.876-.442a1.938 1.938 0 0 1-.646-1.398c-.012-.314.09-.636.181-.961l.29-1.046c.411-1.469.9-3.213 1.44-5.147l.857-3.038c.078-.257.13-.539.276-.798a1.988 1.988 0 0 1 2.285-.965c.273.083.567.136.835.287a1.984 1.984 0 0 1 .966 2.247l-.864 3.037-1.477 5.136c-.213.731-.397 1.391-.578 1.972a1.913 1.913 0 0 1-2.02 1.273c-.226-.027-.334-.079-.334-.079Z"/>
    <path fill="#33535F" d="M49.528 190.958c-.258-6.4-.267-13.438 3.366-18.716 2.058-2.989 5.154-5.143 8.467-6.63 3.311-1.487 6.861-2.358 10.388-3.222-3.93 5.503-12.832 5.566-16.598 11.182-1.117 1.665-1.641 3.646-2.147 5.586-1.046 4.011-1.969 7.818-3.015 11.829m-28.522-22.494.087.004.255.028c.222.033.554.057.975.139.844.133 2.057.4 3.512.878 1.455.473 3.137 1.206 4.883 2.233a27.283 27.283 0 0 1 2.617 1.797 24.86 24.86 0 0 1 2.522 2.295 22.802 22.802 0 0 1 2.166 2.632c.329.443.613.904.905 1.346.27.456.547.895.782 1.343a26.97 26.97 0 0 1 2.114 4.932c.456 1.46.71 2.675.833 3.52.076.421.094.753.123.976l.025.255.002.087-.02-.085-.041-.253c-.04-.22-.07-.551-.156-.969a25.295 25.295 0 0 0-.884-3.493 27.636 27.636 0 0 0-2.137-4.892c-.235-.445-.513-.88-.782-1.333-.291-.438-.575-.895-.903-1.334a22.995 22.995 0 0 0-2.153-2.612 25.165 25.165 0 0 0-2.502-2.281 27.785 27.785 0 0 0-2.594-1.793c-1.73-1.028-3.396-1.768-4.84-2.255a25.127 25.127 0 0 0-3.485-.927c-.417-.092-.747-.127-.967-.171l-.252-.045-.085-.022Z"/>
    <path fill="#F3F2F1" d="m27.97 170.543-.192.4a1.896 1.896 0 0 1-2.531.887l-9.397-4.514a1.894 1.894 0 0 1-.887-2.529l.193-.401a1.897 1.897 0 0 1 2.53-.886l9.398 4.514a1.894 1.894 0 0 1 .887 2.529Z"/>
    <path fill="#17282F" d="M27.97 170.543c-.01-.005.05-.109.103-.325.054-.213.1-.549-.007-.955a1.852 1.852 0 0 0-.914-1.157c-.538-.264-1.168-.553-1.853-.881l-4.829-2.299-2.848-1.361a1.823 1.823 0 0 0-1.543.015c-.243.118-.46.291-.63.505-.174.208-.275.478-.407.74a1.815 1.815 0 0 0 .51 2.203c.203.168.46.266.708.39l2.845 1.372 4.812 2.333.977.476c.31.151.59.302.884.346a1.88 1.88 0 0 0 1.432-.354c.34-.251.495-.553.597-.748l.119-.226.045-.074-.03.082-.102.233c-.092.199-.241.519-.587.786a1.94 1.94 0 0 1-1.49.397c-.311-.041-.611-.198-.916-.342l-.982-.465-4.83-2.299-2.848-1.363c-.24-.121-.51-.221-.74-.408a1.99 1.99 0 0 1-.56-2.415c.128-.255.23-.535.426-.772a1.988 1.988 0 0 1 2.382-.567l2.846 1.371 4.812 2.333c.685.336 1.303.629 1.846.906.55.305.837.809.934 1.225.1.425.041.768-.026.982a1.17 1.17 0 0 1-.135.316Z"/>
    <path fill="#33535F" d="m371.989 174.01 9.81 69.787 2.553.084c-1.629-23.704-3.363-47.879-12.363-69.871Zm27.244-3.268c-6.852 7.5-9.608 17.815-11.344 27.819-2.461 14.189-2.684 30.94-1.947 45.321l3.581.079c-1.45-24.838 1.91-49.589 9.71-73.219Zm-25.442 44.555c-.787-3.457-1.688-6.974-3.663-9.919-2.669-3.978-7.016-6.495-11.391-8.453-4.375-1.959-8.977-3.526-12.928-6.236 4.409 7.224 14.418 9.146 19.517 15.903 2.535 3.362 3.588 7.58 4.582 11.671 2.167 8.921 3.501 16.641 5.669 25.561h2.9c-.956-9.694-2.522-19.029-4.686-28.527Zm18.346 28.584s2.457-27.717 4.278-32.806c1.821-5.088 19.041-19.149 18.876-18.488-.166.662-12.915 16.046-14.737 19.189-1.821 3.143-4.967 32.105-4.967 32.105h-3.45Z"/>
    <path fill="#17282F" d="M138.187 63.827c-.014.04-.704-.244-2.007-.532a16.027 16.027 0 0 0-5.604-.216c-2.344.313-5.121 1.255-7.552 3.254-2.426 1.963-4.501 4.932-5.33 8.455l-.025.094-.155.604-.233-.573c-1.356-3.348-3.766-6.007-6.381-7.698-2.622-1.723-5.441-2.436-7.794-2.597a17.227 17.227 0 0 0-5.569.51c-1.285.338-1.965.636-1.98.598-.005-.013.162-.093.485-.233.322-.143.81-.329 1.453-.518 1.28-.384 3.218-.775 5.629-.643 2.393.125 5.285.823 7.979 2.568 2.686 1.712 5.164 4.426 6.557 7.861l-.388.031.025-.096c.853-3.623 2.993-6.66 5.491-8.655 2.505-2.032 5.361-2.966 7.751-3.247 2.409-.29 4.378.011 5.677.347.654.163 1.15.333 1.478.467.329.131.498.206.493.219Zm62.151-37.13c-.012.034-.396-.11-1.112-.258a8.99 8.99 0 0 0-3.066-.088c-1.279.179-2.788.698-4.108 1.79-1.318 1.073-2.446 2.69-2.896 4.606l-.013.051-.156.604-.232-.573a9.21 9.21 0 0 0-3.471-4.198 8.953 8.953 0 0 0-4.245-1.434 9.691 9.691 0 0 0-3.05.25c-.706.174-1.085.327-1.098.295-.005-.013.084-.063.26-.146.176-.084.443-.192.796-.3a8.923 8.923 0 0 1 3.11-.386 9.025 9.025 0 0 1 4.431 1.407 9.426 9.426 0 0 1 3.645 4.36l-.387.031.013-.053a8.797 8.797 0 0 1 3.057-4.805 8.386 8.386 0 0 1 4.307-1.785 8.353 8.353 0 0 1 3.139.22c.36.096.632.195.811.274.179.078.27.125.265.138Zm-43.515-8.688c.025.025-.384.438-1.078 1.22a26.483 26.483 0 0 0-2.629 3.547c-1.986 3.121-3.974 8.096-3.905 13.805l-.002.174-.405.033a22.704 22.704 0 0 0-2.526-7.477 23.272 23.272 0 0 0-3.847-5.191c-1.298-1.314-2.483-2.24-3.335-2.825-.851-.588-1.343-.884-1.325-.916.006-.012.136.05.377.18.237.138.604.313 1.035.605.887.548 2.11 1.449 3.451 2.753 1.342 1.3 2.763 3.047 3.972 5.214a22.583 22.583 0 0 1 2.601 7.599l-.405.033.002-.177c-.07-5.808 1.998-10.848 4.069-13.964 1.03-1.58 2.021-2.748 2.756-3.5.354-.389.669-.652.868-.844.204-.187.316-.28.326-.27Zm259.887 99.167c0 .092-98.216.167-219.344.167-121.17 0-219.366-.075-219.366-.167 0-.091 98.196-.165 219.366-.165 121.128 0 219.344.074 219.344.165Zm-54.455 42.796c0 .091-19.1.165-42.655.165-23.563 0-42.659-.074-42.659-.165 0-.093 19.096-.167 42.659-.167 23.555 0 42.655.074 42.655.167Zm25.062 7.762c0 .092-19.099.166-42.654.166-23.563 0-42.659-.074-42.659-.166 0-.091 19.096-.166 42.659-.166 23.555 0 42.654.075 42.654.166Z"/>
    <path fill="#33535F" d="M443.793 122c0 .091-40.297.166-89.996.166-49.715 0-90.004-.075-90.004-.166 0-.091 40.289-.166 90.004-.166 49.699 0 89.996.075 89.996.166Zm-133.263 3.352c0 .092-11.958.166-26.705.166-14.753 0-26.708-.074-26.708-.166 0-.092 11.955-.166 26.708-.166 14.747 0 26.705.074 26.705.166Zm139.468-.298c0 .092-9.634.167-21.513.167-11.884 0-21.514-.075-21.514-.167 0-.091 9.63-.165 21.514-.165 11.879 0 21.513.074 21.513.165Z"/>
    <path fill="#17282F" d="M110.152 191.15c0 .091-19.2.165-42.878.165-23.687 0-42.882-.074-42.882-.165 0-.092 19.195-.166 42.882-.166 23.678 0 42.878.074 42.878.166Zm6.721-9.721c0 .092-7.3.166-16.303.166-9.006 0-16.304-.074-16.304-.166 0-.092 7.298-.166 16.304-.166 9.003 0 16.303.074 16.303.166Z"/>
    <path fill="#33535F" d="M54.214 193.967c0 .092-2.925.166-6.532.166-3.608 0-6.533-.074-6.533-.166 0-.092 2.925-.166 6.533-.166 3.607 0 6.532.074 6.532.166Zm-7.631 2.975c-.005.092-1.167.108-2.596.037-1.43-.071-2.583-.203-2.579-.295.005-.091 1.167-.107 2.596-.036 1.428.071 2.583.203 2.579.294Zm-2.847 3.357c-.005.092-.53.137-1.173.101-.643-.035-1.16-.139-1.155-.23.005-.092.53-.137 1.174-.101.643.035 1.16.138 1.154.23ZM446.848 78.047c-5.371-3.596-17.906-3.887-22.651.5-1.876-3.58-8.603-1.929-8.606 2.112-3.34-2.71-9.302 1.18-8.163 5.324-2.467-3.157-8.548-1.68-9.289 2.256l-18.364-6.494c-7.241-4.551-16.799-5.174-24.57-1.6-1.101-1.797-3.641-2.54-5.538-1.618-1.896.921-2.88 3.376-2.145 5.35-2.413-1.595-6.176-.374-7.19 2.333-1.992-2.654-7.19-.832-7.086 2.483-2.812-1.681-7.051.722-7.049 3.995-1.582-2.876-6.527-2.83-8.055.074-.858-3.058-4.279-5.151-7.396-4.524-4.96-4.531-12.935-5.365-18.727-1.959-1.073-1.683-3.421-2.417-5.262-1.644-1.842.773-2.962 2.961-2.51 4.905-2.904-2.46-8.081-1.202-9.528 2.316-2.06-2.527-7.107-.284-6.609 2.936-1.783-2.561-6.793-.362-6.113 2.682-1.755-2.96-7.449-.893-6.892 2.503-3.585-2.273-9.072-.37-10.474 3.635-1.524-3.11-7.362-1.701-7.297 1.761-1.939-3.489-7.509-4.139-10.201-1.191-2.679-3.135-8.031-3.454-11.064-.662 1.007-2.683-2.091-5.862-4.804-4.928.154-3.837-3.356-7.424-7.198-7.358-3.844.067-7.227 3.773-6.94 7.603-1.752-1.05-4.351-.175-5.109 1.72-.756 1.896.525 4.319 2.519 4.762-1.28-2.023-4.495-2.433-6.242-.797-1.749 1.637-1.546 4.869.391 6.276-1.941-1.381-4.789-1.317-6.667.15-1.877 1.466-2.627 4.212-1.755 6.427h266.584V78.047Z"/>
    <path fill="#17282F" d="M324.179 92.726c-.015.017-.22-.188-.675-.47a4.925 4.925 0 0 0-2.178-.7c-.975-.085-2.259.126-3.313 1.027-1.043.87-1.843 2.408-1.661 4.094l.017.162-.164-.004c-1.583-.04-3.292.729-4.506 2.101-1.214 1.344-1.987 3.346-1.54 5.302l.066.293-.286-.1a6.046 6.046 0 0 0-.778-.218c-2.038-.413-4.194.352-5.417 1.809-1.241 1.457-1.621 3.415-1.236 5.014l.077.317-.287-.157c-1.534-.837-3.238-.929-4.618-.619-1.404.278-2.511.937-3.298 1.583-1.586 1.347-1.867 2.613-1.935 2.561-.007-.002.016-.073.067-.208.057-.132.12-.34.252-.587a6.478 6.478 0 0 1 1.506-1.895 7.592 7.592 0 0 1 3.357-1.685c1.419-.339 3.192-.269 4.81.599l-.211.16c-.419-1.687-.035-3.743 1.272-5.291 1.297-1.553 3.568-2.363 5.728-1.926.288.058.569.142.827.232l-.22.193c-.473-2.091.354-4.191 1.627-5.59 1.275-1.429 3.076-2.23 4.752-2.173l-.146.158c-.176-1.803.687-3.404 1.796-4.304 1.125-.933 2.475-1.127 3.476-1.014a4.807 4.807 0 0 1 2.211.792c.224.155.385.288.484.389.101.097.15.15.144.155Zm81.797-7.75c.011.092-1.544-.31-4.021.463a10.628 10.628 0 0 0-3.948 2.297 9.735 9.735 0 0 0-2.979 4.968l-.031.13-.132-.013c-1.553-.145-3.255.228-4.731 1.15-1.483.892-2.761 2.307-3.431 4.034-.255.604-.371 1.246-.457 1.878l-.037.276-.224-.156c-1.843-1.29-4.399-1.187-6.029.013-1.656 1.203-2.378 3.26-2.137 4.965l.045.313-.259-.182c-1.314-.928-2.923-1.052-4.157-.693-1.259.351-2.129 1.19-2.636 1.957a5.065 5.065 0 0 0-.789 1.996c-.078.494-.065.764-.086.764-.008 0-.014-.067-.019-.197a3.526 3.526 0 0 1 .024-.578 4.914 4.914 0 0 1 .739-2.07c.501-.802 1.39-1.695 2.706-2.083 1.285-.393 2.97-.29 4.377.682l-.215.13c-.268-1.802.47-3.966 2.224-5.257 1.737-1.284 4.427-1.405 6.404-.03l-.261.12c.088-.663.212-1.337.478-1.968 1.421-3.64 5.261-5.746 8.503-5.364l-.163.116a9.936 9.936 0 0 1 3.104-5.088 10.65 10.65 0 0 1 4.063-2.283 9.528 9.528 0 0 1 3.002-.41c.351.005.62.057.8.073.181.022.274.038.273.047Zm-53.237 29.082c-.016-.009.082-.25.35-.633a5.375 5.375 0 0 1 1.425-1.369 5.478 5.478 0 0 1 2.792-.914 5.756 5.756 0 0 1 3.463.965l-.254.093.01-.033c.374-1.288 1.41-2.214 2.482-2.582 1.091-.393 2.188-.163 2.927.239a3.75 3.75 0 0 1 1.459 1.35c.243.406.299.664.285.669-.028.012-.125-.228-.392-.597a3.902 3.902 0 0 0-1.458-1.212c-.714-.353-1.724-.537-2.718-.161-.981.353-1.929 1.219-2.265 2.385l-.009.03-.071.218-.183-.125a5.568 5.568 0 0 0-3.264-.934 5.41 5.41 0 0 0-2.678.807c-1.386.869-1.846 1.855-1.901 1.804ZM249.93 103.566c.014.051-.592.063-1.435.585-.41.264-.879.654-1.249 1.227a3.758 3.758 0 0 0-.647 2.132l.004.322-.242-.212c-.608-.529-1.464-.885-2.397-.934-.93-.049-1.939.237-2.699.915-1.016.9-1.489 2.265-1.338 3.432l.05.381-.301-.239a4.076 4.076 0 0 0-2.726-.863 3.99 3.99 0 0 0-2.142.774c-1.05.795-1.297 1.603-1.347 1.564-.013-.004.038-.197.212-.519a3.987 3.987 0 0 1 1.019-1.197 4.093 4.093 0 0 1 2.241-.885 4.306 4.306 0 0 1 2.937.882l-.252.142c-.177-1.271.324-2.743 1.427-3.721.829-.74 1.937-1.048 2.935-.986 1.005.06 1.923.455 2.57 1.039l-.238.11a3.937 3.937 0 0 1 .74-2.27 4.158 4.158 0 0 1 1.357-1.238 3.578 3.578 0 0 1 1.106-.411c.269-.042.414-.043.415-.03Zm186.105-16.362c-.004.082-1.099-.326-2.889.015a7.498 7.498 0 0 0-2.91 1.248 6.885 6.885 0 0 0-2.451 3.045l-.067.163-.158-.076a7.498 7.498 0 0 0-2.17-.66c-1.684-.23-3.351.113-4.632.833-1.296.71-2.196 1.755-2.766 2.71a7.964 7.964 0 0 0-.946 2.471c-.118.62-.129.972-.16.97-.013 0-.018-.087-.019-.255a5.442 5.442 0 0 1 .051-.736 7.405 7.405 0 0 1 .871-2.566c.559-1 1.472-2.103 2.82-2.861 1.331-.767 3.068-1.135 4.827-.895a7.675 7.675 0 0 1 2.269.697l-.225.086a7.078 7.078 0 0 1 2.593-3.161 7.491 7.491 0 0 1 3.036-1.223c.918-.147 1.669-.1 2.169-.008.252.033.439.103.568.133.127.037.192.061.189.07Z"/>
    <path fill="#F03D5F" d="m222.983 192.804.633 14.893 8.049-.18-.602-14.923-8.08.21Z"/>
    <path fill="#17282F" d="M227.568 207.047c.067-.004-.057-3.265-.279-7.284-.221-4.02-.455-7.275-.522-7.271-.067.004.058 3.264.279 7.284.221 4.018.454 7.275.522 7.271Z"/>
    <path fill="#17282F" d="m223.572 206.67 8.051-.206.042 1.053-8.049.18-.044-1.027Zm7.901-3.923c.012-.01-.062-.125-.221-.315a5.585 5.585 0 0 0-.752-.733 5.467 5.467 0 0 0-1.34-.81 4.234 4.234 0 0 0-1.894-.347c-1.391.067-2.529.802-3.072 1.507a3.674 3.674 0 0 0-.549.901c-.092.231-.124.365-.111.37.045.022.215-.513.79-1.158.556-.647 1.636-1.312 2.956-1.377 1.315-.069 2.43.545 3.114 1.05.699.517 1.047.942 1.079.912Z"/>
    <path fill="#20353D" d="m223.295 200.143-.116-1.322h.06l.056 1.322Zm8.047-.644-.028-.678h.001l.027.678Z"/>
    <path fill="#BA2C42" d="m223.358 200.862-.064-.72-.056-1.322h3.756l.052.956.042.752-3.73.334Zm3.972-.355-.041-.744-.053-.943h4.078l.027.679.026.646-4.037.362Z"/>
    <path fill="#0F191D" d="m227.088 200.528-.042-.752-.052-.956h.243l.053.943.04.744-.242.021Z"/>
    <path fill="#F03D5F" d="m192.091 194.556.343 8.941s-8.936 3.165-9.034 4.824l17.332.144.037-13.954-8.678.045Z"/>
    <path fill="#DADBD8" d="M197.69 202.763c.339.092.574.472.496.814-.078.342-.462.584-.802.498-.341-.086-.637-.533-.522-.865.116-.33.583-.59.894-.425"/>
    <path fill="#17282F" d="m200.733 208.463.002-1.112-16.824.199s-.552.341-.598.863l17.42.05Zm-8.456-4.91c.003.086.43.124.852.397.428.263.645.632.724.598.079-.017-.05-.527-.566-.849-.513-.327-1.029-.224-1.01-.146Zm-1.834.764c-.02.082.351.227.643.587.301.351.375.742.46.738.081.013.139-.487-.232-.928-.366-.445-.869-.479-.871-.397Zm-1.037 2.197c.078.018.196-.409-.025-.876-.217-.468-.621-.652-.656-.58-.049.07.211.32.387.706.184.382.209.742.294.75Zm3.02-5.021c.02.044.154.024.355.005.154-.014.346-.028.556-.015.484.022.859.183.904.109.049-.061-.318-.376-.888-.405-.569-.034-.969.239-.927.306Zm-.317-1.925c0 .035.337.086.877-.007a4.038 4.038 0 0 0 1.419-.552c.08-.052.176-.104.264-.207.094-.088.148-.315.038-.454a.474.474 0 0 0-.375-.194 1.128 1.128 0 0 0-.328.046 3.111 3.111 0 0 0-1.352.72c-.405.377-.543.696-.513.713.038.028.235-.24.647-.551.206-.155.469-.315.781-.442a3.25 3.25 0 0 1 .503-.157c.186-.049.343-.05.391.032l-.019.099c-.04.049-.115.098-.194.15a4.922 4.922 0 0 1-.463.266 5.014 5.014 0 0 1-.846.326c-.501.141-.831.165-.83.212Z"/>
    <path fill="#20353D" d="m200.75 201.842.005-1.97.022-.001-.027 1.971Z"/>
    <path fill="#BA2C42" d="m200.75 201.854-8.38-.042.009-1.798 8.376-.143-.005 1.97v.013Zm-7.587-.376a2.6 2.6 0 0 1 .174.005c.395.017.719.128.848.128.029 0 .049-.006.056-.019.049-.061-.318-.376-.888-.405a1.573 1.573 0 0 0-.097-.004c-.516 0-.87.246-.83.309.009.02.042.027.093.027.062 0 .152-.01.263-.021.109-.01.24-.02.381-.02Z"/>
    <path fill="#0F191D" d="M194.185 201.611c-.13 0-.453-.111-.848-.128a3.818 3.818 0 0 0-.556.016c-.11.01-.2.021-.263.021-.051 0-.083-.007-.092-.027-.04-.063.313-.309.83-.309l.097.003c.57.029.937.344.888.405-.008.014-.027.019-.056.019Z"/>
    <path fill="#F8A58D" d="m231.83 119.429-1.584 5.923-4.633-5.441 2.476-5.439 3.741 2.705v2.252Z"/>
    <path fill="#F03D5F" d="M232.737 69.882s2.356 2.565 2.619 5.316c.262 2.752 4.328 27.385 4.328 27.385s-6.28 15.666-7.854 16.846l-4.768-1.956 3.929-16.832-2.849-11.422 4.595-19.337Z"/>
    <path fill="#17282F" d="M238.659 103.888c.039.075-1.102.469-2.485.097-1.388-.358-2.186-1.263-2.115-1.309.064-.079.907.658 2.2.988 1.287.35 2.384.125 2.4.224Z"/>
    <path fill="#fff" d="M238.034 90.702c.013.026-.458.298-1.215.743a77.457 77.457 0 0 0-2.922 1.798 80.076 80.076 0 0 0-2.832 1.935c-.715.51-1.155.83-1.173.807-.009-.01.091-.104.278-.265.187-.16.463-.385.811-.655a41.728 41.728 0 0 1 2.809-1.99 41.303 41.303 0 0 1 2.96-1.754c.388-.207.706-.368.929-.473.223-.106.349-.158.355-.146Zm-1.968-8.469c.01.03-.432.205-1.127.53-.694.324-1.632.814-2.608 1.456a21.064 21.064 0 0 0-2.366 1.823c-.571.51-.907.848-.93.826-.01-.009.063-.104.204-.267.139-.165.354-.391.63-.662a16.155 16.155 0 0 1 2.353-1.887 16.121 16.121 0 0 1 2.66-1.418c.357-.148.651-.255.857-.32.206-.064.322-.094.327-.081Zm-1.017-7.263c.013.065-1.165.157-2.424.816-1.267.644-2.024 1.55-2.07 1.503-.017-.014.145-.26.48-.596.334-.335.853-.75 1.499-1.083a6.138 6.138 0 0 1 1.751-.593c.468-.078.763-.07.764-.046Zm3.68 27.251c-.018.03-.405-.187-1.066-.446-.66-.26-1.608-.535-2.685-.638a10.158 10.158 0 0 0-2.757.129c-.698.132-1.119.273-1.13.24-.005-.012.096-.059.284-.132.187-.075.466-.161.816-.246.7-.17 1.705-.29 2.806-.189a8.824 8.824 0 0 1 2.721.706c.328.148.587.285.756.393.171.106.261.171.255.183Zm-4.089 9.265c-.031.013-.197-.365-.541-.929a9.538 9.538 0 0 0-1.626-1.986 9.48 9.48 0 0 0-2.109-1.465c-.589-.299-.98-.434-.968-.467.004-.013.105.009.286.061.18.05.436.143.743.279a8.188 8.188 0 0 1 2.184 1.446 8.184 8.184 0 0 1 1.612 2.062c.159.295.272.543.336.719.065.176.095.275.083.28Z"/>
    <path fill="#F8A58D" d="M193.41 117.584c.059.234 2.386 6.266 2.386 6.266l3.827-1.64.293-5.034-1.55-2.704-4.956 3.112Z"/>
    <path fill="#F03D5F" d="M206.669 61.68c-.576 0-9.649 4.173-11.233 5.18-1.584 1.008-10.514 33.526-10.514 35.252 0 1.726 8.481 16.429 8.481 16.429s4.548-2.061 5.124-2.493c.576-.432-3.998-15.021-3.998-15.021l3.787-13.879 8.353-25.467Z"/>
    <path fill="#17282F" d="M193.09 102.223c.029.023-.191.358-.688.764-.491.406-1.288.849-2.252 1.055-.965.203-1.872.123-2.487-.049-.62-.169-.956-.387-.94-.419.021-.051.386.086.99.19a6.405 6.405 0 0 0 2.369-.047 6.394 6.394 0 0 0 2.182-.919c.509-.34.787-.613.826-.575Z"/>
    <path fill="#fff" d="M196.804 109.82c.008.034-.41.131-1.047.385a9.024 9.024 0 0 0-2.294 1.349 9.03 9.03 0 0 0-1.788 1.972c-.378.571-.558.961-.589.946-.013-.005.021-.107.095-.287.071-.181.197-.434.375-.734a7.896 7.896 0 0 1 4.152-3.378c.33-.112.603-.185.795-.217.192-.036.298-.049.301-.036Zm-2.848-5.221c.015.016-.271.305-.81.68a8.73 8.73 0 0 1-4.824 1.514c-.656.001-1.056-.073-1.053-.095.002-.033.404-.01 1.048-.046a10.423 10.423 0 0 0 2.47-.449 10.383 10.383 0 0 0 2.282-1.043c.55-.337.866-.587.887-.561Zm.68-6.819c-.012.028-.434-.138-1.127-.371a23.475 23.475 0 0 0-2.751-.747 23.553 23.553 0 0 0-2.824-.393c-.729-.056-1.182-.069-1.183-.1 0-.024.454-.06 1.19-.04a17.15 17.15 0 0 1 5.617 1.148c.685.27 1.089.481 1.078.503Zm1.824-6.71c-.03.02-.301-.371-.832-.916a9.259 9.259 0 0 0-2.378-1.745 9.25 9.25 0 0 0-2.814-.893c-.752-.108-1.228-.096-1.229-.132-.001-.014.117-.026.333-.038.216-.015.529-.007.914.03a8.303 8.303 0 0 1 5.277 2.683c.256.288.448.536.563.72.118.18.176.282.166.29Zm-.509-11.37c-.04.05-.793-.775-2.061-1.158-.851-.272-1.622-.245-2.036-.219-.201.014-.318.026-.319.005-.031-.04 1.089-.396 2.414.025 1.329.403 2.05 1.331 2.002 1.347Z"/>
    <path fill="#A7A9A8" d="m197.734 89.407-.019-.057.002-.006.017.063Z"/>
    <path fill="#BA2C42" d="m197.715 89.35-.168-.502-.002-.12.171.617-.001.006Zm-.162-.221-.048-.406.042.125.006.28Zm-.008-.401c-.587-2.118-1.15-4.247-1.454-6.422a23.297 23.297 0 0 1-.224-2.651c.04.03.066.047.078.047.003 0 .005 0 .006-.002.011-.004-.018-.055-.086-.137-.029-1.517.112-3.032.5-4.497.966 4.475 1.087 9.082 1.18 13.662Z"/>
    <path fill="#A7A9A8" d="M195.946 79.702c-.012 0-.038-.017-.079-.047l-.002-.093c.068.083.098.134.086.138 0 .001-.002.002-.005.002Z"/>
    <path fill="#fff" d="M195.783 72.76c-.059.013-.167-.585-.597-1.168-.421-.59-.955-.879-.926-.93.011-.05.631.177 1.087.813.463.631.487 1.29.436 1.286Z"/>
    <path fill="#17282F" d="m195.796 115.862-2.716 39.437s-2.102 15.873-2.102 20.874c0 5.002.712 24.165.712 24.165h9.751l9.947-68.187s1.001-.857 1.144 0c.142.857 5.812 25.266 6.358 29.177.434 3.117 4.083 38.187 4.083 38.187l8.431-.361s.791-31.592.219-41.737l-1.499-34.917-2.049-9.896-27.557-1.029-4.722 4.287Z"/>
    <path fill="#33535F" d="M222.033 129.683c.013.09-3.646.71-8.171 1.384-4.527.674-8.207 1.147-8.221 1.057-.014-.091 3.644-.711 8.172-1.385 4.526-.674 8.206-1.147 8.22-1.056Zm-19.786 29.289c.044.086-1.62 1.004-3.562 2.306-1.946 1.296-3.431 2.482-3.494 2.407-.057-.064 1.344-1.375 3.31-2.683 1.96-1.314 3.709-2.107 3.746-2.03Zm27.4-.296c-.016.105-1.678-.277-3.712.025-2.037.28-3.524 1.112-3.57 1.017-.054-.059 1.409-1.053 3.523-1.345 2.111-.313 3.795.232 3.759.303Z"/>
    <path fill="#17282F" d="M217.061 62.334c-.002.023-.262.02-.73-.008a19.993 19.993 0 0 1-1.976-.222c-.828-.142-1.822-.368-2.84-.858-1.006-.485-2.06-1.26-2.728-2.403-.676-1.134-.934-2.369-1.117-3.458-.17-1.099-.274-2.087-.414-2.905-.259-1.646-.713-2.582-.66-2.606.017-.009.149.217.336.65.181.435.386 1.089.555 1.912.172.824.3 1.815.485 2.898.196 1.075.46 2.267 1.099 3.337.629 1.078 1.615 1.816 2.579 2.3.972.488 1.936.734 2.747.903 1.634.312 2.672.401 2.664.46Zm-4.441-28.222.24-.06c.727-1.309 2.201-2.126 3.696-2.202 1.496-.078 2.984.536 4.106 1.526.78.689 1.395 1.547 2.177 2.232.783.684 1.824 1.199 2.843.985.124.379-.585.603-.541 1 .021.189.216.312.402.35.274.055.557-.015.836-.006.279.01.595.137.665.407.033.133.001.272-.034.405-.311 1.182-.801 2.35-1.652 3.231-.85.88-2.109 1.43-3.313 1.205-.961-.18-1.765-.81-2.529-1.421l-4.348-3.479c-.669-.535-1.346-1.079-1.853-1.77-.506-.69-.831-1.557-.695-2.403Z"/>
    <path fill="#17282F" d="M213.528 34.354c-.595-.473-1.278-.857-2.025-1.001-.746-.145-1.562-.03-2.179.414-.574.414-.925 1.06-1.329 1.64-.404.58-.94 1.145-1.64 1.247-.123.018-.259.026-.349.111-.16.151-.045.445.155.536.201.09.434.043.647-.006a2.297 2.297 0 0 1-1.362.767c.115.516.719.864 1.223.704-.202.82-.405 1.652-.401 2.496.005.846.241 1.72.815 2.34.634.682 1.664 1.065 1.94 1.954"/>
    <path fill="#F8A58D" d="m219.629 64.156-11.317-.145 1.263-9.627s-.773-.165-.825-4.354c-.052-4.188-.245-11.304-.245-11.304a14.581 14.581 0 0 1 14.641 1.839l.622.477-4.139 23.114Z"/>
    <path fill="#F8A58D" d="M222.454 46.193c.071-.03 2.88-.85 2.789 2.013-.092 2.863-2.95 2.18-2.953 2.099-.002-.083.164-4.112.164-4.112Zm-13.462-.597c-.071-.031-2.626-.719-2.535 2.145.092 2.863 2.95 2.181 2.953 2.098.003-.082-.418-4.243-.418-4.243Z"/>
    <path fill="#17282F" d="M223.383 45.874c-.428 2.4-.344 3.66-.74 5.263-.627 2.536-1.887 4.48-4.174 5.747-2.287 1.267-5.38 1.244-7.345-.48-1.363-1.197-2.329-2.549-2.531-4.35-.202-1.802-.734-5.186-.747-6.999-.023-3.269.087-6.2.087-6.2l9.349-1.69 5.32 3.16.781 5.55Zm-9.644 12.456c-.014.066.722.248 1.639.145.918-.099 1.595-.437 1.567-.498-.027-.072-.719.144-1.596.237-.877.1-1.599.04-1.61.116Z"/>
    <path fill="#17282F" d="M222.932 49.953c.274-2.459.451-5.27.836-7.863.144-.973.491-2.376.405-3.355-.087-.984-.356-.684-.79-1.571-.544-1.113-2.62-1.855-3.836-2.099-1.215-.244-1.366-1.293-2.298-.477-.68-1.017-2.017-1.546-3.209-1.27-1.193.275-2.161 1.337-2.325 2.549-.665-.633-1.763-.75-2.547-.275-.785.477-1.186 1.505-.931 2.385a2.099 2.099 0 0 0-1.547 1.2 2.097 2.097 0 0 0 .158 1.95c.433.666 1.215 1.034 1.692 1.67.55.73.609 1.796.143 2.584"/>
    <path fill="#33535F" d="M210.888 49.44c-.064-.014-.194 1.174.322 2.517.503 1.35 1.387 2.153 1.424 2.101.064-.052-.7-.902-1.179-2.193-.495-1.285-.486-2.427-.567-2.425Zm-1.258-2.086c-.057-.03-.421.99-.182 2.266.226 1.279.927 2.106.971 2.058.069-.042-.502-.894-.714-2.104-.229-1.207.005-2.206-.075-2.22Z"/>
    <path fill="#F03D5F" d="M224.241 44.043s1.541 0 1.968.727c.428.727-.128 6.027-.685 6.497-.556.47-2.909-.257-2.909-.257s.984-5.385.599-6.753l1.027-.214Zm-17.786-.382s-1.084.362-1.513 1.088c-.428.727.077 5.665.633 6.136.556.47 2.91-.257 2.91-.257s-.937-5.599-.552-6.967h-1.478Z"/>
    <path fill="#F03D5F" d="M206.455 43.662s.535-9.252 9.306-9.38c8.771-.128 8.94 9.832 8.94 9.832l-1.318.109s.292-9.063-7.237-9.386c-7.577-.325-8.8 8.496-8.213 8.825h-1.478Z"/>
    <path fill="#17282F" d="M221.403 37.453c-.712-1.117-1.683-2.117-2.916-2.607-1.232-.49-2.747-.388-3.756.473"/>
    <path fill="#33535F" d="M221.168 43.793c-.045-.012.001-.335.092-.846.088-.51.222-1.212.217-1.984-.007-.77-.201-1.452-.429-1.898-.225-.452-.451-.684-.414-.722.023-.03.319.148.618.606.301.45.55 1.185.556 2.01.007.823-.172 1.54-.32 2.042-.151.503-.276.803-.32.792Zm-1.933.947c-.083-.046.149-.613.373-1.324.228-.71.366-1.306.461-1.295.087.007.095.65-.144 1.395-.236.747-.613 1.268-.69 1.224Zm-8.978-.736c-.029.022-.352-.325-.643-1.024a5.094 5.094 0 0 1-.28-2.905 5.098 5.098 0 0 1 1.377-2.576c.538-.533.97-.73.988-.698.031.045-.346.308-.816.857a5.555 5.555 0 0 0-1.223 2.481 5.558 5.558 0 0 0 .174 2.761c.222.687.469 1.075.423 1.104Zm10.219-10.654c-.025.041-.366-.136-.922-.389-.553-.243-1.347-.563-2.254-.552-.912-.005-1.662.415-2.044.86-.397.442-.47.832-.524.817-.035.003-.049-.431.341-.965.193-.26.484-.53.871-.728.385-.2.858-.31 1.351-.316.997-.01 1.827.372 2.365.675.544.313.839.562.816.597Zm-12.783 2.654c-.037-.013.031-.333.333-.758.294-.42.861-.926 1.639-1.153a3.119 3.119 0 0 1 2.003.097c.483.196.711.43.687.461-.028.044-.296-.113-.762-.239a3.432 3.432 0 0 0-1.835 0 3.429 3.429 0 0 0-1.55.982c-.325.356-.468.632-.515.61Zm3.083 10.525c-.011-.04.461-.166 1.216-.504a9.692 9.692 0 0 0 2.766-1.869l.543-.526-.296.697a6.27 6.27 0 0 0-.405 1.361c-.046.234-.084.532.004.572.064.073.32-.055.534-.206a8.598 8.598 0 0 0 1.924-1.7l.498-.594-.227.738-.633 2.05-.215-.13c1.313-1.24 1.768-2.347 1.832-2.305.021.01-.072.288-.322.746a7.767 7.767 0 0 1-1.329 1.746l-.351.35.135-.48.583-2.065.27.143a8.454 8.454 0 0 1-1.985 1.78c-.116.072-.223.15-.371.214-.132.058-.351.116-.541-.022-.182-.145-.19-.356-.184-.494.01-.153.035-.27.057-.401.095-.51.252-.99.446-1.424l.245.171a8.901 8.901 0 0 1-2.907 1.82c-.79.296-1.282.359-1.287.332Z"/>
    <path fill="#17282F" d="M216.246 35.486c-.181-.346-.529-.587-.904-.697-.376-.108-.778-.096-1.163-.028a4.166 4.166 0 0 0-2.439 1.41c-.141.167-.266.426-.117.586.079.084.206.1.321.11 1.408.116 2.83.066 4.226-.15m-8.865 14.267c-.083.024-.575-1.564-.812-3.593-.243-2.029-.136-3.687-.05-3.684.098 0 .14 1.642.38 3.645.234 2.003.576 3.609.482 3.632Zm16.196.216c-.042-.029.183-.377.438-.982.259-.604.517-1.478.642-2.474.126-.996.129-1.915.14-2.581.008-.666.024-1.081.071-1.083.045-.002.112.407.164 1.076a13.24 13.24 0 0 1-.045 2.63c-.129 1.029-.435 1.934-.76 2.533-.32.602-.619.906-.65.882Zm-.849 10.253c-.047-.008.002-.577.093-1.495.092-.917.219-2.182.333-3.584.111-1.4.188-2.67.245-3.59.056-.92.099-1.49.146-1.49.044 0 .085.571.088 1.497.004.924-.036 2.202-.149 3.61a44.578 44.578 0 0 1-.43 3.588c-.151.913-.282 1.47-.326 1.464Z"/>
    <path fill="#17282F" d="M223.223 44.401c-.039-.078.617-.414 1.496-.365.881.042 1.497.444 1.451.517-.041.088-.666-.15-1.468-.186-.801-.047-1.447.126-1.479.034Zm-18.44.579c-.036-.02.019-.232.217-.524a2.5 2.5 0 0 1 1.062-.866 2.532 2.532 0 0 1 1.358-.187c.349.053.542.158.532.197-.016.104-.857-.103-1.758.294-.904.387-1.325 1.144-1.411 1.085Z"/>
    <path fill="#F03D5F" d="M231.441 78.37c-.432.432-3.6 16.69-3.889 19.857-.287 3.165 3.687 16.334 1.311 19.499l-1.323.356h-31.937l2.713-22.157-1.295-18.561.233-11.478 9.416-4.206h13.826s12.241 7.194 12.241 8.202c0 1.007-1.296 8.489-1.296 8.489Z"/>
    <path fill="#17282F" d="M195.796 116.5c-.01 0-.014-.143-.01-.419.006-.275.035-.679.076-1.199.086-1.04.244-2.543.454-4.401.425-3.719 1.072-8.861 1.837-14.578l-.001.039-.084-.851c-.566-5.94-.924-11.325-1.227-15.219l-.352-4.612-.09-1.254c-.018-.287-.021-.44-.01-.44.012-.001.038.148.076.433l.152 1.25c.124 1.085.281 2.658.458 4.604.363 3.89.759 9.273 1.324 15.205l.083.85.002.02-.003.019-1.936 14.561-.557 4.386-.137 1.191c-.025.272-.044.415-.055.415Zm32.49 2.041c-.008-.008.087-.109.254-.317.165-.207.404-.52.651-.96.236-.441.495-1.016.56-1.725.053-.703-.113-1.53-.231-2.437-.543-3.634-1.408-8.686-2.391-14.385l-.005-.03.006-.031c.18-.908.356-1.87.524-2.85 1.057-6.372 1.85-12.17 2.458-16.36l.716-4.962.207-1.348c.051-.308.083-.469.095-.468.011.002.002.165-.028.476l-.146 1.356-.611 4.979c-.548 4.199-1.306 10-2.364 16.383-.168.981-.345 1.947-.528 2.86l.001-.061c.973 5.703 1.798 10.761 2.285 14.411.103.913.256 1.735.185 2.484-.087.744-.372 1.327-.629 1.768-.269.44-.526.744-.708.941-.184.196-.295.283-.301.276Z"/>
    <path fill="#F03D5F" d="M223.035 60.952c-.279-.443-.843-.749-1.341-.58.247-.601-.482-1.222-1.131-1.172-.649.05-1.186.495-1.728.855-2.387 1.588-5.685 1.684-8.159.236-1.09-.637-2.136-1.577-3.397-1.527-1.4.056-2.417 1.3-3.238 2.433-.438.604-.897 1.359-.606 2.045l.532-.084c.992 2.766 2.073 5.666 4.324 7.557 2.759 2.318 6.998 2.567 10.126.776 3.128-1.79 5.035-5.422 4.964-9.022-.01-.525-.065-1.072-.346-1.517Z"/>
    <path fill="#17282F" d="M223.448 63.497c.012.002-.005.109-.049.31-.043.2-.114.493-.219.868a18.317 18.317 0 0 1-1.158 3.092c-.614 1.247-1.529 2.703-2.994 3.877a8.715 8.715 0 0 1-2.543 1.437c-.962.334-2.042.489-3.121.356-1.08-.129-2.088-.477-3.001-.907a13.58 13.58 0 0 1-2.497-1.498c-.737-.57-1.359-1.222-1.817-1.918a10.833 10.833 0 0 1-1.028-2.052c-.491-1.309-.785-2.392-1.045-3.122-.249-.733-.415-1.128-.392-1.14.011-.004.063.09.155.273.091.184.215.46.358.822.298.72.63 1.8 1.143 3.08.262.637.587 1.32 1.037 1.985.451.663 1.055 1.283 1.776 1.83a13.556 13.556 0 0 0 2.448 1.446c.894.415 1.87.749 2.901.87 1.03.127 2.051-.017 2.976-.332a8.533 8.533 0 0 0 2.46-1.37c1.427-1.122 2.342-2.527 2.975-3.743a21.42 21.42 0 0 0 1.243-3.024c.244-.735.368-1.147.392-1.14Z"/>
    <path fill="#BA7562" d="M214.236 61.309a7.9 7.9 0 0 1-1.477-.197 10.72 10.72 0 0 0 1.477.197Z"/>
    <path fill="#BA2C42" d="M214.673 68.712c-.908 0-1.83-.352-2.56-.91-1.052-.804-1.76-1.977-2.309-3.183-.549-1.204-.967-2.468-1.579-3.642-.362-.695-.873-1.404-1.609-1.623.207-.333.634-.509 1.045-.509.059 0 .118.004.175.011a2.938 2.938 0 0 1 1.455.629 7.91 7.91 0 0 0 3.468 1.627 7.9 7.9 0 0 0 1.477.197c.18.01.364.016.551.016 1.488 0 3.122-.354 4.194-1.283.308-.267.607-.55.938-.55.1 0 .205.026.314.088.475.271.409.97.258 1.496a20.215 20.215 0 0 1-2.287 5.119c-.592.945-1.318 1.885-2.354 2.298-.377.15-.776.219-1.177.219Z"/>
    <path fill="#17282F" d="M220.928 60.203c.023.014-.14.309-.376.868-.238.56-.51 1.393-.829 2.438-.331 1.03-.712 2.325-1.623 3.502-.446.584-1.031 1.135-1.769 1.495a3.47 3.47 0 0 1-2.483.22c-.84-.238-1.558-.726-2.126-1.295-.574-.572-.991-1.234-1.335-1.876-.675-1.297-1.093-2.53-1.579-3.498-.47-.976-.981-1.693-1.39-2.137-.407-.448-.688-.64-.669-.665.006-.009.08.032.216.122.133.093.324.238.545.453.448.426 1.003 1.143 1.508 2.121.521.97.964 2.202 1.639 3.459.342.623.75 1.254 1.295 1.79.541.536 1.216.989 1.985 1.206.766.223 1.58.136 2.255-.193.678-.326 1.234-.837 1.667-1.39.883-1.111 1.281-2.364 1.641-3.387.346-1.033.657-1.87.935-2.418a6.23 6.23 0 0 1 .344-.618c.088-.136.139-.203.149-.197Z"/>
    <path fill="#17282F" d="M221.187 65.02c.018.006-.023.229-.159.616-.134.387-.39.93-.813 1.533-.818 1.2-2.49 2.64-4.759 3.027-2.273.369-4.321-.454-5.485-1.324a6.473 6.473 0 0 1-1.266-1.189c-.253-.322-.364-.52-.349-.53.052-.047.555.728 1.749 1.526 1.163.796 3.136 1.54 5.296 1.189 2.156-.367 3.783-1.709 4.625-2.838.871-1.141 1.096-2.037 1.161-2.01Zm5.354 40.913c.001.011-.088.026-.259.043a8.57 8.57 0 0 1-.751.041 14.015 14.015 0 0 1-2.755-.256c-1.151-.214-2.497-.602-3.926-1.195-1.43-.591-2.937-1.381-4.467-2.286-3.051-1.827-5.727-3.598-7.688-4.85l-2.302-1.511c-.539-.363-.832-.573-.819-.593.012-.02.328.154.889.484l2.357 1.422c1.991 1.2 4.693 2.942 7.732 4.762 1.522.901 3.011 1.691 4.416 2.291a21.33 21.33 0 0 0 3.854 1.246c1.13.246 2.065.322 2.711.357.647.028 1.007.017 1.008.045Z"/>
    <path fill="#BA2C42" d="M221.568 105.191a6.685 6.685 0 0 1-.246-.049 22.44 22.44 0 0 1-2.354-.858c-1.405-.599-2.894-1.39-4.416-2.29-3.038-1.82-5.741-3.563-7.731-4.762l-1.891-1.141.007-.002a39.675 39.675 0 0 1 16.631 9.102Zm-16.028-8.52-.866-.521.053-.012.813.534Z"/>
    <path fill="#0F191D" d="M221.322 105.143c-2.609-.549-4.957-1.95-7.245-3.328-2.846-1.715-5.692-3.43-8.538-5.143l-.812-.534.202-.047 1.891 1.141c1.991 1.2 4.693 2.942 7.732 4.762 1.522.901 3.011 1.691 4.416 2.291a22.9 22.9 0 0 0 2.354.858Z"/>
    <path fill="#BA2C42" d="M213.949 75.264c-1.398 0-2.765-.552-3.958-1.294-3.406-2.119-5.682-5.934-5.978-9.925.25.728.54 1.77 1.008 3.017.252.65.571 1.356 1.027 2.052.459.696 1.081 1.348 1.818 1.918.739.57 1.583 1.067 2.496 1.498.914.43 1.922.778 3.002.907.26.032.521.047.78.047.814 0 1.611-.15 2.341-.403a8.717 8.717 0 0 0 2.543-1.438 9.883 9.883 0 0 0 1.511-1.513c-.596 1.163-1.307 2.274-2.239 3.187-1.079 1.054-2.484 1.83-3.991 1.934-.12.008-.24.013-.36.013Zm.205-2.111a7.023 7.023 0 0 1-1.148-.103 8.647 8.647 0 0 0 1.764-.02 8.825 8.825 0 0 0 3.212-1.025 8.378 8.378 0 0 1-1.604.77 6.911 6.911 0 0 1-2.224.378Z"/>
    <path fill="#0F191D" d="M214.144 73.484c-.259 0-.52-.015-.781-.047-1.079-.129-2.087-.477-3.001-.907a13.566 13.566 0 0 1-2.496-1.498c-.737-.57-1.36-1.222-1.818-1.918a10.796 10.796 0 0 1-1.027-2.052c-.468-1.247-.758-2.29-1.008-3.016a9.969 9.969 0 0 1-.019-.299c.785 2.74 1.939 5.466 4.111 7.285a8.947 8.947 0 0 0 4.901 2.018 7.116 7.116 0 0 0 1.148.103c.771 0 1.525-.14 2.224-.379a8.39 8.39 0 0 0 1.604-.768 8.854 8.854 0 0 0 2.829-2.427 28.45 28.45 0 0 1-.272.55 9.884 9.884 0 0 1-1.511 1.515 8.717 8.717 0 0 1-2.543 1.438 7.184 7.184 0 0 1-2.341.402Z"/>
    <path fill="#BA2C42" d="M203.989 63.628a6.287 6.287 0 0 0-.083-.193l-.069-.256.082-.013.061.055c0 .135.004.271.009.407Zm-.152-.449-.03-.113.112.1-.082.013Z"/>
    <path fill="#0F191D" d="M203.994 63.747a36.21 36.21 0 0 1-.088-.311c.027.06.054.124.083.193l.005.118Z"/>
    <path fill="#BA2C42" d="M214.804 70.856c-1.925 0-3.81-.889-5.209-2.224l-.01-.06c.119.099.248.2.387.3.967.725 2.547 1.415 4.358 1.415a7.05 7.05 0 0 0 1.126-.09c2.107-.36 3.701-1.628 4.573-2.768-.706 1.938-2.709 3.258-4.771 3.41-.151.01-.303.017-.454.017Z"/>
    <path fill="#0F191D" d="M214.329 70.286c-1.811 0-3.39-.69-4.358-1.414a7.069 7.069 0 0 1-.387-.302l-.025-.15a7.729 7.729 0 0 0 5.454 1.577 7.719 7.719 0 0 0 5.034-2.624l-.019.055c-.872 1.14-2.465 2.409-4.573 2.768a7.04 7.04 0 0 1-1.126.09Z"/>
    <path fill="#fff" d="M204.448 66.829c.003.03-.507.105-1.33.229-.823.123-1.958.3-3.206.53-1.248.228-2.372.465-3.186.641-.813.176-1.317.286-1.324.258-.003-.013.118-.057.34-.127.223-.07.548-.162.952-.268a45.34 45.34 0 0 1 3.182-.7 44.576 44.576 0 0 1 3.224-.474c.415-.044.751-.074.984-.087.233-.014.362-.015.364-.002Zm3.732-5.233c.026.06-1.144.273-2.156 1.24-1.031.948-1.317 2.1-1.376 2.07-.021-.004.015-.294.194-.727a4.426 4.426 0 0 1 1.045-1.488 4.435 4.435 0 0 1 1.554-.948c.445-.15.737-.168.739-.147Zm1.176 6.517c.028.053-.504.344-.999.88-.502.53-.754 1.08-.809 1.056-.049-.012.132-.628.663-1.192.527-.568 1.129-.791 1.145-.744Zm1.678-1.549c.014.057-.451.198-.944.519-.496.315-.818.68-.864.643-.044-.027.226-.473.756-.81.528-.342 1.046-.403 1.052-.352Zm2.429 6.473c-.031.042-.517-.485-.577-1.324-.07-.837.329-1.432.365-1.395.056.023-.233.61-.166 1.38.052.77.429 1.307.378 1.339Zm2.605-3.241c-.029.045-.264-.09-.344-.393-.082-.3.053-.536.101-.511.054.019.025.226.092.46.06.236.188.4.151.444Zm3.121.91c-.049-.027.188-.436.058-.962-.113-.53-.504-.795-.472-.84.012-.021.132.01.284.139.15.126.313.36.382.657.067.296.022.578-.058.757-.08.18-.176.263-.194.249Zm1.389-4.14c-.049.01-.122-.461-.61-.692-.477-.254-.898-.03-.92-.075-.014-.017.067-.117.257-.18.187-.065.48-.06.753.077.272.137.451.369.511.557.063.19.032.314.009.313Zm2.046-1.808c-.035 0-.041-.202-.142-.5a2.338 2.338 0 0 0-.681-.991 2.335 2.335 0 0 0-1.083-.525c-.309-.055-.51-.03-.515-.065-.005-.02.194-.096.534-.074.335.019.799.175 1.195.513.394.34.616.775.686 1.105.072.33.026.54.006.537Zm7.524 10.427c0 .007-.117.01-.338.01l-.967-.013-3.557-.066a546.606 546.606 0 0 0-11.735-.083c-4.584.02-8.733.104-11.735.183l-3.556.096-.967.021c-.222.002-.338 0-.338-.006-.001-.007.115-.019.336-.034l.966-.058 3.554-.16a358.633 358.633 0 0 1 23.478-.1l3.556.13.966.05c.221.013.337.023.337.03Zm-.642-7.199c-.007.028-.382-.037-.986-.142a65.713 65.713 0 0 0-2.364-.37 64.362 64.362 0 0 0-2.379-.27c-.611-.058-.989-.095-.988-.124.001-.026.382-.039.997-.015.616.023 1.464.088 2.396.213.931.125 1.767.288 2.366.428.599.14.963.254.958.28Zm-.515 16.42c0 .006-.108.019-.315.036l-.905.065c-.787.053-1.926.116-3.334.181a265.43 265.43 0 0 1-22.023.079c-1.408-.055-2.548-.11-3.334-.158l-.906-.058a2.076 2.076 0 0 1-.315-.034c0-.007.109-.009.317-.006l.908.02c.839.024 1.965.057 3.335.095 2.816.075 6.708.145 11.008.13 4.298-.016 8.189-.113 11.005-.208l3.334-.118.908-.028c.207-.004.317-.003.317.004Zm-1.034 9.951c0 .007-.102.016-.296.028l-.851.04c-.738.033-1.807.067-3.128.099-2.643.063-6.295.1-10.328.045a284.799 284.799 0 0 1-10.324-.326 159.44 159.44 0 0 1-3.125-.183l-.849-.064c-.193-.017-.295-.029-.294-.036 0-.007.102-.008.297-.004l.85.027 3.127.12c2.641.099 6.289.212 10.321.268 4.03.054 7.68.039 10.322.012l3.129-.034.851-.005c.195.002.298.006.298.013Zm-15.632 7.16c.001.014-.206.038-.581.071-.376.034-.92.07-1.592.104a73.474 73.474 0 0 1-10.519-.251 45.138 45.138 0 0 1-1.585-.179c-.373-.051-.579-.086-.577-.099.001-.014.21-.005.585.022l1.589.116c1.342.096 3.197.205 5.249.255 2.05.048 3.908.028 5.253-.005l1.593-.041c.375-.009.585-.007.585.007Zm15.764.819c.001.013-.161.052-.458.109-.297.058-.728.13-1.262.208a51.339 51.339 0 0 1-8.422.517 29.956 29.956 0 0 1-1.278-.053c-.301-.021-.468-.039-.468-.053.001-.014.169-.022.47-.025l1.277-.01a82.828 82.828 0 0 0 4.209-.144 82.07 82.07 0 0 0 4.193-.371l1.27-.146c.299-.033.466-.045.469-.032Zm.759 9.662c.001.007-.109.024-.321.048l-.924.098a89.77 89.77 0 0 1-3.407.271c-2.881.186-6.872.31-11.276.173a120.86 120.86 0 0 1-11.244-.885 90.918 90.918 0 0 1-3.384-.485l-.916-.156c-.21-.038-.319-.061-.317-.068 0-.007.112.003.323.028l.921.119c.799.111 1.957.258 3.389.422 2.865.332 6.835.685 11.234.826 4.397.137 8.382.035 11.262-.115 1.44-.074 2.605-.147 3.409-.208l.927-.06c.213-.012.324-.014.324-.008Z"/>
  </g>
  <defs>
    <clipPath id="a">
      <path fill="#fff" d="M0 0h472v236H0z" transform="translate(-22)"/>
    </clipPath>
  </defs>
</svg>
