<svg xmlns="http://www.w3.org/2000/svg" width="428" height="332" fill="none" viewBox="0 0 428 332">
  <path fill="#E0E0E0" d="M283.063 147.315v-2.277c0-1.474 0-3.599-.053-6.268l.1.099-32.304.06c.073-.073-.166.166.166-.159v8.532l-.159-.166 23.021.073 6.792.047h2.318a.824.824 0 0 1 .172 0h-2.41l-6.826.152-23.134.073h-.159v-8.705l.166-.166 32.304.06h.119v.106c0 2.696-.04 4.841-.053 6.328v2.079a.542.542 0 0 1-.06.132ZM345.2 57.927a.78.78 0 0 1 0-.152V55.65c0-1.474-.033-3.593-.053-6.268l.1.1-32.304.066c.073-.073-.166.166.16-.166v8.545l-.166-.16 23.021.074 6.799.047h2.49a.632.632 0 0 1-.153 0h-2.264l-6.76.046-23.133.073h-.16v-8.612c.326-.326.087-.093.166-.166l32.304.066h.1v.1c0 2.702-.047 4.84-.06 6.328v2.085a.77.77 0 0 1-.087.12Z"/>
  <path fill="#F5F5F5" d="m164.021 281.948-7.304 3.141.492-43.326c.225-5.186-2.158-7.397-3.453-8.871-11.76-13.373-29.296-3.672-29.449 9.88l-.438 38.718-7.111-.08.704-40.504c.053-4.562 3.599-12.476 7.177-15.312 19.788-15.677 40.033.518 39.84 17.649l-.458 38.705Z"/>
  <path fill="#E0E0E0" d="M164.022 281.948v-3.021c0-1.992.04-4.881.066-8.632.027-3.752.073-8.3.12-13.606.026-2.656.053-5.482.079-8.479 0-3.001.273-6.195-.345-9.475a22.997 22.997 0 0 0-4.07-9.502c-.273-.365-.531-.737-.817-1.096-.286-.358-.611-.664-.916-1.029a23.458 23.458 0 0 0-1.992-1.959c-.339-.325-.737-.584-1.109-.883-.372-.299-.737-.604-1.156-.843a22.396 22.396 0 0 0-2.509-1.448 24.106 24.106 0 0 0-5.591-1.992l-1.501-.245-.75-.126-.764-.047-1.54-.099c-.518 0-1.036.033-1.554.053a23.277 23.277 0 0 0-12.005 3.984 23.537 23.537 0 0 0-8.453 10.252 24.83 24.83 0 0 0-1.74 6.713c-.199 2.324-.146 4.721-.192 7.118-.106 9.608-.219 19.555-.332 29.747 0 1.359-.016 2.714-.047 4.064l-.166-.173 7.112.08-.166.166c.084-7.703.17-15.228.259-22.576.04-3.657.082-7.262.126-10.817 0-1.77.02-3.53.06-5.278.038-1.746.328-3.477.863-5.14a16.734 16.734 0 0 1 5.883-8.094c.324-.256.664-.493 1.016-.71l1.062-.664a16.617 16.617 0 0 1 2.238-.983c.76-.277 1.539-.499 2.33-.664.392-.087.791-.12 1.182-.186l.591-.08h.598c1.56-.086 3.124.046 4.648.392a17.7 17.7 0 0 1 4.263 1.627 16.93 16.93 0 0 1 7.968 9.834c.375 1.297.598 2.634.664 3.984 0 .332 0 .664.033.989.033.325 0 .664 0 .976v1.926c0 1.268 0 2.516-.046 3.738-.067 4.887-.12 9.376-.173 13.426-.113 8.094-.199 14.429-.259 18.639l-.047-.047 5.366.086h1.759-1.739l-5.392-.033h-.047v-.046c0-4.21.093-10.545.166-18.639.04-4.05.087-8.545.133-13.433 0-1.221 0-2.47.04-3.738v-2.895l-.04-.976a15.631 15.631 0 0 0-2.344-7.682 16.54 16.54 0 0 0-6.155-5.917 17.52 17.52 0 0 0-4.19-1.593 16.49 16.49 0 0 0-4.588-.372h-.584l-.578.086c-.392.06-.784.093-1.169.179-1.56.333-3.068.876-4.482 1.614l-1.042.624c-.345.202-.677.424-.996.664a16.392 16.392 0 0 0-5.77 7.968 17.625 17.625 0 0 0-.837 5.047c0 1.744-.02 3.503-.06 5.278-.04 3.542-.079 7.147-.119 10.817-.08 7.304-.166 14.854-.253 22.576v.166h-.166l-7.118-.08h-.166v-.166c0-1.328.016-2.682.047-4.063.119-10.186.232-20.133.345-29.748.047-2.403 0-4.774.193-7.151a25.231 25.231 0 0 1 1.772-6.799 25.727 25.727 0 0 1 3.56-5.784 25.405 25.405 0 0 1 4.986-4.508 23.555 23.555 0 0 1 12.165-4.037c.524 0 1.049-.06 1.573-.047l1.786.106.983.113 1.488.246.664.146a23.201 23.201 0 0 1 5.312 1.952c.879.432 1.729.922 2.543 1.468.418.245.777.577 1.162.856.385.279.777.565 1.128.89a23.55 23.55 0 0 1 1.992 1.992l.93 1.042c.286.366.545.744.817 1.116a23.176 23.176 0 0 1 4.097 9.608c.617 3.32.305 6.534.325 9.535.02 3.001-.08 5.857-.113 8.513-.073 5.312-.139 9.88-.192 13.618-.054 3.739-.093 6.64-.127 8.592 0 .97 0 1.72-.039 2.225-.04.504.053.77.053.77Z"/>
  <path fill="#E0E0E0" d="m108.636 256.119 64.404.731a2.48 2.48 0 0 1 2.455 2.511l-.565 49.777a2.26 2.26 0 0 1-2.283 2.232l-64.603-.733.618-54.518h-.026Z"/>
  <path fill="#EBEBEB" d="m108.636 255.98 56.639.566a2.696 2.696 0 0 1 2.669 2.723l-.484 48.472a3.323 3.323 0 0 1-3.354 3.287l-55.922-.56a2.786 2.786 0 0 1-2.761-2.816l.49-49.004a2.694 2.694 0 0 1 2.723-2.668Z"/>
  <path fill="#E0E0E0" d="M144.965 278.98a7.612 7.612 0 0 0-4.779-7.147 7.586 7.586 0 0 0-2.977-.542 7.687 7.687 0 0 0-7.457 7.456 7.58 7.58 0 0 0 5.445 7.411l-5.08 10.438 13.114.391-3.877-10.803a7.588 7.588 0 0 0 5.611-7.204Z"/>
  <path fill="#FAFAFA" d="M167.096 306.164c-.093 0 0-9.489.166-21.188.166-11.7.405-21.195.498-21.195.093 0 0 9.488-.166 21.195-.166 11.706-.405 21.195-.498 21.188Z"/>
  <path fill="#fff" d="M153.258 258.296c0 .093-8.347.186-18.645.206-10.299.02-18.652-.04-18.652-.133s8.346-.179 18.652-.199c10.305-.02 18.645.02 18.645.126Zm-23.797 24.608a1.7 1.7 0 0 1-.312-.478 7.676 7.676 0 0 1-.571-1.448 8.527 8.527 0 0 1 3.12-9.189 7.575 7.575 0 0 1 1.328-.804c.166-.092.345-.154.532-.186 0 .053-.724.366-1.72 1.176a8.753 8.753 0 0 0-3.035 8.944c.326 1.281.711 1.945.658 1.985Zm2.987 3.639c-.046.079-.491-.113-.996-.425-.504-.312-.869-.631-.823-.711.046-.08.498.113 1.003.425.504.312.816.631.816.711Zm6.322-65.318c-.424.081-.852.136-1.282.166a22.169 22.169 0 0 0-3.426.737 20.432 20.432 0 0 0-14.482 16.427c-.2 1.154-.3 2.322-.299 3.493v1.288a1.068 1.068 0 0 1-.053-.332c0-.219-.066-.538-.073-.956-.047-1.181.02-2.364.199-3.533a20.146 20.146 0 0 1 14.648-16.6 18.385 18.385 0 0 1 3.48-.664c.411-.046.737-.039.956-.046.111-.004.222.002.332.02Zm-19.841 27.988a5.984 5.984 0 0 1-.119-1.992 5.924 5.924 0 0 1 .205-1.992c.2 1.323.171 2.67-.086 3.984Z"/>
  <path fill="#F5F5F5" d="M159.851 64.255h-32.303v8.546h32.303v-8.546Z"/>
  <path fill="#E0E0E0" d="M146.193 81.805v-2.277c0-1.475 0-3.593-.053-6.269l.1.1-32.304.066c.073-.073-.166.16.166-.166v8.533l-.159-.16 23.02.073 6.793.047h2.318a.883.883 0 0 1 .172 0h-2.41l-6.76.046-23.133.073h-.16V73.18l.166-.165 32.304.066h.099v.1c0 2.695-.039 4.84-.053 6.328v2.078a.357.357 0 0 1-.106.219Z"/>
  <path fill="#F5F5F5" d="M460.239 41.945h-32.303v8.545h32.303v-8.545Z"/>
  <path fill="#E0E0E0" d="M446.581 59.494a.78.78 0 0 1 0-.152v-2.125c0-1.474 0-3.593-.054-6.268l.1.1-32.304.066c.073-.073-.166.159.166-.166v8.545l-.159-.16 23.021.074 6.793.047h2.49-2.411l-6.759.046-23.134.073h-.166v-8.612l.166-.166 32.304.066h.099v.1c0 2.696-.04 4.84-.053 6.328v2.085c0 .113-.093.12-.099.12Z"/>
  <path fill="#F5F5F5" d="M276.012 211.836h-32.304v8.546h32.304v-8.546Z"/>
  <path fill="#E0E0E0" d="M262.354 229.385a.845.845 0 0 1 0-.159v-2.118c0-1.474-.034-3.592-.054-6.268l.1.099-32.304.067c.074-.073-.166.159.16-.166v8.532l-.16-.159 23.021.073 6.793.046h2.49-2.41l-6.76.047-23.173.166h-.166v-8.692l.166-.166 32.303.066h.1v.1c0 2.696-.04 4.841-.053 6.328v2.078a1.08 1.08 0 0 1-.053.126ZM64.23 50.87a.66.66 0 0 1 0-.153v-2.125c0-1.474 0-3.593-.054-6.268l.1.1-32.35.072c.073-.073-.166.166.16-.166v8.54l-.16-.16 23.02.073 6.793.047h2.49a.63.63 0 0 1-.152 0h-2.265l-6.752.046-23.134.073h-.166v-8.612l.166-.166 32.303.066h.1v.1c0 2.702-.04 4.84-.053 6.328v2.085a.814.814 0 0 1-.047.12Zm322.139 246.423v-2.278c0-1.474 0-3.592-.053-6.268l.099.1-32.303.066.166-.166v8.533l-.16-.16 23.021.073 6.793.047h2.49-2.41l-6.76.046-23.134.073h-.159v-8.692l.166-.166 32.304.067h.099v.099c0 2.696-.04 4.841-.053 6.328v2.085c0 .113-.1.219-.106.213ZM256.855 38.598v-2.277c0-1.474 0-3.6-.053-6.268l.1.1-32.304.059.166-.16v8.546l-.159-.16 23.021.074 6.792.04h2.324a.853.853 0 0 1 .166 0h-2.41l-6.76.046-23.133.073h-.16v-8.605l.166-.166 32.304.066h.1v.1c0 2.696-.04 4.84-.054 6.328v2.078a.545.545 0 0 1-.106.126Z"/>
  <path fill="#E0E0E0" d="M261.264 30.053a.92.92 0 0 1 0-.166v-2.165c0-1.5-.04-3.612-.066-6.215l.119.113-19.409.046.16-.159v8.533l-.153-.16 13.884.073 4.044.047h1.481c-.117.01-.235.01-.352 0h-1.063l-3.984.04-13.99.073h-.159V21.52c-.04 0 .312-.312.166-.166l19.408.047h.12v.12c0 2.655-.053 4.767-.067 6.287v1.687c0 .418-.139.564-.139.558ZM53.008 242.36a1.394 1.394 0 0 1 0-.153v-2.118c0-1.474 0-3.599-.054-6.275l.1.1-32.304.066.166-.166v8.539l-.159-.159 23.02.073 6.794.046h2.489-2.41l-6.76.047-23.133.073h-.16v-8.612c.333-.325.094-.086.167-.159l32.303.059h.1v.1c0 2.702-.04 4.84-.053 6.334v2.079c-.1.126-.1.126-.106.126Z"/>
  <path fill="#E0E0E0" d="M57.416 233.828a.822.822 0 0 1 0-.16v-2.164c0-1.501-.04-3.619-.066-6.222l.12.12-19.41.046c-.146.146.2-.199.16-.166v8.539l-.153-.153 13.884.073 4.044.047h1.48a2.297 2.297 0 0 1-.351 0h-1.062l-3.984.046-13.99.073h-.16v-8.698l.166-.166 19.322.119h.12v.12c0 2.656-.053 4.774-.067 6.288v1.693c0 .419-.053.578-.053.565Zm97.317-61.726a.644.644 0 0 1 0-.152v-2.118c0-1.481-.034-3.599-.053-6.275l.099.099-32.303.067c.073-.073-.166.166.159-.166v8.532l-.159-.159 23.02.073 6.793.046h2.49-2.417l-6.753.04-23.133.073h-.166v-8.698l.166-.166 32.303.066h.1v.1c0 2.702-.04 4.84-.053 6.334v2.079a.836.836 0 0 1-.093.225Z"/>
  <path fill="#E0E0E0" d="M159.115 163.557a.43.43 0 0 1 0-.16v-.458l-.033-1.713c0-1.494 0-3.612-.06-6.215l.119.119-19.415.047.166-.166v8.539l-.159-.153 13.884.073 4.05.04h1.481a2.39 2.39 0 0 1-.359 0h-1.055l-3.984.047-13.991.073h-.153v-8.699c0 .033.319-.312.166-.166l19.416.047h.119v.119c0 2.656-.046 4.774-.059 6.288 0 .711 0 1.275-.034 1.687-.033.412-.093.657-.099.651Z"/>
  <path fill="#263238" d="M456.056 311.343c0 .093-94.654.173-211.378.173-116.725 0-211.405-.1-211.405-.173 0-.073 94.634-.173 211.405-.173s211.378.08 211.378.173Z"/>
  <path fill="#E0E0E0" d="m393.513 91.52-5.246-1.09 6.64-31.945a7.01 7.01 0 0 0-1.035-4.807c-8.36-11.574-21.959-6.872-24.044 3.127l-5.976 28.552-5.246-1.095 6.7-32.151a11.447 11.447 0 0 1 5.93-7.829c16.892-8.705 31.068 4.828 28.18 18.699l-5.903 28.538Z"/>
  <path fill="#263238" d="M393.514 91.52s.033-.2.113-.572c.079-.372.186-.936.332-1.66l1.328-6.354c.571-2.756 1.261-6.123 2.065-10.033l1.328-6.255c.411-2.218 1.095-4.542 1.122-7.052.04-2.628-.519-5.23-1.634-7.61-.146-.305-.285-.624-.438-.929l-.531-.896a17.706 17.706 0 0 0-1.189-1.733c-.212-.293-.464-.545-.697-.817-.232-.272-.458-.551-.73-.79a16.281 16.281 0 0 0-1.647-1.435 17.785 17.785 0 0 0-3.838-2.29l-1.069-.399-.604-.199-.558-.146-1.122-.292c-.385-.087-.77-.126-1.155-.193a17.559 17.559 0 0 0-9.456 1.209 17.627 17.627 0 0 0-9.96 11.056c-.485 1.692-.797 3.465-1.175 5.232-1.474 7.084-3.008 14.422-4.568 21.912a455.235 455.235 0 0 0-.625 2.994l-.099-.153 5.245 1.096-.146.1a18955.668 18955.668 0 0 1 5.133-24.568l.81-3.891c.285-1.285.75-2.524 1.381-3.679a12.692 12.692 0 0 1 5.525-5.126c.285-.126.558-.279.856-.378l.877-.306a12.926 12.926 0 0 1 3.612-.551c.299 0 .604 0 .903.04h.445l.445.073c1.168.16 2.309.483 3.386.963a13.371 13.371 0 0 1 2.902 1.819 12.682 12.682 0 0 1 3.738 5.358c.731 1.95.944 4.054.618 6.11l-.12.736c-.046.24-.099.478-.146.718l-.299 1.42a459.03 459.03 0 0 0-.577 2.756c-.757 3.599-1.455 6.912-2.079 9.894-1.261 5.976-2.244 10.624-2.895 13.738l-.033-.047 3.984.844.969.212.319.073-.312-.06-.963-.186-3.984-.81v-.04l2.829-13.744c.617-2.988 1.328-6.302 2.052-9.907l.571-2.756c.093-.465.192-.943.292-1.414.053-.24.1-.478.153-.724.053-.245.073-.485.112-.724a11.834 11.834 0 0 0-.617-6.015 12.468 12.468 0 0 0-3.692-5.266 13.186 13.186 0 0 0-2.868-1.786 12.51 12.51 0 0 0-3.32-.943l-.439-.066h-.444c-.293 0-.585-.04-.884 0a12.754 12.754 0 0 0-3.545.544l-.864.306a7.853 7.853 0 0 0-.836.371 12.388 12.388 0 0 0-5.418 5.04 13.305 13.305 0 0 0-1.328 3.606 985.446 985.446 0 0 1-.811 3.89 8868.74 8868.74 0 0 1-1.66 7.969l-3.459 16.6v.126h-.126l-5.246-1.096h-.119v-.126c.206-.99.411-1.992.624-2.995 1.567-7.51 3.094-14.847 4.575-21.912.378-1.772.664-3.532 1.182-5.258a19.117 19.117 0 0 1 2.291-4.768 17.925 17.925 0 0 1 7.848-6.428 17.789 17.789 0 0 1 9.575-1.215c.392.067.784.113 1.169.193l1.328.345.71.226 1.062.398.492.206a17.838 17.838 0 0 1 3.645 2.211 18.21 18.21 0 0 1 1.66 1.455c.21.227.409.465.598.71.232.279.491.531.697.823.437.563.841 1.15 1.208 1.76l.532.903c.159.312.292.664.445.943a17.484 17.484 0 0 1 1.626 7.696c0 2.536-.723 4.867-1.142 7.091-.418 2.225-.909 4.316-1.328 6.275A8240.7 8240.7 0 0 1 395.313 83c-.578 2.729-1.036 4.88-1.328 6.328l-.352 1.64a11.01 11.01 0 0 1-.119.551Z"/>
  <path fill="#455A64" d="m356.343 64.374 46.861 9.764a2.483 2.483 0 0 1 1.925 2.938l-7.404 35.531a2.26 2.26 0 0 1-2.67 1.749l-47.083-9.81 8.371-40.172Z"/>
  <path fill="#000" d="m356.367 64.411 46.614 9.713a2.736 2.736 0 0 1 2.121 3.236l-7.301 35.037a2.511 2.511 0 0 1-2.969 1.945l-46.835-9.758 8.37-40.173Z" opacity=".3"/>
  <path fill="#455A64" d="m356.743 64.458 40.419 8.422a2.698 2.698 0 0 1 2.09 3.19l-7.148 34.302a3.318 3.318 0 0 1-3.927 2.573l-39.692-8.271a2.784 2.784 0 0 1-2.171-2.211 2.786 2.786 0 0 1 .01-1.088l7.256-34.822a2.694 2.694 0 0 1 3.163-2.095Z"/>
  <path fill="#000" d="M379.861 86.56a5.729 5.729 0 0 0-4.608-6.813 5.803 5.803 0 0 0-6.6 4.429 5.714 5.714 0 0 0 2.955 6.268l-5.279 6.978 9.635 2.192-1.328-8.533a5.711 5.711 0 0 0 5.225-4.522Z" opacity=".3"/>
  <path fill="#263238" d="M392.265 109.859c-.066 0 1.368-7.012 3.2-15.63 1.833-8.62 3.38-15.605 3.447-15.591.066.013-1.368 7.018-3.201 15.65-1.833 8.632-3.38 15.584-3.446 15.571Z"/>
  <path fill="#fff" d="M388.998 72.469c0 .066-6.195-1.082-13.805-2.563-7.609-1.48-13.778-2.736-13.764-2.802.013-.067 6.195 1.076 13.811 2.556 7.616 1.481 13.771 2.716 13.758 2.809Zm-21.162 14.734s-.079-.133-.159-.398a5.217 5.217 0 0 1-.213-1.149 6.506 6.506 0 0 1 .83-3.738 6.569 6.569 0 0 1 2.809-2.603 5.78 5.78 0 0 1 1.102-.398 1.33 1.33 0 0 1 .425-.06c0 .046-.591.166-1.447.617a6.636 6.636 0 0 0-3.539 6.169c.033.97.239 1.547.192 1.56Zm1.661 3.101c-.047.053-.352-.153-.664-.458-.312-.305-.551-.591-.505-.664.047-.073.352.16.664.458.312.299.551.664.505.664Zm14.176-47.317s-.345 0-.969-.066a16.634 16.634 0 0 0-2.656.047A15.406 15.406 0 0 0 366.974 53a16.439 16.439 0 0 0-.724 2.537c-.12.61-.173.956-.193.956a1.066 1.066 0 0 1 0-.252c0-.166 0-.412.087-.724.141-.877.364-1.74.664-2.576a15.2 15.2 0 0 1 13.24-10.153 13.948 13.948 0 0 1 2.656.04c.312 0 .551.08.717.1a.913.913 0 0 1 .252.06Zm-18.725 17.796a4.513 4.513 0 0 1 .199-1.488 4.52 4.52 0 0 1 .438-1.427c.021.5-.044 1.001-.192 1.48-.066.5-.216.985-.445 1.435Z"/>
  <path fill="#455A64" d="m35.119 274.63-11.933 16.202 20.093 14.953c1.328-1.992-6.222-13.598-6.222-13.598l8.075-10.067-10.013-7.49Z"/>
  <path fill="#fff" d="M31.52 286.702a1.018 1.018 0 0 0-1.261.511.99.99 0 0 0 .498 1.262 1.08 1.08 0 0 0 1.328-.551 1.024 1.024 0 0 0-.664-1.255"/>
  <path fill="#263238" d="m23.16 290.872 1.268-1.74L43.2 304.245s.597 1.062 0 1.613l-20.04-14.986Zm14.336 1.461c-.073.099-.598-.219-1.328-.266-.73-.046-1.282.18-1.328.073-.047-.106.51-.564 1.374-.498.863.067 1.335.618 1.282.691Zm1.428 2.443c-.053.113-.598-.039-1.242.127s-1.062.537-1.162.458c-.1-.08.26-.664 1.063-.87.803-.206 1.407.192 1.34.285Zm-.684 3.413c-.107-.046.126-.664.776-.989.651-.325 1.269-.219 1.249-.106-.02.113-.518.186-1.043.484-.524.299-.876.671-.983.611Zm.81-8.353c-.113.06-.458-.412-1.042-.784-.585-.371-1.143-.524-1.136-.664.007-.139.664-.166 1.368.286.704.451.916 1.122.81 1.162Zm44.648-83.026c.358 2.031.93 19.315 1.294 28.432.365 9.117-.544 13.599-1.587 15.644-1.042 2.045-40.358 31.015-43.352 37.954l-9.96-8.028s14.608-26.221 20.836-30.989c6.228-4.767 18.214-9.143 18.214-9.143l-3.407-49.926 16.328-.89 1.634 16.946Z"/>
  <path fill="#455A64" d="m47.157 290.653-.173 20.099 25.04.345c-.113-2.39-13.001-7.377-13.001-7.377l.664-12.888-12.53-.179Z"/>
  <path fill="#fff" d="M51.294 302.558a1.025 1.025 0 0 0-.724 1.156.987.987 0 0 0 1.142.73 1.082 1.082 0 0 0 .757-1.228 1.013 1.013 0 0 0-1.268-.624"/>
  <path fill="#263238" d="M46.977 310.825v-2.158l24.07 1.248s1.103.512.963 1.295l-25.033-.385Zm12.431-7.198c0 .127-.617.173-1.222.558-.604.385-.936.89-1.049.844-.113-.047.08-.757.824-1.209.743-.452 1.5-.305 1.447-.193Zm2.656 1.149c0 .12-.512.319-.93.83-.418.511-.551 1.062-.664 1.049-.113-.013-.193-.697.345-1.328.538-.631 1.249-.69 1.249-.551Zm1.428 3.141c-.113 0-.272-.591.046-1.255.319-.664.903-.923.95-.824.046.1-.306.459-.565 1.01-.259.551-.312 1.056-.431 1.069Zm-4.244-7.244c-.053.113-.61-.067-1.328 0-.717.066-1.235.245-1.328.139-.093-.106.458-.531 1.275-.564.817-.033 1.441.332 1.381.425Z"/>
  <path fill="#263238" d="M85.504 187.799c0 1.175 1.905 30.929-7.822 52.456 0 0-3.367 6.733-3.984 9.675-.618 2.941-13.2 51.732-13.2 51.732l-14.542-.531s-2.324-24.442 0-38.592c2.324-14.15 6.64-12.49 6.64-21.627 0-9.136-2.171-28.08-2.171-28.08s-3.174-5.173-4.257-15.206c-.883-8.147 2.955-16.879 2.955-16.879l3.791-6.713 32.078-1.68.512 15.445Z"/>
  <path fill="#455A64" d="M85.503 187.799v-1.016c0-.67-.04-1.666-.066-2.975-.06-2.622-.16-6.487-.28-11.48v-.073h-.079L53 173.888h-.066l-.04.06c-1.175 2.085-2.47 4.363-3.798 6.713a42.985 42.985 0 0 0-2.304 7.371 32.815 32.815 0 0 0-.804 8.094c.203 2.841.647 5.66 1.328 8.426a34.227 34.227 0 0 0 3.075 8.346v-.066a525.93 525.93 0 0 1 1.494 15.372c.212 2.656.398 5.312.53 8.041a91.49 91.49 0 0 1 .127 4.096c0 .664 0 1.375-.04 2.059a19.126 19.126 0 0 1-.252 2.045 13.435 13.435 0 0 1-1.428 3.891c-.664 1.242-1.328 2.47-1.992 3.765a35.418 35.418 0 0 0-2.61 8.233c-1.155 5.711-1.387 11.647-1.453 17.63 0 7.895.371 15.65 1.022 23.147v.159h.153l14.541.531h.14l.033-.139c4.217-16.341 8.147-31.613 11.613-45.345l1.255-5.079c.22-.844.359-1.68.618-2.477a39.62 39.62 0 0 1 .857-2.357c.624-1.541 1.328-3.035 1.992-4.489l.517-1.082c.184-.354.348-.717.492-1.089.299-.737.597-1.461.896-2.185a88.088 88.088 0 0 0 4.588-16.553 143.96 143.96 0 0 0 2.192-24.396c.04-5.723-.193-8.831-.193-8.831v.571c0 .379 0 .956.04 1.7.04 1.494.066 3.699 0 6.56a147.705 147.705 0 0 1-2.211 24.376 88.06 88.06 0 0 1-4.648 16.494l-.89 2.171c-.146.372-.312.724-.491 1.082-.18.359-.352.724-.525 1.089-.664 1.454-1.368 2.948-1.992 4.495-.312.777-.61 1.567-.87 2.378-.259.81-.411 1.666-.624 2.49-.418 1.673-.837 3.359-1.268 5.079-3.526 13.718-7.45 28.99-11.653 45.331l.172-.126-14.541-.538.172.16c-.664-7.483-1.049-15.232-1.022-23.114.066-5.976.299-11.886 1.447-17.556a35.522 35.522 0 0 1 2.583-8.161c.598-1.281 1.328-2.496 1.992-3.758a13.884 13.884 0 0 0 1.408-3.984c.126-.692.212-1.39.259-2.092 0-.664.066-1.394.04-2.078 0-1.381-.06-2.756-.126-4.117a236.975 236.975 0 0 0-.545-8.047 514.083 514.083 0 0 0-1.507-15.385v-.04a33.865 33.865 0 0 1-3.088-8.247 50.166 50.166 0 0 1-1.328-8.366c-.071-2.696.192-5.39.784-8.022a43.643 43.643 0 0 1 2.25-7.304l3.785-6.719-.106.066 32.078-1.733-.086-.073c.16 4.987.279 8.851.358 11.474.047 1.328.08 2.297.107 2.975.026.677.066.989.066.989Z"/>
  <path fill="#455A64" d="M75.072 126.87s-8.632-1.527-7.829 9.582c.505 6.64 2.457 18.034 3.54 25.305.371 2.516 1.195 7.018 4.521 9.661l23.838 16.494 7.523-8.997-21.288-20.272-3.32-20.053-6.985-11.72Z"/>
  <path fill="#263238" d="M76.088 86.831a10.929 10.929 0 0 1 4.05 9.243c-.133 1.7-.604 3.632.505 4.927 1.109 1.295 3.234 1.248 4.283 2.563 1.228 1.554.199 3.864.664 5.797a3.932 3.932 0 0 0 4.176 2.915 15.341 15.341 0 0 1-7.596 3.32l-2.178-2.716c.81.956.591 2.476-.186 3.453a6.443 6.443 0 0 1-3.134 1.859 19.453 19.453 0 0 1-17.031-2.769"/>
  <path fill="#263238" d="M44.196 101.818c.425-1.328 1.142-2.503 1.428-3.838.61-2.875-.79-6.115.604-8.705.996-1.84 3.107-2.742 5.113-3.36 2.005-.617 4.143-1.135 5.637-2.603 1.089-1.075 1.713-2.563 2.802-3.638 1.554-1.54 3.851-2.065 6.03-2.198 2.248-.218 4.515.15 6.58 1.069a7.186 7.186 0 0 1 4.05 5.066c.172 1.076.04 2.211.385 3.254.372 1.142 1.268 2.032 1.826 3.1a5.764 5.764 0 0 1-1.44 6.906l-15.392 19.88c-3.234 1.222-11.07-.252-13.566-2.656-2.497-2.403-5.126-8.99-4.057-12.277Z"/>
  <path fill="#FFBF9D" d="M76.805 94.348c-.664-4.515-4.07-9.847-8.553-9.024l-13.837 4.648c-1.328.252-.386 2.477-.253 3.851l3.008 31.208s-1.872 1.328-2.536 1.076a.196.196 0 0 0-.215.062.194.194 0 0 0-.011.223c1.68 2.424 9.508 12.962 17.616 9.728 1.806-.724-.193-6.414 0-8.519l-.24-5.385a270.57 270.57 0 0 0-.265-3.851c0 .026 5.724-1.408 6.341-9.064.313-3.791-.351-9.94-1.055-14.953Z"/>
  <path fill="#263238" d="M75.842 101.293a.977.977 0 0 1-.864 1.05.936.936 0 0 1-.949-.448.929.929 0 0 1-.12-.349.977.977 0 0 1 .864-1.049.917.917 0 0 1 .703.172.93.93 0 0 1 .366.624Zm-9.429.591a.97.97 0 0 1-.856 1.049.932.932 0 0 1-.948-.449.93.93 0 0 1-.121-.347.977.977 0 0 1 .863-1.05.93.93 0 0 1 .945.448.93.93 0 0 1 .117.349Zm9.774-3.791c-.106.18-1.01-.392-2.138-.226-1.129.166-1.853.936-1.992.797-.14-.14 0-.372.325-.724a2.583 2.583 0 0 1 3.32-.458c.372.259.538.531.485.61Zm-10.139.843c-.133.166-1.016-.478-2.231-.425-1.215.053-2.078.737-2.218.584-.14-.152.06-.358.439-.664a2.908 2.908 0 0 1 1.76-.664 2.881 2.881 0 0 1 1.792.538c.378.272.518.551.458.631Zm3.805 7.151a6.633 6.633 0 0 1 1.673-.438c.26-.046.512-.119.538-.305.004-.278-.08-.55-.239-.777-.299-.624-.61-1.282-.943-1.992-1.328-2.809-2.29-5.12-2.178-5.173.113-.053 1.275 2.178 2.59 4.98.319.697.624 1.328.91 1.992.194.308.272.676.219 1.036a.669.669 0 0 1-.405.425 1.83 1.83 0 0 1-.445.093 7.306 7.306 0 0 1-1.72.159Z"/>
  <path fill="#FF9A6C" d="M71.52 118.378a19.295 19.295 0 0 1-10.332-1.926s2.954 5.113 10.464 3.825l-.133-1.899Zm-4.848-9.249c.118-.263.301-.491.531-.664.282-.134.602-.165.903-.087.449.066.864.276 1.182.598a1.27 1.27 0 0 1 .299 1.248c-.12.438-.77.664-1.215.757a1.996 1.996 0 0 1-1.328-.272 1.17 1.17 0 0 1-.664-.863c.03-.262.13-.51.292-.717Z"/>
  <path fill="#263238" d="M66.885 107.661c.166 0 .259 1.109 1.288 1.839 1.03.731 2.224.512 2.244.664.02.153-.245.239-.757.293a2.822 2.822 0 0 1-1.872-.498 2.439 2.439 0 0 1-1.01-1.548c-.066-.458.027-.75.107-.75Zm-.93-12.808c-.086.285-1.135.232-2.35.478-1.215.245-2.178.664-2.357.405-.08-.113.066-.392.445-.698a4.13 4.13 0 0 1 3.585-.664c.465.133.71.34.677.479Zm9.588-.565c-.193.252-1.03.073-1.992.14-.963.066-1.813.298-2.025.066-.093-.113 0-.365.365-.618a3.108 3.108 0 0 1 1.613-.51 3.021 3.021 0 0 1 1.647.351c.346.2.478.438.392.571Z"/>
  <path fill="#263238" d="M51.354 91.061c.664-1.076 1.952-1.627 3.147-2.085a69.644 69.644 0 0 1 16.03-4.083c.663 1.122.052 2.656-.977 3.472-1.03.817-2.357 1.142-3.585 1.6-1.229.459-2.497 1.176-3.008 2.39-.512 1.216-.08 2.816-.558 4.131-.817 2.27-3.984 3.001-4.774 5.266-.611 1.719.385 3.545.664 5.351a6.51 6.51 0 0 1-6.388 7.404c-.372-6.503-.746-13.001-1.122-19.495-.113-1.355-.166-2.815.57-3.95Z"/>
  <path fill="#263238" d="M38.26 107.482c1.03-.923 2.317-1.72 2.722-3.035.598-1.919-.943-4.17.053-5.916.903-1.593 3.566-1.507 4.41-3.134.663-1.275-.1-2.397.145-3.513.246-1.115 1.84-2.091 2.968-1.958l8.858 12.861c.824 4.316 1.654 6.64.73 9.137a20.153 20.153 0 0 0-1.374 4.197c-.199 1.46.18 3.114 1.368 3.984-5.312.418-10.279-2.358-14.874-5.047l-4.84-2.842a3.468 3.468 0 0 1-1.328-1.115c-.724-1.182.14-2.703 1.162-3.619Z"/>
  <path fill="#455A64" d="M43.153 113.75c.186.059.377.097.571.112a5.11 5.11 0 0 0 3.957-1.361 5.025 5.025 0 0 0 1.515-3.101 5.132 5.132 0 0 0-.173-2.038 8.414 8.414 0 0 0-.983-1.992 7.64 7.64 0 0 1-1.016-2.045 2.617 2.617 0 0 1 .286-2.251c.478-.664 1.374-.804 2.211-1.136a2.41 2.41 0 0 0 1.129-.843c.261-.414.389-.898.365-1.388a15.152 15.152 0 0 0-.604-2.762 2.923 2.923 0 0 1 0-1.328 1.91 1.91 0 0 1 .763-1.082 5.365 5.365 0 0 1 2.656-.717 5.703 5.703 0 0 0 2.736-.804 5.12 5.12 0 0 0 1.892-2.038 8.4 8.4 0 0 0 .665-2.543c.092-.813.265-1.613.517-2.39a5.418 5.418 0 0 1 1.249-1.88 6.136 6.136 0 0 1 3.672-1.66 6.069 6.069 0 0 1 3.32.664c.768.393 1.46.92 2.045 1.554a9.654 9.654 0 0 1 1.261 1.813s0-.047-.046-.14a6.878 6.878 0 0 0-1.109-1.726 7.422 7.422 0 0 0-2.058-1.627 6.174 6.174 0 0 0-3.38-.75 6.307 6.307 0 0 0-3.858 1.693 5.617 5.617 0 0 0-1.328 1.992 12.367 12.367 0 0 0-.544 2.437 8.203 8.203 0 0 1-.664 2.457 4.86 4.86 0 0 1-1.767 1.905 5.477 5.477 0 0 1-2.603.75 5.585 5.585 0 0 0-2.841.77 2.178 2.178 0 0 0-.877 1.236 3.242 3.242 0 0 0 0 1.494c.281.883.481 1.79.598 2.709.027.427-.08.852-.306 1.215a2.205 2.205 0 0 1-1.002.737c-.392.166-.817.279-1.229.452a2.579 2.579 0 0 0-1.095.79 2.939 2.939 0 0 0-.32 2.496 8.067 8.067 0 0 0 1.063 2.112c.405.587.729 1.226.963 1.899.188.628.251 1.287.186 1.939a4.889 4.889 0 0 1-1.421 3.001c-.62.6-1.383 1.03-2.218 1.248-.71.186-1.45.229-2.178.127Z"/>
  <path fill="#263238" d="M36.075 104.607c-.087.13-.146.277-.173.431-.088.456-.008.928.226 1.328.162.286.39.53.664.711.342.207.736.313 1.135.305a2.65 2.65 0 0 0 2.324-1.48 3.531 3.531 0 0 0 .379-1.614 4.94 4.94 0 0 0-.372-1.753c-.418-1.149-1.189-2.271-1.202-3.612a2.464 2.464 0 0 1 .618-1.826 2.655 2.655 0 0 1 1.925-.598 6.573 6.573 0 0 0 2.298-.239 2 2 0 0 0 .943-.797 2.87 2.87 0 0 0 .391-1.168 9.186 9.186 0 0 0-.192-2.364 5.026 5.026 0 0 1 .126-2.184 5.497 5.497 0 0 1 2.463-3.24 7.816 7.816 0 0 1 3.699-.85 10.736 10.736 0 0 0 3.36-.532 7.043 7.043 0 0 0 2.377-1.46 6.957 6.957 0 0 0 1.328-1.674 4.92 4.92 0 0 0 .63-1.68 10.14 10.14 0 0 1-.736 1.62 7.138 7.138 0 0 1-3.652 3.028 10.94 10.94 0 0 1-3.32.478 7.969 7.969 0 0 0-3.812.85 5.764 5.764 0 0 0-2.616 3.353 5.385 5.385 0 0 0-.14 2.304c.156.751.22 1.518.193 2.284a1.991 1.991 0 0 1-1.148 1.72 6.25 6.25 0 0 1-2.185.22 2.94 2.94 0 0 0-2.132.663 2.716 2.716 0 0 0-.663 2.039c.029.69.194 1.366.484 1.992.26.597.545 1.155.764 1.713.223.529.349 1.093.372 1.667a3.355 3.355 0 0 1-.332 1.514 2.46 2.46 0 0 1-2.132 1.407 1.99 1.99 0 0 1-1.056-.259 1.842 1.842 0 0 1-.664-.664 1.87 1.87 0 0 1-.272-1.241c.033-.239.12-.386.1-.392Zm55.929 3.167a2.09 2.09 0 0 1 0 1.387 1.81 1.81 0 0 1-1.102 1.123 1.924 1.924 0 0 1-1.946-.532 1.764 1.764 0 0 1-.458-1.115 3.709 3.709 0 0 1 .206-1.328c.279-.897.857-1.873.77-3.048a4.3 4.3 0 0 0-1.62-3.068 4.923 4.923 0 0 0-1.653-.869 7.517 7.517 0 0 0-1.886-.273 9.63 9.63 0 0 1-1.84-.192 2.444 2.444 0 0 1-1.427-.883 2.975 2.975 0 0 1-.511-1.574 6.09 6.09 0 0 1 .132-1.633c.292-1.012.453-2.056.479-3.108a4.709 4.709 0 0 0-.95-2.576 6.032 6.032 0 0 0-1.726-1.461 12.239 12.239 0 0 1-1.388-.956 3.48 3.48 0 0 1-.863-1.116v.093c.026.09.061.177.106.26.166.322.39.61.664.85.43.374.89.714 1.374 1.015a5.975 5.975 0 0 1 1.647 1.448c.526.714.827 1.57.863 2.456a12.395 12.395 0 0 1-.498 3.035 6.345 6.345 0 0 0-.152 1.713c.024.62.222 1.22.57 1.733.397.512.961.867 1.594 1.003.623.127 1.257.196 1.893.205a7.358 7.358 0 0 1 1.819.253c.563.175 1.09.452 1.554.816a4.03 4.03 0 0 1 1.52 2.849c.093 1.069-.438 1.992-.73 2.955a4.011 4.011 0 0 0-.2 1.434 2 2 0 0 0 .539 1.242 2.106 2.106 0 0 0 2.164.551 1.948 1.948 0 0 0 1.156-1.248c.12-.347.138-.72.053-1.076a1.115 1.115 0 0 0-.153-.365Z"/>
  <path fill="#455A64" d="M85.656 159.785v-7.344c.823-4.123.431-9.01-1.488-12.775a68.704 68.704 0 0 0-4.608-7.005l-7.304-9.489c-4.024 2.928-10.325.81-15.73-1.155 0 0-5.312 2.954-7.822 5.73-2.61 2.922 6.315 39.475 6.315 39.475-4.044 8.087-9.263 15.272-10.053 22.642l42.23 1.627-1.793-19.362.253-12.344Z"/>
  <path fill="#263238" d="M85.071 172.335a3.725 3.725 0 0 1-.033-.83v-2.251l.12-7.424c.046-2.862.132-5.524.225-7.423.047-.95.093-1.72.133-2.251.005-.276.04-.55.106-.817.027.274.027.549 0 .823v2.251c-.033 1.992-.08 4.562-.126 7.424a243.12 243.12 0 0 1-.22 7.423 63.96 63.96 0 0 1-.138 2.251c.01.276-.012.553-.067.824Z"/>
  <path fill="#FFBF9D" d="M104.36 179.015s4.117.225 6.64 1.819c2.524 1.594 6.64 4.077 8.334 7.151.777 1.415-1.435 1.713-2.53.897-1.096-.817-2.762-2.371-3.592-2.557l-.83-.192a55.449 55.449 0 0 0 2.529 5.02c.857 1.328 1.601 3.532-.976 3.632 0 0-1.733 2.257-3.486.584 0 0-1.367 2.052-3.572-.79 0 0-1.288 1.627-1.819 1.002-.532-.624-2.291-1.606-2.802-3.638a73.94 73.94 0 0 0-2.656-6.966l4.76-5.962Zm92.17-57.065c.458 0 19.309-1.992 19.309-1.992s1.601-7.662 1.514-9.654c-.086-1.992-1.427-15.172-1.427-15.172l7.058-3.32s9.435 31.818 7.377 34.461c-2.058 2.643-5.929 5.013-6.261 5.027-.332.013-18.267 7.968-30.744 3.831-12.476-4.137 3.174-13.181 3.174-13.181Z"/>
  <path fill="#455A64" d="M180.01 139.128c2.775 2.756 7.556 5.047 15.537 3.055 15.777-3.945 27.603-7.304 32.304-9.828 4.701-2.523 2.868-13.798 3.267-14.309 1.188-1.54-.12-4.847-1.813-5.365-4.827-1.461-13.227-.883-13.652-.445-2.476 2.603-.219 5.764-.219 5.764l-20.803 2.729a34.82 34.82 0 0 0-7.643.484"/>
  <path fill="#263238" d="m186.989 121.213.498-.106c.332-.06.824-.146 1.474-.226a34.2 34.2 0 0 1 5.677-.239l20.797-2.788-.1.232a5.571 5.571 0 0 1-.956-3.42 3.991 3.991 0 0 1 .598-1.766c.169-.268.36-.521.571-.757.083-.061.175-.111.272-.146l.239-.06c.159-.039.312-.053.465-.086a41.254 41.254 0 0 1 7.762-.159 26.65 26.65 0 0 1 4.037.557c.332.073.664.173 1.009.259.355.113.679.304.95.558.528.502.93 1.12 1.175 1.806.264.687.357 1.427.273 2.158-.061.38-.204.743-.419 1.063-.06.066-.053.245-.06.418v.531c.047 1.428.113 2.882.073 4.343a18.453 18.453 0 0 1-1.002 6.095 6.03 6.03 0 0 1-1.727 2.543 5.899 5.899 0 0 1-1.328.784c-.438.232-.903.412-1.328.624-1.819.777-3.645 1.414-5.444 1.992-1.8.578-3.566 1.135-5.312 1.647-6.946 1.992-13.28 3.605-18.553 4.927a35.82 35.82 0 0 1-3.824.79 20.528 20.528 0 0 1-3.486.186 14.541 14.541 0 0 1-5.438-1.182 12.512 12.512 0 0 1-2.988-1.859 7.806 7.806 0 0 1-.89-.844s.305.292.936.79c.915.73 1.925 1.333 3.001 1.793a14.672 14.672 0 0 0 5.385 1.109 20.18 20.18 0 0 0 3.447-.212 36.487 36.487 0 0 0 3.798-.81c5.312-1.328 11.593-2.962 18.519-4.994a173.95 173.95 0 0 0 5.312-1.653c1.812-.598 3.612-1.228 5.411-1.992.439-.206.897-.385 1.328-.618a5.806 5.806 0 0 0 1.242-.743 5.655 5.655 0 0 0 1.627-2.397c.654-1.936.979-3.967.963-6.009.039-1.455 0-2.896-.073-4.33v-.83a.704.704 0 0 1 0-.159.797.797 0 0 1 .053-.12l.033-.053c.187-.272.309-.583.358-.909a4.15 4.15 0 0 0-.259-1.992 4.301 4.301 0 0 0-1.075-1.674 2.175 2.175 0 0 0-.824-.484c-.332-.087-.664-.18-.989-.259a26.48 26.48 0 0 0-3.984-.552 40.407 40.407 0 0 0-7.682.147c-.153 0-.306.039-.452.079l-.212.047a.784.784 0 0 0-.133.066c-.2.218-.38.454-.538.704a3.557 3.557 0 0 0-.558 1.627 5.317 5.317 0 0 0 .89 3.22l.133.206h-.233l-20.809 2.656a35.908 35.908 0 0 0-5.651.159c-.664.067-1.149.14-1.481.186a1.882 1.882 0 0 0-.498.126Z"/>
  <path fill="#FF725E" d="m130.664 142.838-8.474-15.224 160.27-89.205a7.968 7.968 0 0 1 10.838 3.087l.726 1.306a7.967 7.967 0 0 1-3.087 10.837l-160.27 89.205-.003-.006Z"/>
  <path fill="#FF725E" d="m265.058 62.325-19.625-35.258a1.487 1.487 0 0 1 .577-2.023l9.004-5.012a1.487 1.487 0 0 1 2.023.576l19.624 35.258-11.603 6.459Zm-38.606-16.418 14.302 25.696a2.152 2.152 0 0 0 2.927.834l7.844-4.366a2.151 2.151 0 0 0 .833-2.926l-14.302-25.697a2.151 2.151 0 0 0-2.926-.833l-7.844 4.366a2.15 2.15 0 0 0-.834 2.926Z"/>
  <path fill="#FF725E" d="m239.08 44.406 8.855 15.909 18.02-10.03-8.855-15.91-18.02 10.03Z"/>
  <path fill="#263238" d="M280.115 39.747c.047.08-31.407 17.676-70.238 39.295-38.831 21.62-70.384 39.083-70.384 38.997 0-.086 31.401-17.676 70.245-39.302 38.844-21.626 70.331-39.076 70.377-38.99Z"/>
  <path fill="#FF725E" d="M65.756 172.248c11.82 21.248 36.739 29.88 55.663 19.356 18.924-10.525 24.701-36.288 12.882-57.509-11.819-21.222-36.733-29.88-55.663-19.356-18.93 10.525-24.694 36.288-12.882 57.509Zm58.293-32.443c8.28 14.874 4.236 32.915-9.031 40.292-13.266 7.377-30.723 1.328-39.003-13.559-8.28-14.887-4.236-32.915 9.024-40.298 13.26-7.384 30.73-1.308 39.01 13.565Zm25.12-27.391 8.745 15.712a4.329 4.329 0 0 0 5.888 1.677l.708-.394a4.329 4.329 0 0 0 1.677-5.888l-8.744-15.711a4.33 4.33 0 0 0-5.889-1.678l-.707.394a4.328 4.328 0 0 0-1.678 5.888Zm16.794-9.348 8.745 15.712a4.329 4.329 0 0 0 5.888 1.677l.708-.394a4.329 4.329 0 0 0 1.677-5.888l-8.744-15.712a4.33 4.33 0 0 0-5.889-1.677l-.708.394a4.329 4.329 0 0 0-1.677 5.888Z"/>
  <path fill="#263238" d="M157.255 107.568c.086-.047 2.111 3.519 4.535 7.968s4.316 8.074 4.23 8.121c-.087.046-2.112-3.513-4.536-7.968-2.423-4.456-4.316-8.121-4.229-8.121Zm-7.709 5.478c.087-.047 2.065 3.36 4.429 7.596 2.364 4.236 4.203 7.722 4.124 7.769-.08.046-2.065-3.36-4.403-7.563-2.337-4.203-4.229-7.756-4.15-7.802Zm24.608-14.728c.086-.046 2.151 3.5 4.615 7.922 2.463 4.422 4.389 8.054 4.302 8.101-.086.046-2.144-3.506-4.608-7.929-2.463-4.422-4.389-8.047-4.309-8.094Zm-8.108 4.894c.079-.046 2.105 3.48 4.508 7.875 2.404 4.396 4.296 7.968 4.21 8.041-.086.073-2.098-3.479-4.508-7.875-2.411-4.395-4.297-7.994-4.21-8.041Zm48.16-23.95a3.136 3.136 0 0 0 3.083-4.676 3.133 3.133 0 0 0-1.755-1.42 3.268 3.268 0 0 0-2.835-5.51 3.914 3.914 0 0 0-3.965-3.75 3.91 3.91 0 0 0-1.918.535 4.396 4.396 0 0 0-5.412-.12 3.128 3.128 0 0 0-2.769 5.313"/>
  <path fill="#FFBF9D" d="M200.733 67.416h.664a13.322 13.322 0 0 1 13.267 12.264c.498 6.434.963 13.546.91 16.998-.126 7.172-7.258 8.234-7.258 8.234l.578 8.592-17.35-.564-1.441-31.142c-.611-7.43 3.194-13.97 10.63-14.382Z"/>
  <path fill="#FF9A6C" d="M208.376 104.912a17.346 17.346 0 0 1-9.355-2.769s2.297 5.412 9.428 4.788l-.073-2.019Z"/>
  <path fill="#263238" d="M210.741 86.42a1.02 1.02 0 0 1-.99 1.022.985.985 0 0 1-1.049-.923 1.032 1.032 0 0 1 .99-1.029.983.983 0 0 1 1.049.93Zm2.376-3.227c-.126.132-.903-.439-1.992-.439s-1.906.545-2.025.412c-.12-.133.073-.299.425-.558a2.794 2.794 0 0 1 1.62-.491 2.656 2.656 0 0 1 1.587.518c.332.259.445.504.385.558Zm-12.277 2.748a1.022 1.022 0 0 1-.996 1.043.983.983 0 0 1-1.049-.923 1.02 1.02 0 0 1 .989-1.03.984.984 0 0 1 1.056.91Zm1.48-2.576c-.126.133-.903-.438-1.992-.438s-1.905.544-2.025.411c-.119-.132.073-.298.425-.557a2.794 2.794 0 0 1 1.62-.492 2.655 2.655 0 0 1 1.587.518c.332.26.445.498.385.558Zm3.958 8.161a7.096 7.096 0 0 1 1.786-.319c.279 0 .544-.08.598-.272a1.44 1.44 0 0 0-.186-.83l-.824-2.138c-1.142-3.048-1.992-5.551-1.846-5.591.146-.04 1.149 2.384 2.291 5.425.272.75.538 1.467.79 2.151.173.34.222.73.14 1.103a.704.704 0 0 1-.465.404 1.607 1.607 0 0 1-.471.067 7.304 7.304 0 0 1-1.813 0Zm-2.995-12.384c-.146.279-1.082 0-2.244-.066-1.162-.067-2.131.152-2.238-.14-.046-.14.16-.385.578-.61a3.515 3.515 0 0 1 1.74-.36c.596.022 1.175.2 1.68.519.378.259.551.53.484.657Zm9.901-.472c-.233.246-1.142 0-2.231 0s-1.992.167-2.225-.099c-.093-.126.053-.379.458-.61a3.574 3.574 0 0 1 1.813-.406 3.494 3.494 0 0 1 1.773.511c.385.226.511.478.412.605Z"/>
  <path fill="#263238" d="M213.987 76.426s-1.872-4.482-4.03-5.53c-2.61-1.276-3.738 1.586-6.228.882-2.49-.704-4.98-1.919-7.53 0-2.789 2.098-1.488 3.58-1.674 6.753-.73 12.855-3.094 16.48-3.738 10.425-.073-.664-1.912-1.195-2.178-3.984-.345-3.632-.471-8.048.352-10.624.664-2.171 1.932-3.672 4.157-5.312 3.519-2.603 8.34-2.656 11.613-2.304 3.274.352 9.568 4.09 9.256 9.694Z"/>
  <path fill="#FFBF9D" d="M191.239 88.757a1.95 1.95 0 0 0-.641-1.386 1.929 1.929 0 0 0-1.444-.493c-1.328.126-2.822.876-2.743 3.632.14 4.887 5.02 3.738 5.027 3.592.006-.146-.12-3.3-.199-5.345Z"/>
  <path fill="#FF9A6C" d="M190.316 92.296s-.08.066-.226.133a.857.857 0 0 1-.631.033 2.102 2.102 0 0 1-1.029-1.866 2.819 2.819 0 0 1 .199-1.222.983.983 0 0 1 .625-.664.43.43 0 0 1 .511.22c.066.132.04.232.066.238.027.007.1-.086.053-.285a.489.489 0 0 0-.199-.299.622.622 0 0 0-.471-.113 1.202 1.202 0 0 0-.87.784 2.876 2.876 0 0 0-.259 1.368c.06.982.591 1.892 1.328 2.078a.897.897 0 0 0 .77-.153c.133-.133.153-.252.133-.252Z"/>
  <path fill="#263238" d="M191.365 79.288a4.646 4.646 0 0 0 2.065.963 1.592 1.592 0 0 0 1.773-1.115c.06-.34 0-.737.199-.996.199-.26.764-.213 1.169-.166 1.421.152 3.087-1.415 3.453-2.796a1.267 1.267 0 0 0 1.699.359 4.535 4.535 0 0 0 1.182-1.043 2.033 2.033 0 0 1 1.68-.83c.344.119.701.197 1.063.233.664-.053.956-.804 1.055-1.441.1-.638.18-1.375.724-1.72a2.569 2.569 0 0 1 1.746-.047c.591.094 1.328-.046 1.508-.624a1.188 1.188 0 0 0-.02-.463 1.187 1.187 0 0 0-.199-.42 3.162 3.162 0 0 0-3.732-1.208 4.281 4.281 0 0 0-6.105-2.61 4.284 4.284 0 0 0-1.777 1.753 4.346 4.346 0 0 0-5.748-.111 4.345 4.345 0 0 0-1.217 1.678 3.155 3.155 0 0 0-3.572 4.575 2.994 2.994 0 0 0-1.654 2.384c0 1.01.963 1.992 1.939 1.753a1.75 1.75 0 0 0 .679 2.302 1.745 1.745 0 0 0 2.336-.55"/>
  <path fill="#455A64" d="M207.088 69.408v.093c0 .093 0 .146-.033.259a3.19 3.19 0 0 1-.359.942 3.53 3.53 0 0 1-1.082 1.15 3.278 3.278 0 0 1-1.992.564l.08-.107a1.75 1.75 0 0 1-.1 1.328 5.01 5.01 0 0 1-.837 1.196 3.649 3.649 0 0 1-.551.564 1.825 1.825 0 0 1-2.344-.285l.18-.054a3.662 3.662 0 0 1-1.561 2.53 2.655 2.655 0 0 1-1.607.525 4.94 4.94 0 0 1-1.58-.352l.133-.06a3.88 3.88 0 0 1-1.162 1.507 2.05 2.05 0 0 1-1.7.459 2.693 2.693 0 0 1-2.072-2.112l.113.053a2.57 2.57 0 0 1-1.68.24 2.766 2.766 0 0 1-1.168-.525 2.43 2.43 0 0 1-.545-.598.857.857 0 0 1-.119-.259c.185.305.426.573.71.79.338.245.73.406 1.142.472a2.377 2.377 0 0 0 1.587-.253l.093-.053v.106a2.524 2.524 0 0 0 1.952 1.952 1.868 1.868 0 0 0 1.547-.431 3.66 3.66 0 0 0 1.089-1.428l.04-.086h.093c.481.193.99.306 1.507.332a2.465 2.465 0 0 0 1.488-.485A3.474 3.474 0 0 0 199.824 75v-.233l.153.18a1.574 1.574 0 0 0 1.387.504 1.56 1.56 0 0 0 .664-.252 3.23 3.23 0 0 0 .518-.525c.329-.338.606-.723.824-1.142a1.598 1.598 0 0 0 .106-1.222l-.04-.12h.126a3.134 3.134 0 0 0 1.919-.51c.436-.28.803-.655 1.076-1.096a3.66 3.66 0 0 0 .531-1.175Z"/>
  <path fill="#263238" d="M206.265 95.171c-.04-.18-1.229.113-2.331-.697-1.102-.81-1.282-2.112-1.448-2.078-.166.033-.166.345-.046.883a3.05 3.05 0 0 0 1.149 1.753 2.655 2.655 0 0 0 1.925.504c.512-.08.777-.285.751-.365Z"/>
  <path fill="#455A64" d="m243.09 280.952 4.715 16.062s17.928.597 19.076 3.486l-30.849 10.252-8.38-24.734 15.438-5.066Z"/>
  <path fill="#E0E0E0" d="M237.831 298.853a1.332 1.332 0 0 0-.392 1.727 1.273 1.273 0 0 0 1.707.405 1.4 1.4 0 0 0 .405-1.833 1.331 1.331 0 0 0-1.826-.226"/>
  <path fill="#263238" d="M265.142 299.338s1.573.139 1.739 1.162l-30.849 10.252-.744-2.53 29.827-8.897"/>
  <path fill="#fff" d="M248.249 296.688c.047.153-.664.472-1.261 1.202-.598.73-.764 1.494-.923 1.481-.16-.013-.219-.956.498-1.826.717-.87 1.673-1.003 1.686-.857Zm3.679.259c.086.14-.478.611-.784 1.415-.305.803-.219 1.534-.372 1.573-.152.04-.531-.777-.139-1.773.392-.996 1.248-1.354 1.295-1.215Zm3.128 3.261c-.127.079-.585-.604-.472-1.554.113-.949.704-1.521.81-1.414.106.106-.186.664-.265 1.474-.08.81.073 1.414-.073 1.494Zm-8.287-7.059c0 .16-.777.18-1.607.518-.83.339-1.408.83-1.527.731-.12-.1.338-.85 1.328-1.242.989-.392 1.846-.153 1.806-.007Z"/>
  <path fill="#455A64" d="m171.153 281.091-6.713 15.338s13.339 11.952 12.376 14.927l-30.212-11.952 9.476-24.329 15.073 6.016Z"/>
  <path fill="#E0E0E0" d="M155.615 291.429a1.33 1.33 0 0 0-1.407 1.069 1.279 1.279 0 0 0 1.049 1.408 1.407 1.407 0 0 0 1.487-1.142c0-.664-.604-1.421-1.255-1.328"/>
  <path fill="#263238" d="M176.226 309.351s1.115 1.122.59 1.992l-30.212-11.952 1.056-2.411 28.552 12.351"/>
  <path fill="#fff" d="M164.984 296.469c-.059.146-.823-.08-1.739.106-.917.186-1.547.664-1.66.545-.113-.12.445-.877 1.553-1.082 1.109-.206 1.939.305 1.846.431Zm2.656 2.563c0 .153-.757.153-1.507.578-.751.425-1.149 1.029-1.328.969-.18-.059.093-.936 1.029-1.447.936-.511 1.859-.239 1.806-.1Zm.305 4.503c-.146 0-.059-.837.664-1.494.724-.658 1.514-.711 1.528-.565.013.146-.585.412-1.149.963-.564.551-.89 1.142-1.043 1.096Zm-1.812-10.711c-.113.106-.711-.359-1.567-.664-.857-.305-1.607-.266-1.634-.418-.026-.153.804-.439 1.806-.107 1.003.332 1.514 1.083 1.395 1.189Z"/>
  <path fill="#263238" d="m182.461 196.83-10.585 42.934s-19.09 32.137-22.323 48.22l17.463 6.865s12.702-30.975 16.427-36.659a45.779 45.779 0 0 1 5.751-7.085 11.053 11.053 0 0 0 2.901-5.02l8.015-30.63-17.649-18.625Z"/>
  <path fill="#263238" d="M177.952 189.964s1.474 11.5 12.543 16.6l23.32 37.981s1.826 12.35 5.312 22.755 10.531 30.457 10.531 30.457l19.183-7.171-12.224-41.792-1.992-14.495-19.031-48.472-16.347-9.801-21.295 13.938Z"/>
  <path fill="#455A64" d="m177.952 189.964.352-.239 1.056-.704 4.143-2.736 15.71-10.325.054-.033.053.033 16.361 9.781v.04l19.07 48.425v.033c.631 4.582 1.328 9.489 1.992 14.495 3.32 11.288 6.839 23.367 10.478 35.81l1.753 5.976.046.153-.153.053-19.183 7.171-.166.06-.053-.166c-3.32-9.635-6.533-18.911-9.568-27.709-.764-2.198-1.514-4.376-2.138-6.554a150.892 150.892 0 0 1-1.7-6.48 168.996 168.996 0 0 1-2.457-12.503v.053l-23.187-37.994.04.033a21.664 21.664 0 0 1-7.304-5.565 22.993 22.993 0 0 1-3.585-5.75 23.578 23.578 0 0 1-1.328-3.984c-.113-.451-.18-.803-.219-1.042a3.789 3.789 0 0 1-.047-.359s0 .12.073.352c.073.232.113.584.239 1.043a24.25 24.25 0 0 0 1.368 3.93 23.186 23.186 0 0 0 3.599 5.691 21.68 21.68 0 0 0 7.304 5.498l23.366 37.954v.033a183.93 183.93 0 0 0 2.47 12.477 140.88 140.88 0 0 0 1.7 6.461c.631 2.171 1.374 4.335 2.138 6.533 3.048 8.798 6.255 18.074 9.588 27.702l-.219-.099 19.183-7.171-.106.205c-.576-1.978-1.16-3.97-1.753-5.976l-10.465-35.816c-.664-5.006-1.368-9.913-1.992-14.495v.04l-18.997-48.472.053.06-16.334-9.821h.099l-15.71 10.279-4.183 2.696-1.076.697-.365.226Z"/>
  <path fill="#455A64" d="M188.224 107.913s-5.591 4.303-8.307 9.111c-3.254 5.756-3.605 14.289-3.705 27.542-.1 12.258 1.733 15.664 1.029 20.285-1.388 9.024-2.417 39.309-2.417 39.309s17.928-6.885 21.408-9.96l3.499-3.041 22.436 7.417-4.528-27.569-3.108-34.362-3.984-18.227-.664-7.151-19.269-7.743-2.39 4.389Z"/>
  <path fill="#263238" d="M209.159 110.888c.233.046-.551 1.62-1.932 3.931l-.06.093-.106-.04c-1.945-.757-4.522-1.707-7.337-2.736-3.174-1.155-6.042-2.231-8.094-3.068a62.91 62.91 0 0 1-2.417-1.029 5.4 5.4 0 0 1-.863-.425c.315.071.622.173.916.306l2.45.923 8.127 2.968c2.816 1.029 5.385 1.992 7.304 2.815l-.159.053c1.448-2.264 2.304-3.758 2.171-3.791Z"/>
  <path fill="#FFBF9D" d="M232.347 96.572s-1.421-2.21-2.763-4.25c-1.341-2.038-3.373-3.04-3.698-4.103-.325-1.062-2.112-5.796-2.397-6.972a15.123 15.123 0 0 1-.345-3.466s1.467-.624 2.171 1.474c.425 1.262 1.779 5.545 2.072 5.757.292.213.664-.1.664-.1a50.222 50.222 0 0 1-1.561-4.893c-.066-.777.206-5.93.206-5.93a1.553 1.553 0 0 1 1.766.99c.697 1.328.724 4.648.724 4.648l1.056 3.705-.372-3.666.531-6.74a2.536 2.536 0 0 1 2.125 1.993c.445 1.82-.146 4.356.153 4.893.298.538.624 3.792.624 3.792s.365-7.902 1.208-8.127c.844-.226 1.534.61 1.415 2.204-.12 1.594-.153 4.967.285 6.454.438 1.487 4.934 7.304 4.568 9.854a43.067 43.067 0 0 0-.418 4.648h-7.702l-.312-2.165Z"/>
  <path fill="#FFBF9D" d="M205.329 116.472c.431.166 18.831 4.721 18.831 4.721s4.11-6.64 4.714-8.565c.604-1.926 3.838-14.754 3.838-14.754l7.775-.73s-1.992 33.126-4.807 34.912c-2.815 1.786-7.304 2.689-7.596 2.59-.292-.1-19.887 1.261-30.212-6.873s7.457-11.301 7.457-11.301Z"/>
  <path fill="#000" d="M192.142 134.008a14.054 14.054 0 0 0 7.523 4.423c4.88 1.075 15.272 2.981 15.272 2.981l-.505-5.1-22.576-2.416" opacity=".3"/>
  <path fill="#455A64" d="M183.947 126.997c1.674 3.532 5.392 7.304 13.566 8.16 16.181 1.673 28.432 2.563 33.724 1.766 5.292-.796 7.397-11.998 7.968-12.343 1.647-1.036 1.541-4.595.12-5.658-4.037-3.021-12.131-5.312-12.676-5.066-3.22 1.6-2.171 5.345-2.171 5.345l-20.518-4.528a34.51 34.51 0 0 0-7.35-2.138"/>
  <path fill="#263238" d="M196.61 112.535s.173 0 .505.066c.332.067.83.146 1.467.286A34.23 34.23 0 0 1 204 114.6l20.505 4.462-.173.186a5.52 5.52 0 0 1 .266-3.539 3.914 3.914 0 0 1 1.155-1.461c.252-.196.521-.37.804-.518.097-.029.197-.044.298-.046h.246c.166 0 .312.053.471.079a41.215 41.215 0 0 1 7.351 2.49 27.53 27.53 0 0 1 3.605 1.899c.286.186.571.392.857.591.295.225.536.513.704.844a4.7 4.7 0 0 1 .491 2.098 4.504 4.504 0 0 1-.478 2.125 2.52 2.52 0 0 1-.757.856c-.08.04-.133.213-.199.372l-.173.498c-.438 1.328-.876 2.749-1.407 4.117a18.67 18.67 0 0 1-3.015 5.418 5.306 5.306 0 0 1-3.984 2.085c-.498.073-.996.086-1.487.126-1.992.12-3.905.093-5.797.04a159.473 159.473 0 0 1-5.544-.266c-7.218-.464-13.692-1.122-19.124-1.686a34.974 34.974 0 0 1-3.864-.558 20.567 20.567 0 0 1-3.32-1.009 14.659 14.659 0 0 1-4.708-2.962 12.557 12.557 0 0 1-2.178-2.769 7.844 7.844 0 0 1-.551-1.095s.186.378.611 1.062a13.176 13.176 0 0 0 2.211 2.703 14.499 14.499 0 0 0 4.688 2.881c1.078.416 2.188.743 3.32.977 1.273.244 2.559.419 3.851.524 5.432.538 11.906 1.169 19.11 1.62 1.806.107 3.652.199 5.538.246 1.886.046 3.818.073 5.77-.04.485-.046.983-.06 1.467-.133a5.295 5.295 0 0 0 1.421-.272 5.676 5.676 0 0 0 2.351-1.7 18.292 18.292 0 0 0 2.948-5.312c.531-1.328.963-2.729 1.401-4.097l.186-.518c0-.079.066-.166.106-.259a.938.938 0 0 1 .087-.146.5.5 0 0 1 .086-.086l.046-.04c.276-.191.503-.443.664-.737a4.132 4.132 0 0 0 .439-1.992 4.4 4.4 0 0 0-.445-1.939 2.176 2.176 0 0 0-.604-.73c-.286-.193-.558-.398-.844-.578a26.39 26.39 0 0 0-3.559-1.879 40.733 40.733 0 0 0-7.271-2.483c-.152 0-.305-.067-.451-.08h-.365a5.08 5.08 0 0 0-.744.485 3.58 3.58 0 0 0-1.082 1.328 5.31 5.31 0 0 0-.259 3.32l.06.232-.233-.053-20.471-4.582a36.383 36.383 0 0 0-5.365-1.779c-.664-.153-1.122-.259-1.454-.325-.332-.067-.598-.06-.598-.06Z"/>
  <path fill="#263238" d="M231.238 125.609a4.332 4.332 0 0 1-1.328-.578 13.122 13.122 0 0 1-2.789-2.085 13.948 13.948 0 0 1-2.178-2.722 4.822 4.822 0 0 1-.631-1.328 29.512 29.512 0 0 0 3.048 3.778 27.186 27.186 0 0 0 3.878 2.935Z"/>
  <path fill="#FFBF9D" d="M86.778 180.296s4.117.219 6.64 1.819c2.524 1.6 6.64 4.071 8.334 7.152.777 1.414-1.435 1.713-2.523.889-1.09-.823-2.77-2.364-3.6-2.556l-.83-.186a54.563 54.563 0 0 0 2.53 5.013c.857 1.328 1.6 3.533-.969 3.639 0 0-1.74 2.258-3.493.584 0 0-1.368 2.045-3.572-.79 0 0-1.282 1.62-1.82 1.003-.537-.618-2.29-1.607-2.801-3.639a70.985 70.985 0 0 0-2.656-6.965l4.76-5.963Z"/>
  <path fill="#455A64" d="M51.745 126.16a9.905 9.905 0 0 0-5.172 3.885c-1.58 2.43-2.066 6.64-1.614 9.774.956 6.606 3.984 17.755 5.69 24.913.585 2.47 1.787 6.892 5.313 9.236l25.158 15.086 6.727-9.96-22.935-18.691-4.535-25.617-8.632-8.626Z"/>
  <path fill="#263238" d="M47.397 151.339c.034.084.06.17.08.259l.212.777c.179.704.431 1.713.763 3.008l2.782 11.122a13.02 13.02 0 0 0 4.144 6.56 24.897 24.897 0 0 0 3.678 2.444l4.044 2.443 18.12 10.943-.232.053 2.424-3.592 4.303-6.395.033.233-22.729-18.718h-.04v-.047c-1.5-6.315-2.59-11.487-3.28-15.086a155.53 155.53 0 0 1-.73-4.157c-.067-.464-.12-.83-.16-1.089a4.574 4.574 0 0 1-.046-.371c.036.119.065.241.086.365.047.259.113.617.193 1.082.179.95.438 2.351.81 4.143.724 3.586 1.852 8.745 3.386 15.053l-.046-.073 22.768 18.632.12.1-.087.126-4.302 6.394-2.424 3.592-.086.133-.146-.079-18.094-10.976-4.037-2.45a25.466 25.466 0 0 1-3.706-2.464 13.191 13.191 0 0 1-4.19-6.713 1417.604 1417.604 0 0 1-2.655-11.149c-.3-1.328-.538-2.317-.704-3.021l-.193-.816a1.944 1.944 0 0 1-.06-.266Zm.411-21.64a1.57 1.57 0 0 1 .51-.219c.483-.149.976-.26 1.475-.332a8.732 8.732 0 0 1 4.907.664 9.79 9.79 0 0 1 3.665 3.32c.278.424.502.881.664 1.361.071.171.112.353.12.538a13.963 13.963 0 0 0-.99-1.76 10.408 10.408 0 0 0-3.612-3.127 9.166 9.166 0 0 0-4.727-.731c-1.242.1-1.992.346-2.012.286Z"/>
</svg>
