<svg xmlns="http://www.w3.org/2000/svg" width="976" height="628" fill="none" viewBox="0 0 976 628">
  <path fill="#E7E8E5" d="m603.436 312.325-163.821-1.516-49.646-.23-13.498.03-3.511.046c-.791.018-1.196.04-1.196.064 0 .022.405.048 1.196.073l3.509.081c3.132.038 7.67.094 13.498.163 11.766.061 28.713.151 49.645.259l163.829.101c63.94-.007 121.843.075 163.76.372 20.959.145 37.92.337 49.643.555 5.86.108 10.411.222 13.497.337 3.086.116 4.706.231 4.706.343-.002.11-1.623.21-4.71.296-3.086.084-7.638.153-13.5.204-11.724.101-28.688.126-49.645.064-41.917-.115-99.819-.606-163.756-1.242Z"/>
  <path fill="#E7E8E5" d="M602.161 326.203 440.579 300.22c-20.663-3.223-37.391-5.831-49.007-7.641-5.761-.858-10.244-1.523-13.34-1.983l-3.476-.477c-.784-.099-1.188-.138-1.192-.114-.004.024.392.11 1.168.255l3.455.607 13.306 2.182 49 7.675c41.45 6.292 98.634 14.971 161.824 24.56 63.166 9.54 120.354 18.264 161.712 24.82 20.68 3.275 37.406 5.999 48.95 7.967 5.772.982 10.249 1.777 13.278 2.354 3.03.576 4.611.935 4.592 1.047-.018.111-1.637-.031-4.7-.407-3.064-.376-7.57-.985-13.37-1.81-11.598-1.648-28.36-4.156-49.054-7.35-41.389-6.376-98.506-15.515-161.564-25.702Z"/>
  <path fill="#E7E8E5" d="M598.64 339.717c-60.645-19.576-115.527-37.29-155.308-50.13l-47.143-14.964c-5.549-1.718-9.868-3.054-12.85-3.976l-3.354-.996c-.758-.216-1.152-.316-1.16-.292-.008.024.37.169 1.112.429l3.312 1.124 12.782 4.171c11.172 3.554 27.258 8.674 47.132 14.998l155.784 48.748c60.816 18.979 115.86 36.25 155.63 48.987 19.887 6.364 35.955 11.588 47.032 15.281 5.539 1.846 9.83 3.308 12.727 4.338 2.896 1.028 4.399 1.622 4.361 1.73-.037.11-1.612-.276-4.576-1.109-2.964-.835-7.316-2.117-12.908-3.809-11.184-3.383-27.325-8.396-47.238-14.683-39.83-12.561-94.735-30.236-155.335-49.847Z"/>
  <path fill="#E7E8E5" d="M592.955 352.514 447.78 279.526l-44.106-21.909-12.036-5.872-3.151-1.492c-.712-.329-1.084-.487-1.096-.465-.011.021.337.221 1.028.592.733.381 1.757.914 3.087 1.608 2.77 1.402 6.784 3.437 11.941 6.05l44.091 21.942 145.858 71.716c56.95 27.948 108.48 53.334 145.67 71.926 18.597 9.294 33.612 16.88 43.948 22.202 5.168 2.66 9.166 4.752 11.859 6.204 2.694 1.453 4.08 2.265 4.027 2.365-.053.1-1.544-.519-4.334-1.792-2.79-1.273-6.876-3.203-12.122-5.719-10.489-5.036-25.608-12.43-44.245-21.65-37.276-18.432-88.607-44.188-145.244-72.718Z"/>
  <path fill="#E7E8E5" d="m585.251 364.302-131.524-93.907a825077.888 825077.888 0 0 1-40-28.269c-4.723-3.287-8.398-5.843-10.935-7.61l-2.868-1.946c-.651-.432-.992-.644-1.007-.624-.014.018.298.269.919.737l2.788 2.053 10.812 7.77 39.98 28.297c33.915 23.756 80.704 56.532 132.406 92.752 51.706 36.161 98.475 68.98 132.185 92.933 16.856 11.972 30.453 21.724 39.796 28.532 4.672 3.404 8.281 6.072 10.705 7.912 2.423 1.84 3.662 2.85 3.592 2.941-.069.09-1.441-.745-3.991-2.422-2.548-1.676-6.27-4.193-11.042-7.468-9.541-6.549-23.272-16.125-40.181-28.032-33.82-23.805-80.334-56.959-131.635-93.649Z"/>
  <path fill="#E7E8E5" d="M575.729 374.788c-44.801-43.901-85.342-83.631-114.73-112.429l-34.94-33.906-9.57-9.153c-1.085-1.012-1.92-1.793-2.518-2.352-.572-.524-.875-.784-.892-.767-.019.016.249.31.788.867l2.422 2.443 9.423 9.292 34.916 33.93 115.788 111.422c45.225 43.454 86.115 82.865 115.539 111.568 14.714 14.349 26.568 26.013 34.697 34.136 4.064 4.06 7.199 7.236 9.295 9.414 2.096 2.18 3.156 3.364 3.073 3.443-.083.08-1.304-.951-3.551-2.988-2.245-2.039-5.516-5.083-9.698-9.031-8.367-7.896-20.382-19.408-35.158-33.697-29.557-28.575-70.141-68.279-114.884-112.192Z"/>
  <path fill="#E7E8E5" d="M564.631 383.721c-37.154-50.065-70.772-95.373-95.143-128.216l-29.029-38.718c-3.444-4.522-6.124-8.04-7.974-10.471a2246.74 2246.74 0 0 0-2.106-2.7c-.482-.604-.738-.905-.759-.892-.02.015.197.344.64.975l1.996 2.776 7.804 10.588 29.003 38.738 96.35 127.379c37.647 49.687 71.663 94.733 96.084 127.485 12.215 16.375 22.036 29.67 28.751 38.91 3.359 4.62 5.941 8.224 7.66 10.692 1.717 2.465 2.572 3.793 2.477 3.858-.093.067-1.133-1.133-3.024-3.483-1.889-2.347-4.626-5.843-8.12-10.369-6.988-9.051-16.993-22.22-29.277-38.545-24.576-32.645-58.24-77.936-95.333-128.007Z"/>
  <path fill="#E7E8E5" d="m552.219 390.884-73.115-140.943-22.377-42.605-6.174-11.54c-.706-1.286-1.252-2.275-1.641-2.984-.379-.668-.583-1.006-.605-.994-.023.011.137.37.472 1.059l1.52 3.043 5.984 11.63 22.344 42.622c19.07 35.936 45.381 85.51 74.456 140.293 29.102 54.735 55.376 104.338 74.169 140.36 9.401 18.007 16.94 32.617 22.069 42.752 2.566 5.067 4.53 9.016 5.824 11.711 1.296 2.694 1.924 4.136 1.82 4.186-.105.051-.938-1.292-2.422-3.895-1.484-2.602-3.622-6.467-6.336-11.462-5.43-9.99-13.172-24.5-22.65-42.471-18.964-35.938-44.846-85.733-73.338-140.762Z"/>
  <path fill="#E7E8E5" d="m538.791 396.085-49.136-150.248-15.127-45.458-4.208-12.33c-.488-1.376-.864-2.436-1.135-3.194-.262-.718-.41-1.08-.434-1.074-.024.008.074.386.293 1.118l1.001 3.234 4.007 12.392 15.089 45.471 50.57 149.807c19.785 58.453 37.614 111.413 50.28 149.828 6.337 19.205 11.39 34.773 14.797 45.558 1.703 5.392 2.996 9.588 3.833 12.445.839 2.859 1.223 4.377 1.11 4.411-.112.034-.714-1.417-1.755-4.212-1.04-2.794-2.517-6.936-4.383-12.278-3.728-10.686-8.997-26.186-15.416-45.367-12.846-38.359-30.257-91.448-49.386-150.103Z"/>
  <path fill="#E7E8E5" d="M524.675 399.19a9219810.09 9219810.09 0 0 1-23.938-155.808c-3.16-19.894-5.718-35.998-7.496-47.182-.924-5.533-1.642-9.84-2.137-12.812l-.597-3.326c-.143-.748-.228-1.13-.254-1.126-.024.003.012.392.108 1.147l.462 3.345c.446 2.982 1.094 7.298 1.928 12.844 1.769 11.184 4.316 27.291 7.46 47.187l25.42 155.591c9.968 60.718 18.905 115.716 25.126 155.568 3.114 19.925 5.556 36.062 7.158 47.228.798 5.584 1.389 9.924 1.749 12.872.361 2.948.491 4.504.375 4.521-.115.017-.472-1.507-1.042-4.424-.569-2.919-1.35-7.23-2.316-12.788-1.932-11.117-4.598-27.221-7.8-47.135-6.408-39.825-14.913-94.885-24.206-155.702Z"/>
  <path fill="#E7E8E5" d="m510.224 400.133 1.475-157.492.21-47.727-.041-12.977c-.02-1.454-.037-2.573-.049-3.375-.019-.76-.042-1.149-.067-1.149-.023-.002-.049.389-.076 1.148l-.083 3.375c-.036 3.01-.09 7.371-.161 12.975l-.237 47.727-.004 157.499c.046 61.471-.003 117.136-.287 157.432-.139 20.149-.327 36.456-.545 47.724-.108 5.636-.226 10.01-.343 12.977-.119 2.966-.239 4.524-.353 4.523-.116 0-.222-1.559-.311-4.526-.091-2.967-.165-7.343-.221-12.979-.112-11.271-.15-27.578-.099-47.727.096-40.298.568-95.961 1.192-157.428Z"/>
  <path fill="#E7E8E5" d="m495.789 398.917 26.924-155.357 7.919-47.118 2.053-12.825.494-3.341c.102-.755.141-1.143.118-1.147-.026-.004-.114.376-.266 1.124-.148.789-.358 1.891-.628 3.321-.524 2.968-1.284 7.267-2.262 12.792l-7.953 47.112-25.445 155.587c-9.882 60.731-18.922 115.713-25.715 155.48-3.392 19.883-6.216 35.963-8.256 47.063-1.02 5.549-1.843 9.853-2.44 12.766-.599 2.912-.971 4.432-1.087 4.415-.116-.017.031-1.574.42-4.519.39-2.945 1.02-7.278 1.874-12.854 1.709-11.151 4.306-27.267 7.614-47.163 6.607-39.795 16.076-94.711 26.636-155.336Z"/>
  <path fill="#E7E8E5" d="m481.728 395.54 52.047-149.339 15.536-45.33 4.127-12.356c.445-1.388.789-2.459 1.033-3.226.225-.729.329-1.106.304-1.114-.024-.008-.176.354-.445 1.069-.279.757-.664 1.813-1.167 3.184l-4.331 12.291-15.572 45.318c-12.962 38.37-30.846 91.303-50.608 149.795-19.704 58.48-37.633 111.408-50.857 149.649-6.607 19.122-12.031 34.574-15.865 45.224-1.916 5.327-3.436 9.452-4.504 12.236-1.068 2.787-1.686 4.231-1.799 4.196-.112-.034.285-1.55 1.151-4.4.866-2.849 2.198-7.034 3.954-12.41 3.512-10.755 8.718-26.275 15.243-45.423 13.043-38.299 31.392-91.093 51.753-149.364Z"/>
  <path fill="#E7E8E5" d="m468.412 390.082 75.831-139.612c9.597-17.884 17.367-32.362 22.763-42.414 2.633-5 4.685-8.891 6.1-11.576l1.549-3.03c.343-.685.505-1.042.483-1.053-.022-.01-.228.324-.612.988l-1.672 2.969-6.286 11.483-22.797 42.4c-19.083 35.928-45.413 85.495-74.507 140.267-29.036 54.768-55.409 104.324-74.726 140.088-9.655 17.884-17.538 32.323-23.066 42.263-2.762 4.97-4.937 8.814-6.446 11.405-1.51 2.589-2.354 3.924-2.458 3.873-.102-.052.539-1.487 1.862-4.169 1.324-2.683 3.326-6.612 5.941-11.656 5.231-10.088 12.913-24.627 22.492-42.548 19.149-35.848 45.909-85.211 75.549-139.678Z"/>
  <path fill="#E7E8E5" d="M456.147 382.682c38.11-49.396 72.6-94.096 97.6-126.498l29.38-38.473c3.414-4.543 6.072-8.076 7.908-10.517.872-1.188 1.542-2.103 2.024-2.758.449-.626.669-.954.648-.969-.019-.013-.28.285-.767.885l-2.133 2.682a26586.99 26586.99 0 0 0-8.075 10.397c-6.972 9.115-17.009 22.24-29.411 38.453-24.689 32.619-58.754 77.62-96.396 127.347-37.584 49.732-71.692 94.713-96.586 127.136-12.444 16.212-22.579 29.291-29.655 38.276-3.539 4.493-6.311 7.965-8.223 10.296-1.912 2.332-2.964 3.522-3.057 3.456-.095-.067.773-1.388 2.516-3.837 1.743-2.451 4.359-6.034 7.763-10.622 6.805-9.177 16.757-22.385 29.132-38.646 24.742-32.528 59.2-77.266 97.332-126.608Z"/>
  <path fill="#E7E8E5" d="m445.232 373.536 116.877-110.367c14.863-14.172 26.894-25.644 35.248-33.612l9.514-9.205 2.445-2.421c.544-.552.816-.843.797-.86-.017-.018-.321.24-.9.76l-2.54 2.329-9.66 9.064c-8.36 7.963-20.4 19.427-35.27 33.589-29.67 28.53-70.602 67.89-115.83 111.383-45.173 43.505-86.144 82.839-115.981 111.143-14.916 14.156-27.043 25.557-35.487 33.378-4.221 3.91-7.521 6.924-9.788 8.942-2.265 2.016-3.496 3.036-3.578 2.956-.083-.079.989-1.254 3.108-3.414 2.117-2.161 5.282-5.308 9.386-9.33 8.207-8.048 20.176-19.606 35.031-33.82 29.704-28.435 70.979-67.474 116.628-110.515Z"/>
  <path fill="#E7E8E5" d="m435.932 362.872 133.312-91.547c16.973-11.776 30.715-21.31 40.256-27.932 4.701-3.313 8.361-5.89 10.887-7.672 1.209-.872 2.141-1.544 2.806-2.026.628-.463.943-.71.928-.73-.014-.02-.357.19-1.013.615-.687.457-1.643 1.095-2.887 1.921l-11.008 7.51-40.277 27.905c-33.923 23.747-80.723 56.508-132.439 92.708-51.661 36.223-98.497 68.952-132.55 92.451-17.026 11.752-30.848 21.202-40.455 27.665-4.804 3.231-8.551 5.715-11.116 7.368-2.565 1.655-3.945 2.476-4.013 2.385-.07-.09 1.178-1.092 3.62-2.908 2.441-1.817 6.077-4.453 10.782-7.813 9.411-6.724 23.102-16.351 40.076-28.171 33.943-23.646 81.032-56.038 133.091-91.729Z"/>
  <path fill="#E7E8E5" d="m428.475 350.944 146.561-70.379 44.305-21.539c5.183-2.566 9.216-4.562 12-5.942l3.102-1.58c.696-.363 1.045-.562 1.033-.583-.009-.021-.384.132-1.1.455l-3.164 1.462-12.095 5.763c-10.505 5.097-25.633 12.437-44.32 21.507l-145.886 71.665c-56.915 28.012-108.498 53.303-145.954 71.393-18.726 9.05-33.917 16.306-44.457 21.243-5.269 2.469-9.376 4.36-12.179 5.607-2.801 1.246-4.3 1.852-4.352 1.75-.053-.101 1.342-.901 4.048-2.329 2.707-1.429 6.727-3.487 11.92-6.099 10.388-5.228 25.476-12.677 44.163-21.801 37.372-18.255 89.151-43.168 146.375-70.593Z"/>
  <path fill="#E7E8E5" d="M423.056 338.038c61.016-18.484 116.233-35.209 156.256-47.333 19.935-6.143 36.071-11.116 47.276-14.571 5.539-1.749 9.848-3.112 12.824-4.053l3.321-1.092c.746-.253 1.123-.396 1.116-.419-.008-.024-.401.072-1.161.283l-3.364.965-12.888 3.859-47.289 14.535-155.796 48.71c-60.79 19.058-115.868 36.232-155.819 48.432-19.973 6.103-36.164 10.972-47.38 14.252-5.608 1.643-9.972 2.888-12.944 3.695-2.972.808-4.549 1.177-4.585 1.071-.038-.108 1.472-.69 4.38-1.691 2.905-1.003 7.21-2.425 12.768-4.22 11.112-3.591 27.233-8.668 47.18-14.851 39.893-12.374 95.105-29.145 156.105-47.572Z"/>
  <path fill="#E7E8E5" d="m419.819 324.47 162.054-23.11 49.074-7.237 13.326-2.063 3.46-.574c.779-.139 1.175-.22 1.171-.244-.004-.024-.408.01-1.193.102l-3.48.446-13.359 1.862-49.079 7.203c-41.45 6.283-98.636 14.952-161.828 24.533-63.153 9.622-120.356 18.25-161.805 24.255-20.724 3.007-37.509 5.364-49.123 6.909-5.808.774-10.321 1.342-13.388 1.691-3.066.348-4.685.476-4.704.364-.017-.111 1.568-.456 4.603-1.004 3.035-.549 7.519-1.304 13.3-2.236 11.563-1.865 28.313-4.439 49.024-7.528 41.421-6.185 98.691-14.397 161.947-23.369Z"/>
  <path fill="#E7E8E5" d="m418.828 310.578 163.823 1.32 49.646.172 13.498-.046 3.51-.051c.791-.019 1.196-.04 1.196-.064s-.405-.048-1.196-.073l-3.509-.076-13.497-.148-49.647-.199-163.827.095c-63.941.082-121.845.07-163.762-.178-20.958-.12-37.92-.292-49.643-.494-5.861-.102-10.412-.211-13.497-.322-3.087-.112-4.706-.226-4.706-.337 0-.111 1.622-.213 4.707-.301 3.088-.088 7.639-.163 13.501-.22 11.724-.116 28.687-.162 49.646-.124 41.918.065 99.82.486 163.757 1.046Z"/>
  <path fill="#E7E8E5" d="m420.084 296.7 161.617 25.787 49.018 7.58 13.342 1.966 3.476.472c.784.099 1.188.138 1.192.112.004-.022-.392-.109-1.168-.252-.821-.144-1.968-.344-3.456-.602l-13.308-2.166-49.01-7.616-161.856-24.364c-63.18-9.461-120.378-18.116-161.746-24.621-20.685-3.249-37.413-5.953-48.96-7.908-5.773-.977-10.252-1.765-13.281-2.339-3.031-.572-4.612-.928-4.593-1.04.018-.11 1.637.028 4.7.4 3.064.372 7.573.978 13.373 1.795 11.6 1.635 28.364 4.123 49.064 7.289 41.397 6.327 98.525 15.395 161.596 25.507Z"/>
  <path fill="#E7E8E5" d="m423.588 283.181 155.375 49.939 47.162 14.908c5.552 1.709 9.871 3.04 12.855 3.96l3.356.99c.759.216 1.151.315 1.16.292.008-.024-.369-.169-1.113-.429-.788-.267-1.886-.636-3.312-1.119l-12.788-4.156a916952.72 916952.72 0 0 1-47.151-14.941l-155.848-48.556c-60.843-18.904-115.911-36.108-155.697-48.796-19.894-6.34-35.97-11.544-47.052-15.223-5.54-1.84-9.834-3.297-12.731-4.322-2.899-1.026-4.403-1.619-4.365-1.727.037-.108 1.613.275 4.577 1.104 2.965.831 7.319 2.109 12.913 3.793 11.188 3.37 27.336 8.364 47.259 14.624 39.844 12.514 94.775 30.122 155.4 49.659Z"/>
  <path fill="#E7E8E5" d="M429.256 270.376c56.727 28.432 108.061 54.162 145.272 72.811l44.135 21.857c5.201 2.53 9.25 4.498 12.044 5.856l3.152 1.488c.714.33 1.085.487 1.097.464.012-.021-.337-.221-1.031-.589l-3.088-1.604c-2.772-1.401-6.788-3.431-11.949-6.037l-44.119-21.888c-37.382-18.323-88.96-43.603-145.952-71.539-56.986-27.877-108.55-53.201-145.765-71.749-18.609-9.27-33.635-16.839-43.977-22.147-5.171-2.653-9.172-4.741-11.867-6.191-2.696-1.449-4.084-2.26-4.031-2.36.054-.1 1.546.518 4.338 1.788 2.79 1.27 6.88 3.192 12.128 5.704 10.496 5.022 25.625 12.398 44.273 21.595 37.3 18.387 88.665 44.081 145.34 72.541Z"/>
  <path fill="#E7E8E5" d="m436.947 258.58 131.644 93.748a223673.37 223673.37 0 0 1 40.038 28.221c4.728 3.279 8.404 5.833 10.944 7.595l2.871 1.944c.651.43.992.642 1.008.624.015-.02-.299-.27-.921-.738l-2.79-2.049-10.822-7.757-40.016-28.248-132.528-92.592c-51.754-36.1-98.566-68.86-132.306-92.774-16.873-11.952-30.482-21.688-39.834-28.484-4.676-3.398-8.29-6.062-10.715-7.898-2.427-1.838-3.665-2.847-3.597-2.938.07-.09 1.444.743 3.994 2.416 2.551 1.675 6.278 4.188 11.054 7.458 9.55 6.536 23.293 16.094 40.217 27.981 33.852 23.765 80.408 56.863 131.759 93.491Z"/>
  <path fill="#E7E8E5" d="M446.453 248.081c44.858 43.848 85.453 83.528 114.876 112.291 14.753 14.279 26.694 25.839 34.984 33.864l9.583 9.141 2.521 2.35c.574.524.876.782.894.766.017-.017-.25-.31-.79-.866l-2.426-2.44c-2.188-2.154-5.359-5.272-9.435-9.28l-34.96-33.888-115.932-111.283c-45.283-43.4-86.224-82.763-115.685-111.429-14.733-14.33-26.603-25.982-34.742-34.094-4.069-4.055-7.208-7.226-9.308-9.404-2.098-2.177-3.16-3.36-3.077-3.438.083-.079 1.305.95 3.553 2.985 2.25 2.034 5.524 5.075 9.712 9.017 8.378 7.886 20.407 19.384 35.202 33.656 29.594 28.538 70.23 68.194 115.03 112.052Z"/>
  <path fill="#E7E8E5" d="m457.54 239.133 95.31 128.102 29.079 38.684c3.451 4.518 6.135 8.033 7.987 10.462l2.112 2.698c.481.602.738.904.758.89.02-.014-.197-.344-.64-.973-.476-.66-1.138-1.58-2.001-2.773-1.813-2.456-4.441-6.011-7.817-10.58l-29.052-38.703-96.52-127.263c-37.71-49.641-71.786-94.646-96.25-127.369-12.234-16.36-22.074-29.643-28.802-38.875-3.364-4.614-5.951-8.216-7.672-10.681-1.722-2.464-2.578-3.792-2.483-3.857.095-.066 1.136 1.133 3.028 3.48 1.892 2.345 4.635 5.838 8.135 10.36 6.998 9.042 17.021 22.198 29.328 38.509 24.617 32.616 58.341 77.865 95.5 127.889Z"/>
  <path fill="#E7E8E5" d="M469.941 231.958c28.624 55.001 54.528 104.774 73.303 140.853 9.457 17.953 17.115 32.487 22.432 42.579l6.188 11.532 1.647 2.981c.378.668.582 1.005.606.993.022-.009-.138-.368-.474-1.057l-1.523-3.041c-1.393-2.696-3.411-6.603-6.001-11.624l-22.4-42.594-74.639-140.202c-29.175-54.699-55.513-104.272-74.356-140.27-9.424-17.996-16.981-32.596-22.125-42.725-2.572-5.064-4.54-9.01-5.839-11.704-1.299-2.694-1.929-4.132-1.824-4.184.104-.05.939 1.29 2.425 3.892 1.488 2.601 3.631 6.462 6.352 11.455 5.443 9.982 13.203 24.484 22.706 42.442 19.01 35.916 44.958 85.679 73.522 140.674Z"/>
  <path fill="#E7E8E5" d="m483.362 226.74 49.336 150.186 15.186 45.442 4.225 12.324 1.139 3.193c.264.717.412 1.08.437 1.072.023-.008-.076-.385-.295-1.116-.24-.769-.574-1.841-1.006-3.233l-4.023-12.388-15.151-45.451c-13.002-38.356-30.942-91.272-50.766-149.745-19.863-58.43-37.763-111.368-50.479-149.767-6.361-19.199-11.436-34.759-14.856-45.54-1.711-5.39-3.009-9.585-3.851-12.443-.841-2.856-1.228-4.373-1.116-4.406.112-.036.718 1.414 1.76 4.209 1.044 2.793 2.528 6.93 4.399 12.272 3.743 10.681 9.033 26.176 15.477 45.35 12.898 38.342 30.378 91.41 49.584 150.041Z"/>
  <path fill="#E7E8E5" d="M497.476 223.619c9.428 60.829 17.957 115.879 24.141 155.777l7.559 47.172 2.153 12.812.601 3.326c.144.746.231 1.128.256 1.125.024-.003-.013-.392-.109-1.148l-.465-3.345-1.947-12.84-7.522-47.178-25.622-155.56c-10.051-60.705-19.06-115.693-25.333-155.537-3.14-19.921-5.604-36.057-7.219-47.22-.806-5.583-1.402-9.921-1.766-12.87-.366-2.947-.498-4.503-.382-4.52.116-.018.475 1.505 1.048 4.422.574 2.917 1.36 7.228 2.334 12.785 1.946 11.115 4.634 27.216 7.861 47.126 6.46 39.816 15.039 94.868 24.412 155.673Z"/>
  <path fill="#E7E8E5" d="m511.923 222.657-1.27 157.494-.146 47.728c.024 5.604.042 9.964.056 12.976l.054 3.374c.022.762.044 1.151.068 1.151.024 0 .05-.389.075-1.151.019-.801.045-1.92.077-3.373l.145-12.976.177-47.728-.202-157.497c-.126-61.471-.15-117.135.08-157.434.111-20.15.279-36.456.484-47.725.102-5.633.213-10.01.326-12.976.115-2.967.232-4.524.348-4.524.114 0 .223 1.559.316 4.527.093 2.966.175 7.342.239 12.978.126 11.27.184 27.578.16 47.727-.043 40.299-.443 95.961-.987 157.429Z"/>
  <path fill="#E7E8E5" d="m526.361 223.856-26.72 155.389c-3.31 19.871-5.992 35.958-7.853 47.127l-2.037 12.829-.488 3.343c-.102.753-.142 1.141-.118 1.145.026.004.115-.376.264-1.124l.624-3.321c.522-2.968 1.275-7.269 2.244-12.796l7.891-47.121 25.239-155.618c9.8-60.744 18.765-115.737 25.506-155.51 3.367-19.888 6.17-35.972 8.194-47.073 1.012-5.551 1.829-9.857 2.422-12.77.595-2.915.964-4.435 1.08-4.417.116.017-.028 1.573-.413 4.52-.385 2.945-1.009 7.28-1.857 12.856-1.694 11.153-4.27 27.272-7.551 47.172-6.553 39.802-15.951 94.73-26.427 155.369Z"/>
  <path fill="#E7E8E5" d="M540.424 227.216c-20.244 58.339-38.564 111.133-51.846 149.403l-15.474 45.35c-1.775 5.338-3.158 9.491-4.111 12.362-.443 1.388-.785 2.457-1.029 3.226-.224.728-.327 1.107-.303 1.114.025.008.176-.354.445-1.07.278-.757.662-1.813 1.162-3.185 1.001-2.855 2.452-6.985 4.314-12.296l15.512-45.34 50.407-149.856c19.624-58.504 37.484-111.455 50.656-149.71 6.583-19.131 11.984-34.588 15.805-45.245 1.908-5.328 3.423-9.457 4.487-12.244 1.065-2.786 1.681-4.232 1.793-4.196.114.037-.284 1.551-1.145 4.402-.861 2.85-2.188 7.037-3.937 12.416-3.498 10.758-8.683 26.285-15.182 45.441-12.99 38.315-31.27 91.132-51.554 149.428Z"/>
  <path fill="#E7E8E5" d="M553.748 232.657c-29.537 54.554-56.268 103.92-75.643 139.704l-22.706 42.444-6.086 11.583-1.545 3.031c-.341.686-.505 1.044-.483 1.054.023.012.231-.324.614-.989l1.666-2.971c1.456-2.666 3.563-6.528 6.271-11.492l22.74-42.426 74.32-140.36c28.963-54.803 55.271-104.391 74.539-140.179 9.632-17.896 17.496-32.344 23.01-42.29 2.755-4.974 4.924-8.822 6.431-11.415 1.505-2.591 2.349-3.926 2.452-3.875.104.05-.537 1.487-1.856 4.17-1.32 2.685-3.317 6.618-5.925 11.665-5.218 10.093-12.88 24.641-22.435 42.576-19.101 35.87-45.796 85.266-75.364 139.77Z"/>
  <path fill="#E7E8E5" d="M566.025 240.043 468.592 366.66l-29.329 38.508-7.895 10.528-2.02 2.76c-.448.627-.667.955-.647.969.019.014.279-.286.766-.885l2.129-2.684 8.063-10.409 29.357-38.488 96.229-127.466c37.518-49.776 71.566-94.801 96.418-127.252 12.424-16.229 22.54-29.318 29.604-38.313 3.532-4.499 6.301-7.973 8.209-10.307 1.909-2.333 2.959-3.525 3.052-3.458.095.065-.772 1.388-2.509 3.84-1.74 2.453-4.352 6.038-7.75 10.63-6.794 9.187-16.728 22.404-29.081 38.682-24.7 32.56-59.097 77.338-97.163 126.728Z"/>
  <path fill="#E7E8E5" d="M576.949 249.175 460.22 359.684l-35.204 33.653c-4.104 3.983-7.296 7.08-9.502 9.218l-2.442 2.425c-.544.552-.815.844-.796.86.017.017.321-.24.898-.76l2.539-2.333c2.237-2.106 5.48-5.155 9.647-9.076 8.349-7.971 20.373-19.452 35.226-33.631 29.632-28.565 70.51-67.976 115.683-111.524 45.115-43.56 86.035-82.944 115.833-111.285 14.898-14.172 27.01-25.591 35.443-33.42 4.216-3.916 7.513-6.935 9.776-8.954 2.263-2.02 3.492-3.041 3.575-2.961.081.079-.987 1.255-3.102 3.417-2.116 2.164-5.276 5.314-9.376 9.343-8.197 8.057-20.149 19.631-34.985 33.861-29.667 28.471-70.891 67.56-116.484 110.658Z"/>
  <path fill="#E7E8E5" d="M586.264 259.828c-52.009 35.81-99.075 68.218-133.189 91.709-16.959 11.797-30.686 21.349-40.22 27.98l-10.876 7.685-2.806 2.031c-.626.464-.94.711-.925.731.015.02.357-.19 1.012-.618l2.884-1.924 10.999-7.522 40.24-27.955 132.316-92.869c51.612-36.286 98.405-69.074 132.428-92.614 17.009-11.773 30.82-21.24 40.417-27.714 4.8-3.236 8.544-5.726 11.107-7.382 2.562-1.656 3.942-2.481 4.01-2.389.07.089-1.178 1.092-3.617 2.912-2.439 1.821-6.072 4.46-10.772 7.828-9.401 6.733-23.08 16.377-40.037 28.219-33.912 23.686-80.959 56.137-132.971 91.892Z"/>
  <path fill="#E7E8E5" d="m593.737 271.746-146.468 70.559-44.274 21.593c-5.18 2.572-9.211 4.575-11.992 5.958l-3.1 1.582c-.695.366-1.046.563-1.034.584.011.023.384-.133 1.1-.456l3.163-1.465 12.087-5.777a753405.14 753405.14 0 0 1 44.292-21.562l145.79-71.845c56.878-28.083 108.426-53.436 145.858-71.573 18.714-9.072 33.896-16.347 44.428-21.298 5.268-2.474 9.37-4.37 12.172-5.621 2.8-1.251 4.298-1.856 4.35-1.756.054.1-1.341.903-4.045 2.335-2.705 1.432-6.721 3.493-11.912 6.113-10.38 5.239-25.46 12.709-44.135 21.856-37.346 18.299-89.093 43.277-146.28 70.773Z"/>
  <path fill="#E7E8E5" d="M599.173 284.645c-60.99 18.559-116.185 35.352-156.191 47.525l-47.258 14.63-12.817 4.069-3.322 1.096c-.744.255-1.122.397-1.114.421.008.023.401-.073 1.162-.282.799-.232 1.914-.555 3.363-.971l12.882-3.876 47.269-14.593 155.731-48.903c60.764-19.133 115.82-36.375 155.754-48.625 19.966-6.128 36.15-11.016 47.36-14.311 5.607-1.649 9.97-2.899 12.94-3.711 2.971-.81 4.548-1.182 4.586-1.074.034.106-1.474.689-4.379 1.694-2.905 1.006-7.209 2.434-12.763 4.236-11.109 3.606-27.222 8.702-47.161 14.91-39.876 12.422-95.067 29.262-156.042 47.765Z"/>
  <path fill="#E7E8E5" d="m602.429 298.21-162.024 23.308-49.064 7.298-13.324 2.078c-1.489.251-2.636.441-3.459.58-.777.139-1.174.222-1.17.247.004.023.408-.012 1.193-.107.828-.107 1.981-.254 3.48-.449l13.356-1.879 49.069-7.261 161.795-24.733c63.14-9.7 120.332-18.398 161.773-24.454 20.72-3.032 37.503-5.412 49.114-6.97 5.805-.78 10.318-1.355 13.385-1.707 3.067-.352 4.685-.481 4.703-.369.018.11-1.566.457-4.6 1.01-3.034.552-7.518 1.312-13.298 2.251-11.56 1.878-28.308 4.473-49.014 7.588-41.414 6.236-98.671 14.518-161.915 23.569ZM187.55 528.488c4.738-1.988 8.109-6.875 8.137-12.633.031-7.543-5.679-13.684-12.752-13.716-7.071-.034-12.831 6.054-12.861 13.597-.024 5.813 3.37 10.757 8.16 12.752-19.707 2.969-18.814 24.388-18.814 24.388l46.603.215s1.063-21.652-18.473-24.603Z"/>
  <path fill="#DADBD8" d="M503.715 400.119c-6.639 6.879-6.447 17.835.429 24.475 6.879 6.638 17.835 6.446 24.475-.431 6.638-6.877 6.448-17.833-.43-24.473-6.878-6.639-17.834-6.447-24.474.429Zm-8.599-21.489a39.432 39.432 0 0 1 9.645-4.192l1.988-9.55 16.131-.281 2.321 9.471a39.43 39.43 0 0 1 9.79 3.85l8.153-5.344 11.607 11.207-5.054 8.335a39.46 39.46 0 0 1 4.192 9.649l9.548 1.987.283 16.13-9.471 2.323a39.571 39.571 0 0 1-3.85 9.787l5.342 8.154-11.206 11.608-8.335-5.054a39.512 39.512 0 0 1-9.648 4.192l-1.987 9.548-16.132.282-2.321-9.472a39.563 39.563 0 0 1-9.788-3.85l-8.153 5.344-11.608-11.207 5.054-8.335a39.516 39.516 0 0 1-4.193-9.648l-9.547-1.986-.284-16.132 9.472-2.323a39.608 39.608 0 0 1 3.852-9.788l-5.344-8.153 11.206-11.607 8.337 5.055Z"/>
  <path fill="#DADBD8" d="M503.715 400.118s.905-1.276 3.222-2.828c2.275-1.514 6.251-3.201 11.292-2.669 2.483.279 5.199 1.089 7.675 2.727 2.449 1.637 4.761 3.968 6.207 6.992.76 1.486 1.288 3.136 1.574 4.858a16.73 16.73 0 0 1 .098 5.328c-.439 3.616-2.148 7.179-4.807 9.979-2.704 2.756-6.205 4.591-9.804 5.156-1.791.323-3.6.34-5.329.091-1.732-.226-3.4-.696-4.912-1.404-3.074-1.338-5.484-3.567-7.207-5.958-1.724-2.416-2.628-5.104-2.993-7.573-.71-5.02.837-9.052 2.27-11.377 1.471-2.372 2.714-3.322 2.714-3.322.093.08-1.044 1.136-2.378 3.512a17.256 17.256 0 0 0-1.914 11.082c.396 2.365 1.298 4.918 2.972 7.202 1.672 2.258 3.984 4.358 6.909 5.599 1.437.661 3.02 1.096 4.663 1.299a15.86 15.86 0 0 0 5.041-.108c3.404-.547 6.697-2.287 9.255-4.887 2.509-2.649 4.129-6.001 4.556-9.421.252-1.7.217-3.412-.068-5.042-.263-1.633-.751-3.198-1.462-4.613-1.345-2.877-3.524-5.116-5.838-6.707-2.34-1.592-4.923-2.404-7.303-2.716-4.831-.601-8.719.915-11.007 2.3-2.329 1.418-3.344 2.592-3.426 2.5Z"/>
  <path fill="#DADBD8" d="M495.115 378.628c.001.014-.18-.08-.538-.284l-1.598-.923-6.283-3.711.196-.026-11.139 11.673.03-.312 5.377 8.131.096.146-.085.155a39.409 39.409 0 0 0-3.788 9.724l-.047.189-.193.05-9.466 2.348.27-.348.321 16.129-.311-.375 9.551 1.968.242.051.068.239a39.327 39.327 0 0 0 4.165 9.538l.134.222-.134.222-5.042 8.342-.07-.548c3.649 3.516 7.586 7.308 11.621 11.193l-.575-.053c2.537-1.668 5.326-3.498 8.148-5.354l.24-.156.248.139a39.242 39.242 0 0 0 9.673 3.796l.282.069.071.283c.726 2.967 1.524 6.203 2.326 9.471l-.481-.37 16.132-.29-.472.392c.625-3.016 1.303-6.27 1.984-9.548l.061-.295.288-.08a39.155 39.155 0 0 0 9.518-4.136l.008-.005.259-.154.255.155 8.335 5.053-.612.08 11.208-11.604-.058.611c-1.797-2.747-3.578-5.465-5.339-8.156l-.162-.248.143-.256a39.044 39.044 0 0 0 3.811-9.665l.07-.283.281-.069 9.474-2.315-.359.467c-.093-5.507-.181-10.887-.269-16.131l.364.439c-3.239-.679-6.42-1.346-9.544-1.999l-.266-.056-.071-.259a39.236 39.236 0 0 0-4.133-9.546l-.134-.224.134-.222c1.738-2.854 3.422-5.622 5.069-8.325l.066.511c-4.076-3.951-7.922-7.682-11.585-11.231l.473.044-8.167 5.323-.181.118-.188-.104a39.397 39.397 0 0 0-9.692-3.845l-.193-.048-.046-.191c-.832-3.445-1.581-6.548-2.292-9.48l.291.224-16.133.212.215-.176-2.05 9.535-.02.095-.092.026a40.865 40.865 0 0 0-7.377 2.838c-.746.389-1.316.688-1.734.905-.393.217-.579.309-.579.295.001-.012.185-.139.537-.366.37-.226.929-.568 1.701-.981a38.396 38.396 0 0 1 7.364-2.999l-.112.122c.527-2.61 1.156-5.742 1.925-9.562l.035-.173.18-.004 16.13-.353.234-.006.058.23c.726 2.925 1.497 6.024 2.353 9.462l-.239-.238a39.884 39.884 0 0 1 9.883 3.856l-.368.013 8.14-5.363.253-.166.219.21 11.629 11.184.238.227-.171.283-5.039 8.342v-.442a40.002 40.002 0 0 1 4.252 9.748l-.337-.315c3.127.648 6.311 1.307 9.549 1.976l.357.073.007.367c.098 5.244.197 10.624.301 16.131l.006.377-.367.089-9.47 2.33.351-.351a39.935 39.935 0 0 1-3.892 9.909l-.017-.504 5.347 8.152.215.328-.273.283-11.202 11.611-.275.284-.338-.206-8.336-5.053.514.001-.009.004a40.068 40.068 0 0 1-9.76 4.239l.348-.376c-.681 3.277-1.36 6.533-1.988 9.549l-.08.386-.393.006-16.134.276-.388.006-.092-.378-2.316-9.472.352.351a40.171 40.171 0 0 1-9.903-3.904l.489-.017-8.159 5.336-.309.201-.266-.256-11.593-11.22-.255-.247.184-.301 5.065-8.327v.443a39.991 39.991 0 0 1-4.219-9.757l.31.289c-3.336-.7-6.589-1.385-9.544-2.007l-.305-.064-.006-.31-.246-16.134-.004-.282.273-.066 9.479-2.296-.238.239a39.83 39.83 0 0 1 3.912-9.851l.01.302c-1.912-2.946-3.7-5.699-5.311-8.175l-.109-.171.14-.144 11.273-11.541.089-.092.107.067 6.14 3.82 1.579 1.002c.355.23.535.352.535.366Z"/>
  <path fill="#E7E8E5" d="M598.165 445.98c-3.974 4.116-3.86 10.676.257 14.649 4.116 3.975 10.675 3.86 14.651-.257 3.973-4.116 3.859-10.676-.259-14.651-4.117-3.973-10.675-3.858-14.649.259Zm-5.148-12.865a23.615 23.615 0 0 1 5.775-2.508l1.188-5.718 9.659-.169 1.389 5.669a23.654 23.654 0 0 1 5.858 2.307l4.881-3.199 6.949 6.708-3.025 4.99a23.612 23.612 0 0 1 2.509 5.774l5.716 1.191.168 9.656-5.67 1.391a23.594 23.594 0 0 1-2.305 5.857l3.199 4.881-6.708 6.948-4.989-3.025a23.618 23.618 0 0 1-5.775 2.509l-1.191 5.716-9.656.17-1.389-5.67a23.658 23.658 0 0 1-5.859-2.306l-4.88 3.2-6.949-6.71 3.025-4.989a23.589 23.589 0 0 1-2.51-5.775l-5.715-1.189-.17-9.657 5.67-1.391a23.585 23.585 0 0 1 2.307-5.857l-3.2-4.88 6.709-6.95 4.989 3.026Z"/>
  <path fill="#E7E8E5" d="M598.165 445.98s.542-.764 1.928-1.695c1.363-.905 3.743-1.915 6.76-1.597 1.487.166 3.112.65 4.595 1.632 1.467.98 2.851 2.374 3.715 4.185.454.889.77 1.879.942 2.909a9.989 9.989 0 0 1 .058 3.19c-.262 2.165-1.286 4.296-2.876 5.973-1.619 1.648-3.715 2.748-5.87 3.087a9.997 9.997 0 0 1-3.189.054 10.01 10.01 0 0 1-2.94-.841c-1.841-.8-3.284-2.135-4.316-3.565-1.031-1.447-1.572-3.056-1.791-4.535-.425-3.004.502-5.419 1.359-6.811.88-1.418 1.625-1.986 1.625-1.986.056.046-.626.68-1.424 2.101a10.338 10.338 0 0 0-1.145 6.633c.237 1.416.777 2.946 1.779 4.311 1 1.352 2.385 2.609 4.136 3.353a9.51 9.51 0 0 0 2.79.778c.982.136 2.006.12 3.018-.066 2.038-.328 4.009-1.369 5.541-2.926 1.501-1.584 2.471-3.592 2.725-5.639a9.425 9.425 0 0 0-.04-3.019 9.472 9.472 0 0 0-.874-2.76c-.806-1.722-2.11-3.062-3.495-4.016-1.4-.952-2.947-1.438-4.371-1.625-2.892-.36-5.22.548-6.589 1.377-1.393.848-2.001 1.552-2.051 1.498Z"/>
  <path fill="#E7E8E5" d="M593.017 433.115c0 .008-.108-.049-.322-.171-.234-.134-.55-.316-.956-.552-.874-.514-2.13-1.257-3.762-2.221l.118-.015-6.668 6.987.018-.188 3.219 4.869.057.087-.05.092a23.504 23.504 0 0 0-2.268 5.821l-.028.115-.116.028-5.666 1.407.16-.21.194 9.656-.187-.225 5.716 1.179.147.03.041.143a23.566 23.566 0 0 0 2.492 5.709l.081.132-.081.134-3.017 4.993-.043-.327 6.956 6.699-.344-.032c1.52-.997 3.188-2.092 4.877-3.203l.144-.094.15.084a23.528 23.528 0 0 0 5.789 2.272l.169.041.042.169c.436 1.776.913 3.712 1.393 5.67l-.288-.222 9.656-.174-.281.236 1.186-5.716.038-.176.172-.05a23.46 23.46 0 0 0 5.697-2.474l.005-.004.156-.091.151.091 4.989 3.026-.366.047 6.709-6.945-.033.365-3.198-4.883-.096-.148.087-.153a23.484 23.484 0 0 0 2.28-5.785l.041-.171.17-.04 5.67-1.385-.214.28c-.055-3.298-.108-6.518-.162-9.658l.219.263c-1.94-.405-3.843-.805-5.715-1.197l-.158-.032-.043-.155a23.511 23.511 0 0 0-2.472-5.715l-.081-.134.081-.134 3.032-4.982.04.305c-2.44-2.365-4.741-4.597-6.935-6.721l.283.025-4.888 3.187-.108.07-.112-.061a23.53 23.53 0 0 0-5.804-2.303l-.115-.028-.026-.114-1.371-5.675.172.133-9.657.127.128-.105-1.226 5.706-.012.058-.056.016a24.525 24.525 0 0 0-4.414 1.698c-.447.234-.79.412-1.04.544-.235.128-.346.183-.346.175 0-.007.111-.083.322-.219.221-.136.556-.34 1.018-.586a22.902 22.902 0 0 1 4.408-1.796l-.068.073c.316-1.563.694-3.437 1.154-5.724l.02-.103.108-.002c2.728-.06 5.916-.131 9.656-.212l.14-.003.033.136c.436 1.752.896 3.607 1.409 5.664l-.142-.141c1.941.473 3.93 1.21 5.916 2.308l-.22.008 4.872-3.211.152-.1.13.125 6.962 6.696.141.136-.101.168-3.016 4.996v-.266a23.94 23.94 0 0 1 2.545 5.834l-.203-.186 5.719 1.181.213.045.004.219c.058 3.14.116 6.359.178 9.656l.005.225-.22.055-5.669 1.395.212-.211a23.883 23.883 0 0 1-2.331 5.932l-.011-.303c1.058 1.611 2.123 3.238 3.202 4.879l.129.197-.164.17-6.707 6.95-.164.171-.202-.124-4.99-3.024h.307l-.005.003a24.11 24.11 0 0 1-5.842 2.538l.21-.225-1.192 5.715-.048.232-.236.002c-3.322.056-6.599.112-9.656.166l-.234.004-.054-.227-1.387-5.669.211.21a24.119 24.119 0 0 1-5.927-2.337l.292-.012c-1.693 1.108-3.364 2.2-4.884 3.196l-.185.12-.159-.153-6.94-6.718-.152-.146.111-.182 3.03-4.984v.266a24.057 24.057 0 0 1-2.525-5.84l.185.172-5.713-1.2-.183-.04-.004-.186c-.05-3.388-.1-6.614-.146-9.657l-.003-.169.164-.04 5.675-1.374-.143.143a23.913 23.913 0 0 1 2.341-5.897l.007.18-3.179-4.894-.066-.101.084-.085 6.748-6.91.054-.054.063.038 3.675 2.288.945.6c.213.138.321.212.321.219Z"/>
  <path fill="#FAFAF9" d="m409.884 481.792 19.02 50.435-63.087 23.793-19.02-50.436 63.087-23.792Z"/>
  <path fill="#DADBD8" d="M409.884 481.792s-.104.047-.302.126c-.208.08-.5.194-.882.344l-3.42 1.31c-2.996 1.143-7.362 2.807-12.9 4.915l-45.521 17.262.101-.226 19.039 50.423.001.005-.25-.113 63.097-23.76-.095.208-13.716-36.609-3.816-10.238-1-2.704c-.225-.615-.336-.943-.336-.943s.124.299.358.898c.234.612.577 1.502 1.024 2.661.897 2.355 2.209 5.793 3.881 10.175l13.909 36.645.058.154-.152.057-63.075 23.822-.184.069-.068-.183-.003-.006-18.998-50.437-.062-.165.163-.062c18.779-7.042 34.576-12.968 45.689-17.137 5.535-2.064 9.902-3.695 12.896-4.812l3.403-1.261.871-.319c.194-.068.29-.099.29-.099Z"/>
  <path fill="#E7E8E5" d="m366.795 552.025 58.654-22.119-16.625-44.086-58.655 22.12 16.626 44.085Z"/>
  <path fill="#DADBD8" d="m366.795 552.025 10.152-35.13 19.156 12.36 5.151-12.412 24.196 13.063-58.655 22.119Zm26.964-45.305a4.937 4.937 0 1 1-9.238 3.485 4.937 4.937 0 0 1 9.238-3.485Z"/>
  <path fill="#FAFAF9" d="m335.894 355.408 5.622 79.76-99.767 7.033-5.623-79.761 99.768-7.032Z"/>
  <path fill="#DADBD8" d="M335.895 355.408s-.168.021-.483.048c-.329.028-.793.065-1.399.113l-5.418.415c-4.742.349-11.656.86-20.42 1.508l-72.03 5.207.242-.276 5.65 79.749.002.008-.31-.268 99.771-6.983-.224.256c-1.64-24.021-3.001-43.93-3.953-57.856-.463-6.965-.828-12.43-1.078-16.172l-.273-4.269a64.088 64.088 0 0 1-.077-1.48s.05.476.126 1.425l.326 4.219 1.197 16.109c1.013 13.958 2.464 33.915 4.213 57.991l.018.24-.242.017-99.764 7.082-.289.02-.02-.29-.001-.008-5.591-79.754-.017-.26.258-.018c29.68-2.038 54.648-3.753 72.215-4.961 8.743-.585 15.641-1.049 20.371-1.367l5.372-.346a706.5 706.5 0 0 1 1.373-.082c.305-.017.455-.017.455-.017Z"/>
  <path fill="#E7E8E5" d="m244.835 436.938 92.758-6.54-4.914-69.718-92.759 6.538 4.915 69.72Z"/>
  <path fill="#DADBD8" d="m244.834 436.938 29.343-45.621 21.981 25.699 12.59-15.455 28.845 28.837-92.759 6.54Zm57.558-52.944a7.322 7.322 0 1 1-14.608 1.028 7.322 7.322 0 0 1 14.608-1.028ZM416.224 128.6c.888 2.206 17.915 44.898 17.915 44.898l18.742-6.65 19.906 15.983-18.911-35.383-16.709 5.498-20.943-24.346Zm46.282-48.434c0 1.6-.103 32.5-.103 32.5l12.789.562 8.04 14.968-2.78-26.816-11.299-.769-6.647-20.445Zm145.298 43.925c-.724 1.835-15.859 49.055-15.859 49.055l-9.976-7.496-26.239 21.689 24.862-42.572 9.377 6.291 17.835-26.967Z"/>
  <path fill="#E7E8E5" d="M753.011 395.958c.195-4.328-1.227-8.639-3.564-12.288-2.291-3.572-5.539-6.621-9.491-8.172-4.2-1.644-9.073-1.476-13.146.455-2.424 1.15-4.543 2.912-6.154 5.054a16.628 16.628 0 0 0-4.01-6.033c-3.266-3.109-7.842-4.796-12.343-4.545-4.239.234-8.279 2.113-11.572 4.79-3.363 2.732-6.061 6.383-7.231 10.555-1.464 5.224-1.368 11.217.655 16.252 2.137 5.317 6.22 9.991 10.596 13.688 7.363 6.217 17.107 14.087 17.107 14.087s10.158-5.327 19.096-8.928c5.314-2.142 10.654-5.302 14.349-9.683 3.497-4.148 5.461-9.811 5.708-15.232ZM335.166 195.584l-67.389-8.033a8.493 8.493 0 0 1-7.427-9.438l11.12-93.276a8.492 8.492 0 0 1 9.438-7.426l42.739 5.093 29.018 38.044-8.06 67.609a8.494 8.494 0 0 1-9.439 7.427Z"/>
  <path fill="#F3F2F1" d="m323.647 82.504-3.13 26.252a7.899 7.899 0 0 0 6.906 8.779l25.242 3.013-29.018-38.044Z"/>
  <path fill="#DADBD8" d="M320.586 111.101s-1.09 6.328 5.908 9.286c.263.11.535.202.808.285 3.224.983 24.462 7.428 24.522 6.929l.841-7.053-25.243-3.009s-6.277-.967-6.836-6.438Z"/>
  <path fill="#FAFAF9" d="M314.993 107.012c-.04.337-7.052-.221-15.661-1.248-8.611-1.027-15.556-2.132-15.516-2.469.04-.338 7.051.221 15.663 1.248 8.608 1.026 15.554 2.132 15.514 2.469Zm18.367 17.242c-.042.338-11.562-.758-25.728-2.448-14.174-1.689-25.626-3.332-25.586-3.669.04-.337 11.559.759 25.731 2.448 14.167 1.689 25.623 3.332 25.583 3.669Zm3.143 12.946c-.04.337-12.595-.883-28.038-2.724-15.449-1.842-27.937-3.607-27.896-3.944.04-.338 12.592.881 28.042 2.724 15.442 1.84 27.933 3.606 27.892 3.944Zm-1.393 11.693c-.04.337-12.596-.881-28.039-2.723-15.449-1.841-27.936-3.608-27.896-3.945.041-.337 12.593.883 28.041 2.723 15.444 1.841 27.934 3.608 27.894 3.945Zm-1.394 11.693c-.041.338-12.596-.881-28.04-2.722-15.448-1.842-27.935-3.608-27.895-3.946.04-.337 12.592.883 28.042 2.724 15.442 1.842 27.932 3.607 27.893 3.944Zm-1.395 11.694c-.04.337-12.596-.881-28.039-2.723-15.449-1.841-27.936-3.608-27.894-3.945.04-.336 12.59.883 28.04 2.724 15.444 1.841 27.933 3.607 27.893 3.944Z"/>
  <path fill="#E7E8E5" d="M735.324 159.459c0 22.313-18.088 40.401-40.403 40.401-22.313 0-40.401-18.088-40.401-40.401 0-22.315 18.088-40.403 40.401-40.403 22.315 0 40.403 18.088 40.403 40.403Z"/>
  <path fill="#fff" d="M685.187 171.276v-23.838a1.517 1.517 0 0 1 2.262-1.322l21.306 12.011a1.517 1.517 0 0 1-.008 2.648l-21.307 11.828a1.517 1.517 0 0 1-2.253-1.327Z"/>
  <path fill="#E7E8E5" d="m934.649 166.216-59.821-19.664 13.255-40.323 59.821 19.664-13.255 40.323Z"/>
  <path fill="#DADBD8" d="M947.935 126.442c.008.018-.244.14-.734.354l-2.144.911-7.936 3.259-26.326 10.577-.216.088-.13-.196a40.4 40.4 0 0 0-.31-.475c-6.107-9.392-11.632-17.892-15.674-24.106l-4.694-7.342-1.252-2.01c-.282-.464-.422-.714-.404-.724.016-.011.188.216.5.66l1.342 1.953 4.847 7.241c4.076 6.191 9.652 14.659 15.815 24.015.105.163.212.324.309.475l-.344-.11 26.388-10.42 8.003-3.09c.908-.336 1.634-.607 2.185-.812.501-.18.768-.266.775-.248Z"/>
  <path fill="#DADBD8" d="M874.86 147.1c-.082-.135 6.232-4.184 14.104-9.043 7.875-4.858 14.323-8.689 14.405-8.554.083.133-6.23 4.181-14.105 9.041-7.871 4.859-14.321 8.689-14.404 8.556Zm48.56-11.565c.149-.053 2.789 6.895 5.899 15.517 3.11 8.624 5.51 15.658 5.362 15.712-.149.054-2.789-6.893-5.9-15.518-3.109-8.623-5.509-15.658-5.361-15.711Z"/>
  <path fill="#E7E8E5" d="M784.609 69.256c-6.282 0-11.376-5.093-11.376-11.375 0-6.284 5.094-11.377 11.376-11.377 6.283 0 11.375 5.093 11.375 11.377 0 6.282-5.092 11.375-11.375 11.375Zm25.85-11.255c0-15.914-14.383-28.469-30.86-25.377-10.363 1.945-18.623 10.41-20.438 20.796-1.134 6.492.206 12.6 3.167 17.64h-.015l.075.099c.991 1.669 2.233 2.864 3.487 4.618l15.008 19.882c1.868 2.473 5.584 2.473 7.452 0l14.757-19.554s2.756-3.285 3.755-4.973l.053-.072h-.011a25.68 25.68 0 0 0 3.57-13.059Zm-660.442 7.706c4.739-1.987 8.108-6.875 8.136-12.632.031-7.543-5.677-13.686-12.75-13.718-7.071-.033-12.832 6.056-12.862 13.599-.024 5.812 3.37 10.756 8.16 12.75-19.708 2.97-18.813 24.389-18.813 24.389l46.603.216s1.062-21.654-18.474-24.605ZM50.964 173.183a8.14 8.14 0 1 0 11.711 11.306 8.14 8.14 0 0 0-11.711-11.306Zm-4.044-10.105a18.572 18.572 0 0 1 4.536-1.972l.935-4.491 7.585-.132 1.092 4.453c1.59.392 3.14.995 4.603 1.812l3.834-2.514 5.459 5.27-2.378 3.919a18.581 18.581 0 0 1 1.972 4.537l4.49.935.133 7.585-4.454 1.094a18.567 18.567 0 0 1-1.811 4.601l2.513 3.835-5.27 5.458-3.919-2.377a18.617 18.617 0 0 1-4.537 1.972l-.935 4.489-7.585.134-1.092-4.455a18.611 18.611 0 0 1-4.603-1.811l-3.834 2.514-5.458-5.27 2.376-3.92a18.549 18.549 0 0 1-1.971-4.537l-4.49-.933-.133-7.587 4.454-1.092a18.645 18.645 0 0 1 1.81-4.603l-2.512-3.833L43 160.7l3.92 2.378Z"/>
  <path fill="#E7E8E5" d="M50.964 173.182s.425-.6 1.515-1.33c1.07-.712 2.94-1.505 5.31-1.255 1.167.131 2.445.512 3.609 1.281 1.151.771 2.24 1.867 2.918 3.289a7.82 7.82 0 0 1 .74 2.285c.147.808.168 1.658.046 2.505-.206 1.701-1.01 3.376-2.259 4.692-1.272 1.296-2.919 2.159-4.61 2.425a7.88 7.88 0 0 1-2.507.043 7.869 7.869 0 0 1-2.31-.66c-1.445-.629-2.58-1.679-3.389-2.801-.81-1.138-1.235-2.4-1.407-3.563-.334-2.36.394-4.256 1.068-5.349.691-1.115 1.276-1.562 1.276-1.562.044.038-.491.535-1.118 1.651a8.114 8.114 0 0 0-.9 5.211c.185 1.113.61 2.315 1.397 3.388.786 1.061 1.874 2.048 3.249 2.632.676.312 1.42.516 2.192.61a7.45 7.45 0 0 0 2.372-.05c1.6-.258 3.149-1.075 4.352-2.299 1.179-1.244 1.94-2.821 2.141-4.429a7.42 7.42 0 0 0-.032-2.371 7.43 7.43 0 0 0-.687-2.169c-.632-1.354-1.657-2.405-2.745-3.155-1.1-.748-2.315-1.129-3.434-1.277a8.118 8.118 0 0 0-5.176 1.082c-1.095.666-1.572 1.219-1.611 1.176Z"/>
  <path fill="#E7E8E5" d="M46.92 163.077a2.04 2.04 0 0 1-.253-.135l-.752-.434-2.954-1.744.092-.012-5.238 5.488.014-.147a23859.7 23859.7 0 0 1 2.529 3.824l.045.069-.04.072a18.595 18.595 0 0 0-1.782 4.574l-.022.089-.09.023-4.451 1.104.126-.164.151 7.585-.146-.176 4.491.925.115.024.032.112a18.491 18.491 0 0 0 1.958 4.486l.063.104-.063.104c-.735 1.216-1.546 2.557-2.37 3.924l-.034-.259c1.716 1.653 3.568 3.436 5.464 5.264l-.27-.025c1.194-.784 2.504-1.644 3.832-2.518l.112-.073.118.065c1.338.746 2.9 1.383 4.548 1.786l.132.032.033.133 1.095 4.453-.226-.173c2.402-.044 4.976-.091 7.585-.137l-.222.184.933-4.49.029-.138.136-.038a18.459 18.459 0 0 0 4.475-1.945l.005-.003.122-.072.119.074 3.92 2.376-.29.037 5.272-5.456-.027.287-2.511-3.835-.076-.117.067-.12a18.392 18.392 0 0 0 1.792-4.546l.033-.133.133-.032 4.454-1.088-.169.219c-.043-2.59-.084-5.119-.126-7.586l.17.207-4.487-.94-.125-.027-.034-.121a18.414 18.414 0 0 0-1.943-4.489l-.063-.106.063-.104 2.383-3.914.031.24-5.447-5.282.222.022-3.84 2.502-.085.056-.088-.049a18.522 18.522 0 0 0-4.558-1.809l-.09-.022-.023-.09c-.39-1.619-.744-3.079-1.077-4.458l.137.106-7.586.1.1-.083-.962 4.483-.01.045-.044.012a19.177 19.177 0 0 0-3.469 1.335c-.351.182-.62.322-.816.426a2.006 2.006 0 0 1-.272.139c0-.007.087-.067.253-.173.174-.107.436-.267.8-.462a18.109 18.109 0 0 1 3.463-1.409l-.053.056.905-4.496.017-.081.084-.002 7.585-.166.11-.003.027.108 1.106 4.451-.112-.114a18.8 18.8 0 0 1 4.648 1.815l-.173.005c1.218-.802 2.482-1.634 3.827-2.522l.12-.078.102.1 5.47 5.258.11.108-.08.133-2.369 3.923v-.21a18.822 18.822 0 0 1 1.999 4.584l-.158-.146 4.49.928.17.036.002.17.14 7.586.004.178-.172.042-4.454 1.096.165-.166a18.808 18.808 0 0 1-1.83 4.66l-.008-.237 2.515 3.833.1.154-.127.133-5.27 5.46-.128.135-.159-.098-3.92-2.376h.242l-.005.003a18.87 18.87 0 0 1-4.59 1.993l.165-.177-.935 4.489-.038.182-.185.004-7.586.13-.183.003-.043-.177-1.089-4.456.165.165a18.88 18.88 0 0 1-4.656-1.836l.23-.008-3.837 2.509-.146.096-.125-.121-5.451-5.276-.12-.116.087-.143 2.382-3.914v.208a18.84 18.84 0 0 1-1.986-4.588l.147.136-4.488-.944-.144-.031-.002-.145-.116-7.586-.002-.134.129-.031 4.457-1.08-.112.112a18.766 18.766 0 0 1 1.84-4.632l.004.143-2.497-3.846-.051-.08.066-.066c2.157-2.211 3.943-4.038 5.3-5.428l.042-.043.05.031 2.888 1.797.743.471c.166.108.25.166.25.173ZM829.403 536.17a8.138 8.138 0 0 0 .201 11.509 8.142 8.142 0 0 0 11.51-.202 8.14 8.14 0 0 0-11.711-11.307Zm-4.044-10.106a18.572 18.572 0 0 1 4.536-1.97l.935-4.49 7.586-.134 1.091 4.455a18.63 18.63 0 0 1 4.602 1.809l3.835-2.513 5.459 5.272-2.378 3.919a18.532 18.532 0 0 1 1.971 4.536l4.49.936.134 7.585-4.454 1.091a18.596 18.596 0 0 1-1.811 4.604l2.512 3.833-5.27 5.459-3.918-2.377a18.594 18.594 0 0 1-4.537 1.971l-.935 4.491-7.585.132-1.094-4.453a18.609 18.609 0 0 1-4.601-1.812l-3.835 2.513-5.457-5.269 2.376-3.92a18.629 18.629 0 0 1-1.972-4.536l-4.489-.935-.133-7.587 4.454-1.092a18.587 18.587 0 0 1 1.81-4.601l-2.513-3.835 5.269-5.458 3.922 2.376Z"/>
  <path fill="#E7E8E5" d="M829.403 536.17s.425-.6 1.514-1.331c1.07-.712 2.94-1.505 5.311-1.254 1.167.132 2.444.512 3.608 1.282 1.152.77 2.24 1.866 2.919 3.289a7.85 7.85 0 0 1 .74 2.285c.146.808.168 1.659.045 2.504-.205 1.701-1.009 3.376-2.259 4.693-1.27 1.296-2.918 2.158-4.61 2.424a7.856 7.856 0 0 1-2.507.043 7.905 7.905 0 0 1-2.308-.66c-1.447-.628-2.58-1.678-3.389-2.801-.812-1.138-1.236-2.4-1.408-3.562-.334-2.361.393-4.256 1.068-5.35.69-1.115 1.276-1.562 1.276-1.562.044.038-.491.535-1.119 1.652a8.121 8.121 0 0 0-.9 5.21c.187 1.113.611 2.313 1.397 3.388.787 1.061 1.874 2.047 3.248 2.633.676.31 1.422.514 2.194.611.77.108 1.576.094 2.37-.052 1.602-.257 3.151-1.075 4.354-2.298 1.178-1.245 1.941-2.821 2.141-4.429.119-.8.103-1.607-.032-2.372a7.434 7.434 0 0 0-.688-2.169c-.631-1.353-1.656-2.406-2.744-3.154-1.1-.747-2.317-1.13-3.435-1.277a8.106 8.106 0 0 0-5.176 1.083c-1.094.665-1.572 1.218-1.61 1.174Z"/>
  <path fill="#E7E8E5" d="M825.359 526.064c0 .006-.085-.037-.253-.132l-.751-.435-2.955-1.745.092-.012c-1.343 1.405-3.105 3.254-5.239 5.488l.014-.147 2.529 3.824.046.069-.041.074a18.474 18.474 0 0 0-1.781 4.571l-.023.09-.089.023-4.452 1.104.127-.164.15 7.585-.146-.176 4.492.925.115.024.031.112a18.454 18.454 0 0 0 1.958 4.486l.064.104-.064.104-2.371 3.924-.033-.259c1.716 1.655 3.568 3.438 5.465 5.264l-.271-.025c1.194-.784 2.505-1.644 3.833-2.518l.111-.073.118.066a18.496 18.496 0 0 0 4.549 1.785l.132.032.034.133c.341 1.395.716 2.917 1.094 4.453l-.227-.174c2.403-.043 4.976-.088 7.586-.136l-.223.185c.295-1.419.612-2.948.935-4.49l.028-.138.136-.038a18.437 18.437 0 0 0 4.474-1.945l.005-.002.122-.072.12.072 3.919 2.377-.289.036c1.781-1.844 3.539-3.662 5.271-5.457l-.026.288a4983.65 4983.65 0 0 0-2.512-3.836l-.076-.116.068-.12a18.366 18.366 0 0 0 1.792-4.546l.032-.132.133-.033 4.455-1.088-.17.22-.125-7.587.171.207-4.488-.94-.125-.026-.034-.122a18.375 18.375 0 0 0-1.943-4.489l-.064-.106.064-.104c.816-1.342 1.61-2.642 2.383-3.915l.031.241-5.448-5.282.223.022-3.841 2.504-.085.054-.088-.048a18.481 18.481 0 0 0-4.557-1.809l-.092-.023-.02-.089c-.392-1.621-.746-3.079-1.078-4.458l.136.106-7.586.1.1-.085-.962 4.485-.01.046-.043.01a19.199 19.199 0 0 0-3.469 1.335c-.352.182-.62.324-.816.427-.186.101-.272.143-.272.137 0-.006.087-.066.252-.172.175-.107.436-.267.8-.46.727-.386 1.85-.936 3.462-1.411l-.051.058c.246-1.229.542-2.7.905-4.497l.016-.082.084-.002 7.587-.166.109-.001.027.108 1.105 4.447-.112-.11c1.526.372 3.089.951 4.649 1.813l-.173.007 3.826-2.524.121-.078.102.1 5.468 5.259.112.107-.08.133-2.371 3.923v-.208a18.74 18.74 0 0 1 2 4.583l-.158-.147c1.47.305 2.968.613 4.491.928l.167.036.003.172c.048 2.465.095 4.996.143 7.585l.002.178-.172.041-4.454 1.096.165-.165a18.77 18.77 0 0 1-1.829 4.659l-.01-.235 2.516 3.831.1.155-.128.133-5.267 5.459-.129.135-.161-.097a4717.36 4717.36 0 0 0-3.918-2.376h.241l-.004.002a18.865 18.865 0 0 1-4.591 1.993l.165-.176-.936 4.49-.037.181-.185.004-7.586.128-.182.004-.043-.177-1.091-4.455.166.166a18.943 18.943 0 0 1-4.656-1.836l.229-.009c-1.329.868-2.641 1.728-3.836 2.51l-.145.094-.125-.121c-1.892-1.832-3.741-3.619-5.453-5.276l-.12-.116.089-.141c.829-1.364 1.642-2.703 2.381-3.916v.208a18.788 18.788 0 0 1-1.984-4.588l.145.136c-1.569-.331-3.099-.652-4.488-.943l-.144-.031-.002-.146-.115-7.587-.001-.132.128-.032 4.457-1.079-.112.112a18.695 18.695 0 0 1 1.838-4.631l.006.14-2.498-3.843-.05-.08.065-.068c2.159-2.211 3.944-4.037 5.3-5.428l.043-.043.049.031 2.888 1.797.743.471c.166.108.252.165.252.172Z"/>
  <path fill="#17282F" d="M972.485 599.988c0 .19-217.716.346-486.218.346-268.598 0-486.267-.156-486.267-.346 0-.193 217.669-.349 486.267-.349 268.502 0 486.218.156 486.218.349Z"/>
  <path fill="#F2575D" d="M519.572 525.129c3.597 1.561 6.244 4.888 7.572 8.58 1.328 3.691 1.448 7.724 1.007 11.623-.854 7.541-5.14 15.154-9.754 21.18-6.352-5.543-7.813-15.211-8.246-20.163-.683-7.827 2.83-22.387 9.421-21.22Zm6.207 53.831c-1.018-4.263.757-8.939 4.029-11.854 3.272-2.915 7.843-4.149 12.213-3.815 2.02.154 4.204.743 5.36 2.408 1.083 1.554.962 3.725.084 5.405-.878 1.677-2.397 2.933-4.001 3.94-5.503 3.453-11.463 5.784-17.685 3.916Z"/>
  <path fill="#17282F" d="M517.634 602.085c-.038-.009.05-.558.227-1.548l.768-4.188c.701-3.5 1.603-8.515 4.323-13.38 2.682-4.856 6.438-8.429 9.601-10.204 1.571-.909 2.945-1.449 3.916-1.732.479-.161.869-.223 1.127-.287.261-.054.398-.074.402-.055.046.124-2.198.527-5.245 2.407-3.053 1.827-6.681 5.366-9.321 10.138-2.667 4.767-3.626 9.709-4.423 13.192-.384 1.754-.697 3.177-.939 4.153-.242.977-.4 1.512-.436 1.504Z"/>
  <path fill="#17282F" d="M517.873 536.454c.019 0 .046.231.078.677l.116 1.942c.089 1.69.189 4.135.286 7.155.196 6.044.348 14.397.311 23.623a663.511 663.511 0 0 1-.516 23.622 356.9 356.9 0 0 1-.348 7.152c-.053.798-.099 1.441-.132 1.943-.036.443-.065.676-.084.675-.019 0-.028-.235-.027-.68.007-.503.018-1.148.028-1.947.044-1.758.103-4.185.175-7.155.149-6.042.313-14.389.353-23.613.039-9.22-.052-17.568-.148-23.611-.048-2.969-.085-5.397-.112-7.155l-.013-1.948c.004-.444.015-.68.033-.68Z"/>
  <path fill="#F2575D" d="M514.79 583.552c-1.444-9.125-7.596-17.376-15.928-21.367-2.121-1.017-4.892-1.681-6.637-.103-1.748 1.582-1.356 4.419-.501 6.616 3.557 9.136 13.112 15.588 22.916 15.472"/>
  <path fill="#17282F" d="M499.892 569.337c.017-.033.494.178 1.349.59.428.202.951.453 1.521.81.571.357 1.262.706 1.939 1.216.693.491 1.467 1.01 2.217 1.67.791.614 1.558 1.358 2.362 2.145 1.565 1.612 3.138 3.537 4.485 5.762a31.84 31.84 0 0 1 2.955 6.682c.302 1.082.592 2.112.746 3.101.215.978.294 1.908.382 2.751.117.842.076 1.615.105 2.287.031.674-.013 1.253-.051 1.725-.069.945-.126 1.465-.164 1.461-.124-.004.092-2.097-.277-5.432-.111-.832-.211-1.744-.441-2.704-.171-.971-.475-1.978-.784-3.04a33.102 33.102 0 0 0-2.943-6.548c-1.321-2.185-2.857-4.086-4.376-5.692-.78-.784-1.525-1.528-2.291-2.149-.728-.666-1.478-1.196-2.149-1.7-2.728-1.956-4.64-2.828-4.585-2.935Zm2.423-384.803c-.151.12-4.65-5.338-10.048-12.186-5.4-6.852-9.654-12.5-9.503-12.619.151-.119 4.649 5.337 10.048 12.188 5.399 6.849 9.653 12.499 9.503 12.617Zm18.342 4.022c-.19.016-1.47-13.778-2.858-30.803-1.39-17.033-2.36-30.848-2.168-30.864.19-.015 1.47 13.776 2.858 30.807 1.388 17.026 2.359 30.845 2.168 30.86Zm14.24-3.379c-.173-.081 3.55-8.319 8.314-18.397 4.766-10.082 8.769-18.184 8.942-18.102.174.082-3.548 8.318-8.313 18.399-4.765 10.077-8.768 18.183-8.943 18.1Zm-5.888 120.832c.152-.117 4.576 5.401 9.882 12.323 5.305 6.924 9.482 12.629 9.33 12.746-.152.116-4.576-5.401-9.881-12.325-5.305-6.921-9.481-12.628-9.331-12.744Zm-12.242 1.239c.192-.013 1.284 13.798 2.441 30.84 1.156 17.05 1.939 30.876 1.748 30.89-.192.013-1.284-13.794-2.441-30.843-1.156-17.043-1.939-30.873-1.748-30.887Zm-10.951-2.816c.172.084-3.663 8.271-8.564 18.283-4.902 10.015-9.014 18.063-9.187 17.979-.172-.084 3.661-8.268 8.564-18.284 4.9-10.012 9.015-18.062 9.187-17.978Z"/>
  <path fill="#F9A78D" d="M683.931 280.576s44.497 52.811 54.41 52.879c15.244.105 54.41-35.985 54.41-35.985s-18.315-26.393-18.487-25.563l-34.557 32.184-49.06-32.983-6.716 9.468Z"/>
  <path fill="#F57F62" d="M743.894 320.12c-.226-.009.276-3.879-.984-8.405-1.206-4.543-3.598-7.627-3.407-7.748.064-.051.747.645 1.603 1.964.858 1.312 1.838 3.278 2.474 5.601.627 2.325.778 4.517.702 6.083-.072 1.57-.308 2.517-.388 2.505Z"/>
  <path fill="#F9A78D" d="M941.446 254.588c.714.178 7.858 4.286 9.465 11.43 1.608 7.144-3.215 12.144-5.716 13.93-2.5 1.786-41.016 15.486-57.347 15.604l-3.246-13.031 30.59-15.253-22.861-6.608 10.537-21.252 38.578 15.18Z"/>
  <path fill="#17282F" d="M781.979 169.468c-4.444 5.799-5.764 13.816-3.407 20.68 1.145 3.334 3.096 6.972 1.533 10.152-1.545 3.148-5.906 4.206-7.341 7.404-1.689 3.767 1.597 7.859 1.707 11.97.102 3.86-3.079 7.552-6.938 8.053a32.105 32.105 0 0 0 17.078 2.607l2.886-6.594c-1.136 2.342.087 5.283 2.172 6.83 2.084 1.545 4.796 1.977 7.403 2.108 12.448.621 25.095-4.944 33.037-14.539"/>
  <path fill="#17282F" d="M854.289 182.722c-1.534-2.385-3.601-4.428-4.873-6.961-2.735-5.445-1.577-12.679-5.741-17.137-2.966-3.174-7.714-3.868-12.082-4.048-4.366-.182-8.982-.098-12.762-2.258-2.771-1.582-4.8-4.23-7.567-5.822-3.943-2.271-8.855-2.108-13.343-1.226-4.609.907-9.188 2.562-12.757 5.611-3.568 3.048-5.993 7.66-5.572 12.299.207 2.261 1.063 4.464.912 6.733-.165 2.493-1.524 4.755-2.089 7.192-1.2 5.152 1.662 10.921 6.493 13.096l41.456 31.776c7.179.747 22.269-6.349 26.089-12.459 3.819-6.109 5.711-20.769 1.836-26.796Z"/>
  <path fill="#F9A78D" d="M784.421 184.918c-1.056-9.391 3.128-21.906 12.628-22.614l30.419 2.036c2.887-.214 5.444 1.798 5.889 4.634l12.399 67.994c.049.002-1.219.864 0 0 .317-.225.732.083.6.446-2.113 5.717-12.524 31.024-30.556 28.825-4.029-.491-2.941-12.963-4.461-17.083l-2.307-10.934c-1.063-5.612-1.471-7.919-1.465-7.867 0 0-12.308.193-17.53-14.836-2.596-7.475-4.442-20.165-5.616-30.601Z"/>
  <path fill="#17282F" d="M788.701 197.312c.151 1.054 1.172 1.794 2.286 1.653 1.11-.14 1.894-1.107 1.746-2.163-.149-1.054-1.172-1.796-2.282-1.654-1.114.14-1.896 1.108-1.75 2.164Zm19.054-2.168c.148 1.054 1.17 1.794 2.284 1.653 1.11-.14 1.894-1.107 1.745-2.163-.148-1.054-1.171-1.796-2.281-1.654-1.115.14-1.898 1.109-1.748 2.164Zm-20.178-3.748c.304.302 1.836-1.318 4.206-1.585 2.364-.304 4.24.907 4.465.541.112-.162-.224-.73-1.044-1.281-.805-.549-2.137-1.021-3.613-.845-1.475.18-2.656.952-3.308 1.677-.667.731-.856 1.36-.706 1.493Zm20.998-2.947c.354.257 1.817-1.503 4.302-2.04 2.476-.575 4.586.388 4.787.005.101-.173-.308-.688-1.235-1.129-.909-.441-2.366-.745-3.913-.4-1.545.348-2.721 1.24-3.34 2.024-.632.791-.771 1.428-.601 1.54Zm-3.999 16.36c-.012-.122-1.392-.11-3.609.007-.56.044-1.1.029-1.259-.327-.199-.37-.073-1 .081-1.682l.89-4.447c1.21-6.323 1.982-11.48 1.728-11.525-.259-.044-1.447 5.044-2.656 11.365l-.819 4.46c-.097.657-.331 1.424.096 2.192.22.381.675.604 1.044.635.372.042.681-.008.956-.042 2.204-.277 3.56-.512 3.548-.636Z"/>
  <path fill="#F57F62" d="M807.566 230.354s10.616-1.226 19.916-9.306c0 0-3.326 11.812-19.2 13.186l-.716-3.88Zm-.901-20.455c.836-.998 2.24-1.506 3.599-1.302.943.142 1.877.636 2.416 1.428.537.79.605 1.884.045 2.592-.63.799-1.87.936-2.898.598-1.027-.339-1.891-1.058-2.71-1.772-.226-.199-.457-.406-.59-.67-.136-.262-.151-.601.042-.806"/>
  <path fill="#17282F" d="M811.401 206.406c-.354.043.052 2.363-1.656 4.369-1.705 2.014-4.242 2.203-4.204 2.531-.006.151.636.351 1.692.188 1.038-.152 2.486-.752 3.531-1.98 1.041-1.231 1.328-2.672 1.24-3.637-.084-.986-.445-1.514-.603-1.471Zm-5.353-24.917c.411.475 2.354-.568 4.859-1.196 2.495-.68 4.692-.722 4.824-1.338.052-.291-.481-.682-1.467-.916-.976-.238-2.404-.272-3.904.118-1.498.395-2.73 1.126-3.47 1.812-.748.688-1.028 1.291-.842 1.52Zm-19.738 3.346c.518.454 2.374-.2 4.646-.399 2.268-.261 4.227.008 4.632-.54.176-.264-.164-.733-1.04-1.135-.862-.4-2.277-.672-3.838-.514-1.562.16-2.883.708-3.636 1.273-.768.565-.995 1.092-.764 1.315Z"/>
  <path fill="#17282F" d="M834.225 164.908c-1.971-1.788-4.796-2.236-7.455-2.531a146.522 146.522 0 0 0-34.554.262c-.799 2.616 1.273 5.356 3.781 6.456 2.51 1.1 5.355 1.05 8.087 1.325 2.733.276 5.659 1.035 7.315 3.201 1.761 2.307 1.63 5.615 3.274 8.006 2.825 4.114 9.6 3.913 12.403 8.042 2.118 3.124 1.053 7.315 1.485 11.066.489 4.25 3.142 8.186 6.906 10.25 2.968 1.627 6.561 2.036 9.865 1.243-2.611-13.239-5.22-26.479-7.829-39.717-.543-2.758-1.195-5.711-3.278-7.603Z"/>
  <path fill="#17282F" d="M869.234 190.948c-2.554-1.304-5.57-2.223-7.081-4.647-2.2-3.533-.252-8.865-3.164-11.846-2.655-2.718-8.005-1.151-10.549-3.972-1.987-2.203-1.044-4.856-2.128-6.964-1.083-2.107-4.795-3.236-7.024-2.37l-11.295 30.492c.568 9.094.081 14.14 3.264 18.718 1.747 2.509 3.787 4.869 4.947 7.696 1.16 2.828 1.264 6.348-.707 8.712 10.956-1.963 19.581-10.159 27.491-17.972 2.789-2.756 5.581-5.512 8.372-8.268.869-.86 1.773-1.772 2.126-2.939.831-2.743-1.698-5.336-4.252-6.64Z"/>
  <path fill="#33535F" d="M862.583 206.116s-.346.242-1.092.518c-.74.274-1.887.609-3.406.636a10.713 10.713 0 0 1-5.309-1.274c-1.899-1.01-3.703-2.888-4.68-5.425a10.666 10.666 0 0 1-.703-4.176c.055-1.496.499-2.987.971-4.477.461-1.49.988-3.03.997-4.642.012-1.582-.438-3.344-1.741-4.365-1.313-1.044-3.209-.888-5.067-1.123-.933-.114-1.944-.406-2.724-1.084-.778-.674-1.233-1.637-1.461-2.6-.479-1.956-.103-3.956-.211-5.864-.05-.957-.228-1.914-.685-2.725-.452-.811-1.203-1.429-2.108-1.756-1.835-.693-3.857-.353-5.804-.023-1.952.363-4.064.456-5.953-.173a10.666 10.666 0 0 1-4.84-3.084c-1.26-1.436-2.02-3.133-2.716-4.739-.694-1.612-1.348-3.185-2.291-4.513-.94-1.32-2.173-2.357-3.501-3.116-2.694-1.479-5.71-1.855-8.291-1.4-2.601.451-4.739 1.721-6.297 3.108a15.204 15.204 0 0 0-3.33 4.201c-1.386 2.632-1.526 4.33-1.62 4.3-.01-.002 0-.105.031-.304.039-.197.069-.497.171-.878.173-.767.521-1.887 1.196-3.232a15.069 15.069 0 0 1 3.31-4.352c1.576-1.447 3.76-2.791 6.46-3.29 2.675-.498 5.806-.142 8.635 1.382 1.393.782 2.7 1.865 3.701 3.254.998 1.39 1.674 3.002 2.371 4.603.701 1.597 1.449 3.231 2.635 4.569a10.074 10.074 0 0 0 4.566 2.891c1.791.585 3.715.501 5.663.144 1.927-.324 4.085-.717 6.137.053 1.014.36 1.92 1.096 2.438 2.039.529.94.71 1.996.765 3 .101 2.024-.261 3.961.185 5.757.21.886.607 1.712 1.258 2.28.652.566 1.51.834 2.398.946.89.126 1.812.132 2.734.265.914.123 1.872.4 2.614.999 1.515 1.214 1.959 3.152 1.94 4.832-.024 1.738-.585 3.313-1.054 4.798-.483 1.484-.92 2.923-.984 4.339a10.26 10.26 0 0 0 .633 3.995c.909 2.444 2.617 4.272 4.429 5.273 1.819 1.024 3.663 1.327 5.132 1.337 2.991-.024 4.476-1.017 4.498-.904Z"/>
  <path fill="#17282F" d="M872.169 184.031s.283.206.579.779c.295.561.533 1.553.221 2.76-.169.592-.47 1.239-1.004 1.791a4.457 4.457 0 0 1-2.138 1.204c-1.706.464-3.983-.034-5.468-1.736-.744-.827-1.303-1.878-1.606-3.047-.301-1.175-.304-2.448-.153-3.716.257-2.527 1.224-5.175.561-7.876-.305-1.312-.981-2.651-2.19-3.336-1.207-.713-2.746-.563-4.218-.192-1.484.335-3.04.939-4.774.733a4.16 4.16 0 0 1-2.324-1.097c-.635-.599-1.08-1.355-1.392-2.145-.626-1.61-.642-3.283-.835-4.836a10.652 10.652 0 0 0-1.381-4.323c-1.514-2.596-4.014-4.455-6.68-5.201-2.687-.786-5.419-.234-7.883.254-2.476.508-4.875.972-7.072.71a14.649 14.649 0 0 1-5.589-1.748 14.356 14.356 0 0 1-3.503-2.67c-1.672-1.765-2.151-3.046-2.151-3.046.068-.047.634 1.19 2.331 2.87a14.6 14.6 0 0 0 3.496 2.53 14.467 14.467 0 0 0 5.46 1.612c2.121.225 4.443-.246 6.923-.779 2.458-.505 5.282-1.116 8.152-.303 2.822.775 5.456 2.715 7.064 5.454.8 1.362 1.316 2.95 1.472 4.561.194 1.593.224 3.22.798 4.679.542 1.461 1.694 2.686 3.207 2.846 1.496.191 3.017-.364 4.539-.712 1.493-.373 3.249-.573 4.673.274 1.417.821 2.135 2.325 2.459 3.728.338 1.428.262 2.89.041 4.222-.208 1.344-.5 2.615-.652 3.851-.159 1.231-.163 2.435.105 3.535.271 1.097.783 2.088 1.463 2.866 1.357 1.598 3.441 2.084 5.044 1.69a4.176 4.176 0 0 0 2.003-1.07c.504-.494.802-1.092.98-1.644.332-1.129.15-2.082-.098-2.64-.246-.568-.489-.809-.46-.832Zm-111.552 35.857c.099-.032-.317 1.174.755 2.776.524.75 1.485 1.578 2.813 1.664 1.292.092 2.869-.65 3.665-2.096.4-.712.515-1.589.347-2.47-.165-.882-.576-1.754-1.108-2.588-1.035-1.655-2.705-3.314-3.133-5.71-.46-2.313.104-4.95 1.677-7.006a10.567 10.567 0 0 1 2.895-2.62c1.132-.715 2.424-1.144 3.685-1.542 1.264-.4 2.518-.762 3.614-1.353 1.092-.579 1.997-1.445 2.43-2.533.438-1.086.439-2.296.231-3.423-.208-1.14-.628-2.203-1.127-3.212-.989-2.013-2.167-3.915-2.572-5.98-.416-2.049-.104-4.048.581-5.673.683-1.652 1.808-2.848 2.744-3.844.952-.999 1.759-1.858 2.303-2.646 1.125-1.576 1.092-2.729 1.182-2.701.01.001.011.068.002.199-.017.129-.012.329-.08.578-.096.504-.356 1.239-.894 2.062-.526.83-1.323 1.73-2.247 2.749-.912 1.021-1.966 2.193-2.586 3.772-.628 1.56-.894 3.465-.481 5.393.402 1.942 1.555 3.782 2.584 5.828.515 1.026.969 2.15 1.197 3.359.227 1.201.243 2.528-.249 3.769-.489 1.248-1.536 2.239-2.713 2.863-1.184.637-2.469 1.005-3.727 1.405-1.261.396-2.481.804-3.541 1.472a9.99 9.99 0 0 0-2.725 2.452c-1.476 1.915-2.009 4.363-1.599 6.518.365 2.198 1.929 3.8 3.005 5.54.543.877.975 1.809 1.144 2.782.173.967.029 1.982-.439 2.776-.924 1.603-2.659 2.37-4.095 2.236-1.475-.136-2.47-1.069-2.992-1.88a4.018 4.018 0 0 1-.664-2.14c.012-.52.118-.776.118-.776Z"/>
  <path fill="#33535F" d="M786.499 255.34c-1.527 2.025-14.186 12.921-20.306 19.098-2.763 2.787-9.225 7.954-9.225 7.954l23.568 28.716 17.106-12.53s4.814 12.18 7.755 18.107c2.941 5.925 11.199 30.921 11.199 30.921s52.728.528 61.82-3.422c9.092-3.951 15.877-9.66 15.877-9.66l-10.211-36.998c-1.337-14.109-10.934-67.105-10.934-67.105s-15.34-2.911-23.095-.936c0 0-52.828 19.091-56.677 21.308-4.998 2.88-6.877 4.547-6.877 4.547Z"/>
  <path fill="#A7A9A8" d="m756.968 282.392 4.513-3.722c-2.347 1.988-4.499 3.71-4.513 3.722Z"/>
  <path fill="#20353D" d="M882.612 340.215s-6.5-29.771-12.522-30.076c-6.02-.304-21.182-13.087-21.182-13.087l-90.254-12.605-1.686-2.055c.014-.012 2.166-1.733 4.514-3.721l37.298 2.677 82.5 12.052 7.846 44.899-6.514 1.916Z"/>
  <path fill="#33535F" d="m872.695 230.34 34.666 9.791-9.724 28.219-18.196-1.33s-7.262-28.497-6.726-29.389c.536-.893-.02-7.291-.02-7.291Z"/>
  <path fill="#17282F" d="M789.245 270.657c.046-.015.243.477.562 1.377l1.31 3.823a996.031 996.031 0 0 0 4.327 12.601 997.864 997.864 0 0 0 4.533 12.532c.542 1.492 1 2.76 1.378 3.799.316.901.469 1.408.425 1.425-.044.019-.283-.454-.676-1.325-.395-.871-.936-2.141-1.584-3.721a277.118 277.118 0 0 1-4.731-12.478c-1.73-4.916-3.168-9.41-4.14-12.685a120.665 120.665 0 0 1-1.1-3.892c-.24-.924-.35-1.443-.304-1.456Zm85.411-31.249c.189-.032 1.825 8.732 3.655 19.572 1.828 10.845 3.158 19.659 2.969 19.691-.189.032-1.824-8.729-3.653-19.575-1.83-10.841-3.159-19.656-2.971-19.688Z"/>
  <path fill="#F2575D" d="M963.148 599.263c-4.117 0-7.512-.129-10.683-.251-3.846-.147-7.169-.272-10.988-.131-11.68.42-27.896-2.347-35.166-11.576-4.632-5.88-4.176-22.613 1.57-57.757.174-1.057.32-1.956.432-2.663l9.219 1.458a451.23 451.23 0 0 1-.44 2.712c-6.629 40.544-4.615 48.813-3.441 50.488 4.53 5.748 17.236 8.385 27.486 8.01 4.171-.153 7.819-.014 11.682.132 5.728.219 12.221.464 22.55-.128l.535 9.319c-5.02.288-9.161.387-12.756.387Z"/>
  <path fill="#33535F" d="m724.419 555.364-5.748 28.691s-28.503 10.324-28.777 15.633l55.413.082-.067-16.094 9.114-26.466-29.935-1.846Z"/>
  <path fill="#DADBD8" d="M735.457 581.593c1.086.286 1.846 1.496 1.604 2.592-.241 1.096-1.465 1.878-2.556 1.612-1.089-.265-2.046-1.691-1.684-2.753.363-1.063 1.851-1.905 2.844-1.383"/>
  <path fill="#17282F" d="m745.307 599.767-.014-3.557-53.786 1.002s-1.756 1.101-1.89 2.776l55.69-.221Zm-27.14-15.527c.013.272 1.38.384 2.732 1.251 1.374.831 2.078 2.008 2.329 1.897.251-.056-.171-1.685-1.827-2.705-1.646-1.034-3.296-.692-3.234-.443Zm-5.845 2.482c-.06.266 1.128.719 2.066 1.866.974 1.118 1.218 2.365 1.49 2.352.258.04.43-1.561-.763-2.965-1.182-1.415-2.789-1.515-2.793-1.253Zm-3.268 7.056c.249.056.617-1.315-.099-2.805-.704-1.494-1.999-2.072-2.112-1.843-.152.225.685 1.021 1.253 2.253.598 1.218.687 2.369.958 2.395Zm10.589-14.422c.117.249 1.366-.14 2.912-.05 1.546.059 2.753.566 2.894.33.155-.197-1.026-1.197-2.849-1.28-1.82-.095-3.093.786-2.957 1Z"/>
  <path fill="#33535F" d="m904.416 565.653 14.858 18.839s-28.502 10.325-28.777 15.635l55.415.081-.062-14.568-19.784-27.992-21.65 8.005Z"/>
  <path fill="#DADBD8" d="M936.061 582.031c1.086.286 1.846 1.496 1.604 2.593-.241 1.097-1.465 1.878-2.556 1.612-1.089-.266-2.046-1.691-1.684-2.754.363-1.063 1.851-1.904 2.844-1.382"/>
  <path fill="#17282F" d="m945.912 600.205-.016-3.557-53.785 1.003s-1.756 1.101-1.89 2.776l55.691-.222Zm-27.141-15.526c.012.272 1.38.384 2.732 1.25 1.374.831 2.08 2.008 2.329 1.898.252-.057-.171-1.686-1.827-2.705-1.645-1.035-3.296-.693-3.234-.443Zm-5.846 2.483c-.06.265 1.128.718 2.067 1.865.973 1.119 1.217 2.365 1.489 2.352.257.04.432-1.561-.763-2.965-1.181-1.413-2.789-1.515-2.793-1.252Zm-3.267 7.054c.249.056.617-1.315-.099-2.804-.704-1.494-1.999-2.073-2.112-1.844-.152.226.685 1.022 1.253 2.254.597 1.218.687 2.369.958 2.394Zm-88.397-248.301c.36 2.156-2.95 33.55-2.95 33.55s-72.827 75.339-77.491 85.026c-4.664 9.685-22.053 111.809-22.053 111.809l28.764 6.155s13.578-42.168 19.318-59.028c5.739-16.863 4.898-31.724 7.715-35.996 1.007-1.528 4.745-7.43 9.967-11.038 73.692-50.906 85.56-71.426 85.56-71.426l-15.904-58.15-32.926-.902Z"/>
  <path fill="#17282F" d="M856.937 393.362s-16.234 86.725-12.862 97.439c3.372 10.712 4.102 11.957 8.276 18.34 4.172 6.381 59.624 74.714 59.624 74.714l28.048-13.065c-.564-.225-20.248-26.739-23.79-34.587-3.541-7.849-16.842-32.213-21.818-36.265-4.978-4.05-7.512-8.297-6.571-15.807.941-7.509 25.188-69.282 26.975-81.897 1.786-12.613 2.56-23.983-5.746-37.157-8.308-13.176-16.774-28.372-16.774-28.372l-47.447 10.042 12.085 46.615Z"/>
  <path fill="#33535F" d="M856.409 392.209c.188.032-1.337 9.984-3.408 22.226-2.073 12.245-3.905 22.144-4.093 22.112-.189-.032 1.336-9.983 3.408-22.228 2.071-12.242 3.904-22.143 4.093-22.11Zm-.604 2.316c-.048.011-.194-.472-.421-1.349-.255-1.028-.565-2.268-.927-3.721a334.604 334.604 0 0 0-3.257-12.215c-1.369-4.743-2.736-9-3.752-12.075a3191.85 3191.85 0 0 1-1.197-3.642c-.278-.863-.408-1.35-.364-1.366.045-.017.262.438.617 1.272.357.835.84 2.056 1.408 3.575 1.136 3.039 2.581 7.284 3.956 12.044 1.372 4.757 2.411 9.12 3.067 12.297a88.09 88.09 0 0 1 .714 3.775c.146.896.203 1.396.156 1.405Zm-4.905 1.776c-.109.064-1.032-1.537-2.876-3.851-1.837-2.313-4.71-5.264-8.432-7.812-3.73-2.534-7.526-4.132-10.352-4.996-2.826-.873-4.654-1.145-4.634-1.272.008-.046.468-.012 1.298.092.832.091 2.024.326 3.474.708 2.897.755 6.804 2.311 10.606 4.894 3.794 2.597 6.667 5.665 8.428 8.088.886 1.208 1.54 2.232 1.928 2.973.402.736.602 1.151.56 1.176Z"/>
  <path fill="#F2575D" d="m885.905 294.926-.434-3.208-40.182-9.123a198.872 198.872 0 0 0-22.277-3.735l-138.385-15.129-59.214-11.364-1.76 9.167 59.399 11.398.185.036 138.759 15.17a189.1 189.1 0 0 1 21.227 3.558l33.866 7.69 29.574 218.654 9.06 17.062a30.467 30.467 0 0 0 .956-12.649l-30.774-227.527Z"/>
  <path fill="#F9A78D" d="M665.224 256.545s-5.795 2.468-6.473 3.908c-.679 1.44-1.167 3.565-1.167 3.565s7.111 10.016 7.988 10.511c.876.495 20.832 6.819 20.832 6.819l8.517-6.979s-9.406-7.443-12.222-8.364c0 0-2.44-.799-2.068-1.3.202-.273.733-1.551 1.174-2.655a1.77 1.77 0 0 0-1.18-2.369c-1.106-.296-2.432-.479-3.145.045 0 0-.42-3.465-4.18-2.462 0 0 .001-2.531-2.507-3.024-3.573-.706-4.406 2.389-4.406 2.389l-1.163-.084Z"/>
  <path fill="#F57F62" d="M677.061 271.634c-.033.058-.781-.142-1.796-.941-.486-.395-1.038-1.101-1.094-2.028-.052-.908.193-1.775.408-2.692.926-3.693 2.658-6.292 2.804-6.189.181.097-1.236 2.777-2.132 6.361-.214.892-.46 1.767-.443 2.484.013.721.389 1.293.793 1.707.835.813 1.53 1.198 1.46 1.298Zm-9.266.273c-.176-.023.217-3.377 1.616-7.277 1.381-3.908 3.194-6.756 3.345-6.663.181.099-1.336 3.053-2.692 6.895-1.375 3.834-2.067 7.082-2.269 7.045Zm-4.2-3.645c-.175.01-.343-2.89.568-6.318.888-3.434 2.457-5.88 2.604-5.784.185.096-1.072 2.623-1.932 5.96-.887 3.33-1.031 6.148-1.24 6.142Z"/>
  <path fill="#F9A78D" d="M853.913 299.945s-3.41.505-2.778-2.652c.63-3.157 4.041-6.945 5.808-9.345 1.768-2.399 2.778-3.915 4.168-3.915 1.389 0 25.384-1.641 25.384-1.641l2.632 13.23s-12.988 8.112-15.008 8.49c-2.022.38-7.326 4.673-8.335 1.389 0 0-5.052 3.032-4.925-.884l-2.906.38s-1.389 4.672-3.282 3.536c-1.895-1.137-2.4-2.147-1.516-4.799.884-2.653.758-3.789.758-3.789Z"/>
  <path fill="#F2575D" d="M569.496 206.991 595.352 210c21.173 2.464 36.34 21.626 33.875 42.799l-.616 5.289c-2.464 21.174-21.626 36.34-42.799 33.876l-25.855-3.009c-9.816-1.143-16.845-10.024-15.704-19.84l5.403-46.42c1.143-9.816 10.025-16.847 19.84-15.704Z"/>
  <path fill="#CC4341" d="M563.854 289.405c4.69-9.189 8.668-23.064 10.59-39.589 1.995-17.135 1.27-32.288-1.389-42.411.04.072 7.777 14.092 5.3 37.79-3.355 32.086-14.301 43.994-14.501 44.21Z"/>
  <path fill="#F2575D" d="M542.221 246.066c3.435-29.521 6.464-55.539 22.332-51.577 8.692 2.169 13.327 25.806 9.891 55.326-3.435 29.522-13.428 50.594-22.332 51.578-15.173 1.677-13.327-25.807-9.891-55.327Z"/>
  <path fill="#F2575D" d="M539.975 245.804c3.437-29.52 12.306-52.743 19.814-51.87 7.508.874 10.807 25.514 7.372 55.035-3.436 29.52-12.306 52.743-19.813 51.869-7.508-.873-10.809-25.513-7.373-55.034Z"/>
  <path fill="#CC4341" d="M547.76 300.862a3.557 3.557 0 0 1-1.2-.208 4.085 4.085 0 0 1-.606-.273c-1.228-.68-2.32-2.064-3.263-4.045a29.35 29.35 0 0 1-.18-.39c-.613-1.369-1.16-3.001-1.636-4.865-.04-.153-.077-.307-.116-.463-.447-1.83-.828-3.874-1.14-6.102l-.08-.591a105.591 105.591 0 0 1-.748-8.491l-.04-.848c-.089-2.056-.135-4.2-.135-6.42 0-6.858.436-14.434 1.359-22.362 3.373-28.98 11.985-51.894 19.401-51.894.139 0 .276.008.414.024 5.49.639 8.73 13.994 8.73 32.672.002 6.859-.436 14.435-1.358 22.363-3.374 28.98-11.986 51.893-19.402 51.893Z"/>
  <path fill="#17282F" d="M552.112 301.393c-.05-.108 1.748-.093 4.083-1.953 2.336-1.8 4.968-5.272 7.354-9.981 4.795-9.44 8.715-23.738 10.562-39.788 1.861-16.054 1.39-30.864-1.035-41.172-1.203-5.139-2.957-9.135-4.86-11.388-1.907-2.31-3.739-2.518-3.663-2.622 0 0 .42.038 1.143.358.727.302 1.732.957 2.724 2.088 2.012 2.253 3.86 6.281 5.133 11.449 2.568 10.367 3.115 25.252 1.248 41.367-1.856 16.113-5.869 30.468-10.816 39.933-2.462 4.72-5.189 8.2-7.626 9.971-1.206.896-2.299 1.366-3.064 1.552-.763.204-1.183.186-1.183.186Z"/>
  <path fill="#17282F" d="M547.348 300.839c-.004-.053.412-.011 1.142-.223.729-.193 1.76-.692 2.828-1.666 2.168-1.926 4.437-5.566 6.446-10.358 4.068-9.593 7.37-23.744 9.223-39.537 1.84-15.803 1.709-30.337-.092-40.6-.881-5.121-2.215-9.185-3.805-11.612-.778-1.22-1.618-1.992-2.263-2.385-.637-.414-1.057-.468-1.037-.523.002-.012.101.011.292.065.194.048.478.138.816.336.686.366 1.586 1.132 2.417 2.356 1.696 2.436 3.113 6.53 4.063 11.676 1.938 10.314 2.145 24.91.3 40.767-1.862 15.843-5.248 30.033-9.463 39.652-2.081 4.801-4.441 8.455-6.719 10.368-1.124.965-2.212 1.444-2.972 1.597-.38.103-.678.099-.877.1-.199.004-.299-.001-.299-.013Z"/>
  <path fill="#17282F" d="M556.722 231.66c-.564 4.843-2.267 8.624-3.805 8.445-1.537-.178-2.326-4.249-1.762-9.093.564-4.844 2.266-8.624 3.804-8.445 1.537.178 2.327 4.249 1.763 9.093Zm-3.135 32.476c-.563 4.844-2.267 8.626-3.803 8.446-1.537-.179-2.326-4.25-1.762-9.094.562-4.842 2.266-8.624 3.802-8.445 1.538.179 2.327 4.251 1.763 9.093Z"/>
  <path fill="#F2575D" d="m625.015 264.833 18.12 2.128 2.452-11.488-16.552-5.135-4.02 14.495Z"/>
  <path fill="#17282F" d="M643.036 267.3c-.196-.031.157-2.742.937-5.992.782-3.248 1.434-5.864 1.614-5.835.198.032-.155 2.741-.938 5.993-.78 3.247-1.43 5.863-1.613 5.834Zm-13.484-24.528c.048-.005.136.426.253 1.212.126.786.239 1.931.323 3.351a52.215 52.215 0 0 1-.6 11.093c-.699 4.299-1.921 8.075-3.072 10.68-.567 1.307-1.088 2.336-1.495 3.022-.4.688-.641 1.056-.683 1.033-.104-.056.711-1.609 1.722-4.24 1.024-2.624 2.152-6.363 2.842-10.607.692-4.241.83-8.145.795-10.964-.04-2.821-.197-4.568-.085-4.58Z"/>
  <path fill="#33535F" d="m39.7 551.633-9.945 40.211-16.964 29.52c-1.223 2.128-.402 4.854 1.787 5.939a4.157 4.157 0 0 0 3.856-.074c7.642-4.178 35.674-19.7 36.238-22.684.654-3.456 13.284-41.713 13.284-41.713L39.7 551.633Z"/>
  <path fill="#17282F" d="m14.578 627.303 40.828-25.455-.46 1.695a6.397 6.397 0 0 1-2.537 3.596c-3.328 2.288-12.655 8.404-33.855 20.126a4.19 4.19 0 0 1-3.976.038Z"/>
  <path fill="#fff" d="M28.385 612.337c-.255.051-.58-2.291-2.633-4.067-2-1.838-4.344-1.879-4.327-2.139-.009-.108.578-.28 1.543-.156.956.117 2.262.618 3.382 1.613 1.116 1 1.77 2.245 2.001 3.189.24.947.142 1.556.034 1.56Zm-4.278 4.575c-.236.12-1.156-1.53-3.047-2.688-1.865-1.202-3.74-1.306-3.735-1.571-.06-.236 2.08-.557 4.213.797 2.148 1.334 2.804 3.411 2.57 3.462Zm11.4-9.984c-.238.138-1.64-2.408-4.424-4.467-2.752-2.105-5.572-2.736-5.507-3.006-.007-.23 3.09.028 6.048 2.276 2.978 2.218 4.104 5.139 3.883 5.197Zm4.036-11.969c-.17.211-2.11-1.316-4.934-2.207-2.812-.928-5.27-.822-5.288-1.093-.056-.227 2.54-.765 5.564.226 3.031.964 4.834 2.923 4.658 3.074Zm3.216-11.73c-.185.198-2.027-1.743-5.076-2.435-3.034-.76-5.542.142-5.62-.12-.043-.101.527-.482 1.586-.764 1.051-.282 2.604-.389 4.242-.001 1.637.395 2.977 1.192 3.79 1.92.822.729 1.16 1.329 1.078 1.4Zm-4.399-4.647c-.05-.014.005-.576.356-1.527a10.901 10.901 0 0 1 2.268-3.631c.63-.625 1.335-1.457 2.585-1.678.623-.114 1.415.215 1.741.874.327.644.297 1.34.138 1.979-.73 2.524-3.558 4.384-6.489 3.965-2.928-.468-5.06-2.815-5.59-5.316-.093-.636-.074-1.377.417-1.969.487-.597 1.367-.645 1.909-.39 1.13.501 1.687 1.39 2.24 2.089a12.151 12.151 0 0 1 1.864 3.852c.269.976.286 1.54.235 1.549-.169.065-.47-2.24-2.607-5.012-.55-.654-1.172-1.46-1.997-1.772-.402-.156-.803-.089-1.04.206-.24.281-.294.806-.2 1.31.464 2.056 2.418 4.196 4.9 4.555 2.465.376 4.948-1.263 5.556-3.288.138-.491.143-1.022-.039-1.386-.178-.358-.547-.545-.954-.496-.856.1-1.602.796-2.215 1.381-2.469 2.472-2.914 4.793-3.078 4.705Z"/>
  <path fill="#33535F" d="m318.588 551.883 6.219 30.808s30.752 11.354 31.12 17.066l-59.355.231-.136-15.208-7.624-32.863 29.776-.034Z"/>
  <path fill="#17282F" d="m296.572 599.988.145-4.848 56.855 1.59s2.646 1.15 2.354 3.027l-59.354.231Z"/>
  <path fill="#fff" d="M325.121 582.677c-.008.292-1.457.431-2.878 1.376-1.448.905-2.179 2.174-2.446 2.059-.268-.055.159-1.803 1.9-2.916 1.732-1.129 3.487-.787 3.424-.519Zm6.536 2.727c.067.283-1.185.786-2.165 2.024-1.016 1.211-1.259 2.548-1.548 2.535-.272.048-.479-1.663.768-3.18 1.233-1.527 2.939-1.658 2.945-1.379Zm3.561 7.763c-.262.062-.672-1.395.066-2.997.728-1.61 2.092-2.245 2.214-2.003.166.239-.71 1.103-1.297 2.428-.617 1.309-.695 2.541-.983 2.572Zm-11.497-17.088c-.12.267-1.45-.132-3.088-.013-1.641.085-2.913.645-3.065.394-.169-.211 1.071-1.295 3.003-1.408 1.929-.128 3.292.796 3.15 1.027Z"/>
  <path fill="#F9A78D" d="M217.79 285.936s28.534 23.438 39.62 23.59c19.601.268 71.734-30.102 71.734-30.102l-10.024-15.266-56.844 15.726-39.968-26.705-4.518 32.757Z"/>
  <path fill="#17282F" d="M132.965 132.484c.924-2.748 3.763-4.73 6.662-4.65 2.901-3.135 8.085-3.842 11.72-1.595 2.266-1.868 5.532-2.44 8.298-1.453 2.767.985 4.935 3.494 5.51 6.374 2.83-.913 6.189.175 7.948 2.574 1.758 2.398 1.784 5.929.061 8.353 3.319.535 5.955 3.823 5.756 7.179-.197 3.356-3.203 6.309-6.561 6.449l-36.896-15.499c-2.358-1.689-3.422-4.982-2.498-7.732Z"/>
  <path fill="#F9A78D" d="M173.491 156.512c-3.528-14.755-17.795-24.323-32.784-21.992l-1.49.23c-15.915 3.436-21.888 18.871-18.014 34.686l10.662 60.353-8.75 5.328 30.002 17.405 29.606-25.956-12.955-2.802-1.336-10.59s15.067-4.801 12.857-20.268c-1.068-7.469-4.517-22.672-7.798-36.394Z"/>
  <path fill="#F57F62" d="M168.432 213.175s-9.641 2.084-21.023-2.816c0 0 6.375 10.878 21.563 7.093l-.54-4.277Z"/>
  <path fill="#17282F" d="M171.556 171.671c.223 1.159-.573 2.302-1.779 2.555-1.202.253-2.36-.476-2.581-1.633-.223-1.158.575-2.302 1.776-2.556 1.205-.255 2.363.478 2.584 1.634Zm-.209-7.091c-.228.331-2.091-.647-4.461-.271-2.375.34-3.926 1.832-4.228 1.582-.147-.11.05-.672.722-1.342.662-.665 1.851-1.397 3.33-1.621 1.48-.221 2.806.128 3.608.575.817.446 1.144.928 1.029 1.077Zm-21.757 10.081c.222 1.158-.575 2.3-1.78 2.555-1.203.255-2.359-.476-2.582-1.635-.222-1.157.576-2.301 1.778-2.554 1.205-.255 2.361.477 2.584 1.634Zm-1.493-6.013c-.228.331-2.093-.645-4.463-.27-2.373.341-3.924 1.832-4.226 1.581-.147-.108.048-.671.724-1.341.66-.666 1.849-1.398 3.328-1.622 1.478-.221 2.806.13 3.608.575.814.447 1.144.928 1.029 1.077Zm11.346 16.255c-.032-.133 1.402-.618 3.744-1.295.596-.156 1.15-.365 1.189-.796.073-.459-.28-1.072-.684-1.732l-2.508-4.335c-3.509-6.18-6.149-11.3-5.9-11.44.251-.138 3.297 4.759 6.805 10.94.852 1.526 1.664 2.98 2.439 4.372.336.654.852 1.374.684 2.328-.093.479-.487.878-.859 1.042-.369.178-.709.238-1.006.302-2.384.504-3.875.746-3.904.614Zm-12.262-20.144c-.233.646-2.36.263-4.881.516-2.527.198-4.58.952-4.893.356-.139-.285.234-.886 1.074-1.49.834-.603 2.148-1.158 3.663-1.295 1.513-.133 2.884.181 3.784.631.908.448 1.355.976 1.253 1.282Zm23.685-5.309c-.396.629-2.448.438-4.795.85-2.359.344-4.259 1.171-4.82.696-.251-.234-.039-.83.732-1.5.76-.665 2.111-1.346 3.728-1.608 1.616-.258 3.101-.033 4.02.362.931.397 1.305.897 1.135 1.2Z"/>
  <path fill="#17282F" d="M170.905 149.662s-5.574-9.033-10.586-10.565c-6.068-1.854-7.535 4.718-13.147 4.052-5.612-.667-11.405-2.451-16.255 2.561-5.309 5.485-1.994 8.24-1.3 15.148 2.81 28.003-1.04 36.644-4.516 23.788-.381-1.408-4.536-1.929-6.066-7.892-1.985-7.732-3.769-17.217-2.882-23.061.746-4.926 2.918-8.587 7.164-12.911 6.701-6.825 17.094-8.565 24.274-8.953 7.181-.388 22.076 5.629 23.314 17.833Z"/>
  <path fill="#F9A78D" d="M126.02 184.075c-.468-2.368-2.814-3.931-5.152-3.335-2.837.722-5.786 2.855-4.671 8.774 1.978 10.501 12.113 6.349 12.074 6.045-.026-.207-1.385-7.097-2.251-11.484Z"/>
  <path fill="#F57F62" d="M125.242 192.037c-.052-.024-.159.163-.441.363a1.864 1.864 0 0 1-1.362.287c-1.186-.199-2.453-1.784-2.86-3.667a6.14 6.14 0 0 1 .019-2.716c.176-.829.571-1.459 1.111-1.664a.948.948 0 0 1 1.174.299c.197.266.169.489.228.497.035.02.192-.219.026-.637a1.183 1.183 0 0 0-.536-.579c-.291-.159-.682-.193-1.062-.077-.8.208-1.388 1.09-1.605 1.988a6.32 6.32 0 0 0-.083 3.045c.466 2.104 1.922 3.88 3.523 4.033.775.054 1.349-.285 1.621-.593.276-.32.287-.565.247-.579Z"/>
  <path fill="#17282F" d="M123.046 163.595c1.516.723 3.115 1.463 4.791 1.369 1.677-.093 3.419-1.336 3.443-3.016.011-.753-.301-1.577.093-2.221.471-.767 1.568-.72 2.466-.763 3.12-.152 6.177-4.098 6.494-7.205.966 1.051 2.735 1.137 3.8.191 1.066-.948 1.43-1.451 2.192-2.656.762-1.206 1.915-2.358 3.34-2.376.798-.011 1.6.341 2.375.149 1.367-.339 1.791-2.067 1.787-3.476-.004-1.407-.091-3.037.966-3.968.98-.861 2.452-.68 3.758-.691 1.305-.01 2.905-.566 3.038-1.864.07-.681-.318-1.326-.77-1.841-2.044-2.332-5.808-2.924-8.471-1.333-1.575-3.327-5.257-5.534-8.933-5.352-3.678.18-7.127 2.737-8.367 6.204-2.545-1.678-5.918-2.023-8.751-.896-2.833 1.125-5.047 3.693-5.746 6.66-2.672-.276-5.444 1.172-6.744 3.522-1.3 2.351-1.052 5.468.602 7.586-1.729 1.378-3.06 3.516-2.76 5.706.301 2.191 2.768 4.036 4.786 3.134-.587 1.833.465 4.034 2.26 4.728 1.797.694 4.055-.227 4.853-1.979"/>
  <path fill="#33535F" d="M153.615 136.877c.009-.001.018.065.028.193.006.13.028.322.021.574a6.687 6.687 0 0 1-.451 2.153 7.62 7.62 0 0 1-1.952 2.859c-.985.925-2.408 1.733-4.13 1.905l.141-.261c.468.852.548 1.948.241 2.946-.278 1.01-.818 1.951-1.402 2.876-.303.448-.547.958-.992 1.395-.435.421-.988.712-1.576.881-1.167.338-2.568.178-3.587-.689l.377-.175c.058 2.14-.809 4.426-2.505 5.999-.891.881-2.064 1.519-3.289 1.675-1.225.178-2.415-.003-3.532-.218l.262-.168a8.432 8.432 0 0 1-1.991 3.646c-.911.986-2.221 1.685-3.521 1.573-2.573-.14-4.548-1.955-5.184-3.853l.257.073c-1.132.867-2.449 1.137-3.544 1.097a5.974 5.974 0 0 1-2.705-.734 5.194 5.194 0 0 1-1.379-1.107c-.252-.317-.364-.497-.353-.504.046-.052.474.747 1.817 1.452a5.918 5.918 0 0 0 2.625.633c1.051.016 2.294-.27 3.334-1.093l.181-.143.077.218c.617 1.766 2.509 3.453 4.89 3.556 1.177.089 2.327-.532 3.191-1.466a8.035 8.035 0 0 0 1.866-3.456l.053-.208.21.04c1.1.208 2.247.374 3.378.206 1.133-.152 2.186-.719 3.036-1.555 1.602-1.489 2.417-3.628 2.372-5.655l-.012-.509.389.335c.861.744 2.119.909 3.167.608.528-.148 1.02-.404 1.4-.768.37-.35.629-.856.936-1.308.584-.912 1.112-1.819 1.38-2.759.293-.935.226-1.899-.18-2.673l-.126-.239.268-.023c1.626-.142 3.002-.886 3.968-1.761a7.585 7.585 0 0 0 1.959-2.723c.713-1.745.508-2.858.587-2.845Z"/>
  <path fill="#F57F62" d="m161.589 189.767-.045-.019-.002-.001.047.02Z"/>
  <path fill="#17282F" d="M159.487 191.868c.07.165-.411.592-1.384.885-.96.295-2.435.388-3.932-.138-1.498-.527-2.588-1.524-3.151-2.355-.576-.837-.685-1.472-.525-1.556.334-.205 1.646 1.741 4.138 2.6 2.479.891 4.722.195 4.854.564Zm-40.279 182.249c-.84 1.694-54.278 83.608-57.638 90.805-3.361 7.195-35.184 115.195-35.184 115.195s34.466 10.545 35.306 10.545c.841 0 33.617-100.708 33.617-100.708s6.346-.641 5.417-9.795c0 0 55.445-59.477 69.306-62.016 13.862-2.54 76.027 45.718 81.488 57.571 5.46 11.852 8.82 17.356 8.82 17.356l31.503 85.933 34.443-10.16s-32.342-104.982-35.703-115.141c-3.36-10.16-70.145-79.585-70.145-79.585h-101.23Z"/>
  <path fill="#33535F" d="M217.513 394.621c.017.125-2.187.435-5.643 1.357-3.453.915-8.134 2.57-12.912 5.198-4.77 2.645-8.662 5.728-11.276 8.164-2.621 2.434-4.056 4.134-4.152 4.052-.036-.03.295-.476.93-1.26.622-.794 1.605-1.875 2.882-3.147 2.55-2.549 6.449-5.737 11.282-8.416 4.839-2.664 9.612-4.267 13.126-5.067 1.759-.404 3.198-.66 4.2-.766 1.002-.119 1.556-.162 1.563-.115Zm-55.982 17.155c-.087.084-1.426-1.29-3.814-3.231a51.888 51.888 0 0 0-10.122-6.413 51.982 51.982 0 0 0-11.348-3.855c-3.013-.639-4.921-.82-4.91-.941.004-.047.484-.042 1.351.009.869.04 2.119.189 3.652.451 3.064.516 7.253 1.66 11.553 3.709 4.295 2.061 7.814 4.601 10.139 6.663 1.167 1.029 2.068 1.91 2.644 2.56.584.644.891 1.013.855 1.048Zm48.2-87.833-2.847-93.969-37.116-6.21-38.117 5.092-23.088 6.555a32.822 32.822 0 0 0-15.41 9.596l-28.765 31.916 23.422 22.52 20.318-10.797 10.947 59.168-4.97 34.788s30.169 15.452 58.643 16.4c28.476.949 46.308-26.758 46.308-26.758l-9.325-48.301Z"/>
  <path fill="#33535F" d="M240.105 260.823c-2.848.949-21.357 31.323-21.357 31.323l-14.237-13.288 2.373-48.884s2.372 1.898 10.44 9.492c8.068 7.593 22.781 21.357 22.781 21.357Z"/>
  <path fill="#17282F" d="M206.725 240.627c.192-.008.794 11.806 1.343 26.385.549 14.583.838 26.407.648 26.415-.192.006-.793-11.806-1.343-26.388-.549-14.579-.839-26.406-.648-26.412Zm-104.878 16.832c.046-.009.211.582.469 1.658l1.03 4.572c.838 3.866 1.951 9.22 3.137 15.14a1038.161 1038.161 0 0 1 2.939 15.182l.811 4.616c.177 1.092.252 1.702.205 1.71-.047.009-.212-.582-.469-1.659l-1.029-4.572c-.839-3.868-1.952-9.219-3.138-15.139a1030.463 1030.463 0 0 1-2.937-15.177l-.813-4.617c-.177-1.094-.252-1.703-.205-1.714Zm99.086 121.763c.031.037-.569.55-1.682 1.448-.548.46-1.239.997-2.099 1.541-.852.553-1.788 1.244-2.929 1.831-.563.31-1.151.634-1.76.972-.615.332-1.292.604-1.974.926-1.353.67-2.881 1.186-4.472 1.772-3.225 1.042-6.873 1.894-10.769 2.299-3.904.357-7.647.229-11.013-.168-1.676-.265-3.274-.476-4.732-.871-.731-.184-1.448-.318-2.116-.526l-1.915-.612c-1.233-.352-2.285-.85-3.228-1.227a19.166 19.166 0 0 1-2.359-1.107c-1.266-.665-1.952-1.052-1.929-1.093.072-.149 2.823 1.444 7.665 2.96l1.907.563c.665.19 1.376.312 2.101.48 1.446.366 3.028.553 4.683.798 3.327.356 7.019.463 10.868.112 3.844-.401 7.443-1.221 10.637-2.216 1.576-.562 3.092-1.052 4.439-1.692.679-.305 1.353-.562 1.968-.877l1.761-.924c4.458-2.425 6.847-4.523 6.948-4.389Z"/>
  <path fill="#F9A78D" d="M323.296 261.738c.46-.469 12.245-7.87 16.019-8.449 3.773-.579 8.813.808 8.813.808l10.201 6.799s-.072 2.141-3.705 1.9c-3.633-.241-7.139-2.554-7.139-2.554l-4.18-.906 2.266 13.905-16.427 6.183-10.024-15.267 4.176-2.419Z"/>
  <path fill="#A7A9A8" d="m135.898 444.6.007-.006v.002l-.007.004Z"/>
  <path fill="#0F191D" d="M127.484 450.7s-3.705-16.556-7.424-35.037c-1.261-6.269-.867-17.751.204-30.189 3.76 1.653 9.03 3.816 15.215 5.928-.04 2.021-.07 4.11-.09 6.241-1.104-.167-2.02-.265-2.701-.297a20.336 20.336 0 0 0-1.047-.042c-.198 0-.302.011-.304.032-.01.11 1.538.267 4.048.766-.188 21.256.515 46.27.52 46.493l-.006.005-8.415 6.1Z"/>
  <path fill="#20353D" d="M135.385 398.102c-2.51-.499-4.058-.656-4.048-.766.002-.021.106-.032.304-.032.228 0 .582.015 1.047.042.681.032 1.597.13 2.701.297l-.004.459Zm.094-6.701a193.549 193.549 0 0 1-15.214-5.928c2.087-24.226 6.746-52.08 6.746-52.08l2.988-22.424 78.717-17.542.521 14.245-61.434 7.851s-3.874 6.2-6.082 11.373c-2.206 5.176-4.572 31.628-5.816 52.611-.204 3.441-.34 7.505-.426 11.894Z"/>
  <path fill="#F2575D" d="M103.741 599.86h-.077l-47.7.128 3.04-9.664 44.686.203h.069c12.447 0 21.576-3.664 27.898-11.202 11.008-13.125 13.335-38.065 6.916-74.127-1.472-8.264-8.767-31.61-12.846-44.099-8.13-24.894-10.993-50.35-8.509-75.663l7.071-72.116-1.397-4.903 4.188-1.436c7.416-2.544 69.752-15.977 170.844-37.682 40.086-8.607 81.537-17.507 121.484-26.171l1.978 9.121c-39.956 8.666-81.412 17.567-121.502 26.175-76.406 16.405-148.936 31.979-166.367 36.433l-7.01 71.49c-2.357 24.021.366 48.196 8.093 71.853 1.144 3.507 11.24 34.563 13.161 45.361 7.024 39.459 4.095 66.203-8.953 81.762-8.09 9.646-19.889 14.537-35.067 14.537Z"/>
  <path fill="#F9A78D" d="M334.387 281.081s5.294.66 5.748-3.341c0 0 5.664 1.327 6.747-2.036 0 0 4.923-.889 4.455-4.813 0 0 3.906-.69 3.907-3.41.003-3.517-3.987-6.456-6.376-6.632-2.311-.169-2.981 1.422-2.981 1.422s-3.592-3.444-5.784-2.975c-2.192.468-2.515 3.581-2.515 3.581s-2.801-2.633-4.152-1.893c-1.352.739-1.564 3.703-1.564 3.703s-1.34-1.794-2.992-1.274-3.512 2.359-1.369 5.359c.276.385 3.996 5.693 3.996 5.693l-9.757-.236 3.19 7.584 9.447-.732Z"/>
  <path fill="#F57F62" d="M351.367 271.468c-.119 0-.138-.815-.495-2.039-.343-1.228-1.14-2.819-2.385-4.327-2.515-3.021-5.372-4.662-5.234-4.86.046-.076.798.252 1.907.976 1.103.724 2.564 1.864 3.864 3.444 1.304 1.576 2.089 3.322 2.324 4.65.252 1.329.089 2.162.019 2.156Z"/>
  <path fill="#F57F62" d="M343.389 260.464c-.034.068-.564-.385-1.71-.425a5.01 5.01 0 0 0-2.01.366c-.725.298-1.549.815-1.982 1.672l-.087.171-.193-.04c-1.146-.231-2.366-.793-3.583-.337-.585.2-1.125.633-1.473 1.2-.351.56-.476 1.281-.162 1.852l.428.776-.836-.312c-.993-.372-2.046-.767-3.088-.603-.513.081-1.013.296-1.349.665-.34.367-.511.887-.508 1.43-.011 1.537 1.177 2.705 2.325 3.668 1.155.97 2.406 2.022 2.855 3.502l.164.539-.543-.141a26.656 26.656 0 0 0-9.044-.73c-2.224.204-3.49.535-3.51.45-.008-.031.298-.147.886-.312.588-.16 1.46-.359 2.583-.515 2.232-.311 5.515-.412 9.24.496l-.377.399c-.388-1.235-1.51-2.2-2.692-3.172-.59-.5-1.208-1.036-1.715-1.722-.513-.673-.867-1.552-.867-2.462-.004-.672.215-1.384.694-1.898.476-.516 1.129-.778 1.753-.874 1.293-.186 2.437.289 3.428.664l-.407.462c-.449-.842-.23-1.828.207-2.496a3.446 3.446 0 0 1 1.821-1.429c.711-.243 1.476-.215 2.118-.065.646.146 1.216.345 1.765.478l-.28.131c.561-1.019 1.496-1.527 2.291-1.817a4.98 4.98 0 0 1 2.166-.272c.602.065 1.047.24 1.319.4.268.168.385.285.373.301Z"/>
  <path fill="#F57F62" d="M340.135 277.74c-.13-.036.221-.921-.202-2.308-.384-1.379-1.389-3.14-2.782-4.877-2.791-3.499-5.803-5.62-5.679-5.788.079-.158 3.344 1.754 6.223 5.356 1.43 1.784 2.429 3.678 2.717 5.197.328 1.544-.236 2.475-.277 2.42Zm6.746-2.036c-.124-.009-.048-.988-.464-2.472-.389-1.485-1.354-3.424-2.778-5.308-2.847-3.833-6.292-5.791-6.176-5.959.036-.072.958.299 2.272 1.208a20.006 20.006 0 0 1 4.458 4.334c1.474 1.946 2.418 4.018 2.702 5.612.312 1.597.05 2.602-.014 2.585Zm8.212-7.02c-.109-.036.247-.822.002-2.071-.202-1.257-1.23-2.759-2.814-3.948-1.528-1.255-3.277-1.805-4.516-1.521-1.249.228-1.79.924-1.869.838-.079-.014.361-.914 1.759-1.317.674-.195 1.557-.221 2.45.045.896.255 1.786.767 2.603 1.408 1.664 1.234 2.788 2.998 2.873 4.423.136 1.424-.433 2.197-.488 2.143Z"/>
  <path fill="#F9A78D" d="M65.909 278.386s-17.172 19.497-20.03 24.968c-2.858 5.47-7.837 18.426 5.388 22.558 13.225 4.132 69.046-6.069 69.046-6.069l1.417-19.133-43.126.476 6.17-4.66-18.865-18.14Z"/>
  <path fill="#F9A78D" d="m117.493 300.957 7.164-3.532s9.083-1.8 10.996-1.133c1.915.668 11.227 3.217 11.227 3.217s4.228 6.351 3.766 8.059c-.461 1.708-.654 4.189-4.412 3.417 0 0 .867 4.06-2.996 5.128 0 0 .076 3.248-4.138 3.792 0 0-.882 2.914-3.328 3-2.446.088-6.915-1.336-6.915-1.336l-9.834-1.604-7.434 1.132 5.904-20.14Z"/>
  <path fill="#F57F62" d="M137.751 303.876c.004-.083.717-.159 1.841.081 1.116.235 2.639.851 3.973 2.022 1.336 1.169 2.148 2.598 2.527 3.674.387 1.083.404 1.8.321 1.815-.194.081-.776-2.765-3.305-4.967-2.513-2.218-5.412-2.42-5.357-2.625Zm-1.846 7.606c-.009-.178 2.152-.144 4.344 1.224 2.204 1.346 3.2 3.264 3.038 3.334-.17.123-1.35-1.497-3.403-2.744-2.035-1.277-4.011-1.608-3.979-1.814Zm-5.907 4.041c.034-.178 2.233.158 4.663 1.373 2.439 1.203 4.035 2.752 3.914 2.885-.128.159-1.867-1.102-4.222-2.262-2.346-1.175-4.403-1.799-4.355-1.996Z"/>
  <path fill="#F2575D" d="m464.373 282.028-25.602 4.696c-20.967 3.847-41.082-10.033-44.927-30.999l-.96-5.238c-3.847-20.966 10.033-41.08 30.999-44.926l25.602-4.696c9.719-1.782 19.043 4.651 20.826 14.37l8.432 45.968c1.782 9.718-4.651 19.042-14.37 20.825Z"/>
  <path fill="#CC4341" d="M460.846 282.672c-.185-.18-11.588-11.325-16.134-34.576-6.204-31.732.817-46.319.916-46.521-1.794 10.16-1.532 24.593 1.469 40.956 3.112 16.965 8.243 31.241 13.749 40.141Z"/>
  <path fill="#F2575D" d="M479.005 236.677c5.363 29.234 10.088 54.995-6.245 55.856-8.945.472-20.3-20.77-25.663-50.002-5.361-29.232-1.98-52.307 6.246-55.856 14.016-6.048 20.301 20.77 25.662 50.002Z"/>
  <path fill="#F2575D" d="M481.229 236.269c5.363 29.232 3.683 54.036-3.75 55.399-7.435 1.364-17.808-21.228-23.17-50.46-5.361-29.233-3.682-54.036 3.752-55.399 7.434-1.364 17.807 21.228 23.168 50.46Z"/>
  <path fill="#CC4341" d="M476.831 291.727c-.062 0-.123-.002-.184-.004-7.359-.36-17.172-22.358-22.338-50.515-2.116-11.533-3.134-22.377-3.137-31.364-.004-13.791 2.388-23.209 6.889-24.035.214-.038.431-.058.648-.058 7.379 0 17.312 22.126 22.52 50.518 2.116 11.534 3.135 22.378 3.138 31.364a98.842 98.842 0 0 1-.246 7.227c-.02.275-.041.545-.064.815-.536 6.4-1.761 11.249-3.63 13.868-.092.128-.184.25-.279.368-.785.974-1.676 1.576-2.669 1.757-.214.04-.431.059-.648.059Z"/>
  <path fill="#DADBD8" d="m505.885 220.165-41.102 7.54-.223-.089c-3.084-4.156-3.84-8.275-2.271-12.358l.172-.141 41.115-7.541a6.4 6.4 0 1 1 2.309 12.589Z"/>
  <path fill="#17282F" d="M505.885 220.165c-.01-.044.404-.094 1.12-.391a6.38 6.38 0 0 0 2.635-2.024c.888-1.128 1.569-2.936 1.199-4.971-.346-1.996-1.931-4.152-4.442-4.828-1.249-.396-2.569-.196-4.001.112l-4.439.835-9.796 1.829-22.454 4.147c-.996.181-1.986.364-2.97.544l-.184.033.039-.034-.015.069-.06.172c-.077.229-.168.455-.225.689-.139.463-.24.932-.319 1.403-.31 1.891-.062 3.817.587 5.559.323.873.727 1.71 1.197 2.5.244.389.479.784.748 1.152l.198.28.08.141c-.123-.005.048-.02.157-.044l.339-.063c1.808-.326 3.577-.646 5.305-.96 6.896-1.236 13.111-2.35 18.356-3.292l12.387-2.16 3.373-.552c.772-.118 1.181-.17 1.185-.146.004.024-.396.121-1.16.284l-3.35.681-12.347 2.376c-5.236.983-11.443 2.147-18.329 3.437l-5.3.986-.339.062-.171.032-.352-.022-.272-.226-.101-.142-.205-.29c-.28-.378-.526-.786-.779-1.19a15.748 15.748 0 0 1-1.259-2.61c-.688-1.829-.96-3.888-.629-5.9.081-.501.189-1 .335-1.49.062-.248.156-.487.237-.728l.064-.182c.025-.05.016-.116.135-.272l.364-.201.185-.035 2.971-.544 22.464-4.093c3.45-.621 6.732-1.212 9.806-1.767l4.447-.794c1.381-.29 2.912-.506 4.231-.059 2.701.764 4.362 3.108 4.69 5.233.358 2.17-.41 4.058-1.368 5.207-.968 1.18-2.06 1.731-2.797 1.987-.749.26-1.171.26-1.171.26Z"/>
  <path fill="#DADBD8" d="m512.113 254.118-41.24 7.564c-2.885-3.875-4.112-8.003-2.31-12.591l41.241-7.564a6.4 6.4 0 0 1 2.309 12.591Z"/>
  <path fill="#17282F" d="M512.113 254.118c-.01-.044.404-.094 1.12-.392a6.388 6.388 0 0 0 2.636-2.024 6.295 6.295 0 0 0 1.196-4.975c-.346-1.996-1.934-4.151-4.448-4.825-1.25-.394-2.569-.192-4.002.116l-4.442.834-9.8 1.831-22.464 4.148c-1.104.201-2.198.403-3.282.601l.26-.213c-.852 2.119-1.054 4.428-.546 6.552.49 2.129 1.564 4.037 2.798 5.712l-.326-.128 29.607-5.305 8.591-1.478 2.3-.366c.524-.076.798-.108.802-.088.003.02-.264.088-.781.201-.575.12-1.331.276-2.281.475-2.058.4-4.951.964-8.556 1.668l-29.562 5.546-.204.039-.122-.167c-1.275-1.716-2.408-3.698-2.932-5.957-.546-2.249-.33-4.731.566-6.957l.072-.182.188-.034 3.282-.602c7.969-1.452 15.56-2.836 22.474-4.094l9.812-1.768 4.448-.795c1.383-.288 2.914-.508 4.234-.061 2.704.76 4.368 3.104 4.697 5.229.357 2.171-.408 4.06-1.365 5.209-.968 1.182-2.06 1.734-2.799 1.988-.749.262-1.171.262-1.171.262Zm-58.77-67.444c.078.088-1.644.602-3.331 3.064-1.708 2.404-3.207 6.495-4.109 11.698-1.819 10.43-1.379 25.249 1.556 41.136 2.922 15.893 7.71 29.918 13.049 39.062 2.655 4.562 5.503 7.868 7.983 9.466 2.498 1.649 4.312 1.312 4.269 1.433 0 0-.412.088-1.196-.007-.785-.076-1.937-.408-3.217-1.198-2.584-1.564-5.53-4.875-8.262-9.443-5.492-9.16-10.374-23.232-13.309-39.188-2.947-15.949-3.313-30.851-1.356-41.349.972-5.235 2.56-9.36 4.372-11.768.889-1.21 1.797-1.979 2.475-2.382.669-.417 1.076-.524 1.076-.524Z"/>
  <path fill="#17282F" d="M458.062 185.809c.02.051-.392.131-1.028.547-.64.399-1.479 1.177-2.216 2.421-1.51 2.478-2.612 6.623-3.128 11.792-1.08 10.366-.092 24.862 2.761 40.506 2.869 15.648 7.251 29.506 11.98 38.792 2.344 4.638 4.809 8.134 7.04 9.989 1.101.937 2.131 1.429 2.863 1.617.73.207 1.148.138 1.145.195 0 .012-.1.02-.299.024-.2.011-.497.008-.878-.083-.764-.148-1.851-.617-3.002-1.544-2.334-1.833-4.889-5.33-7.305-9.973-4.875-9.295-9.347-23.191-12.227-38.892-2.861-15.693-3.78-30.253-2.568-40.684.584-5.201 1.771-9.385 3.388-11.881.791-1.252 1.692-2.028 2.375-2.399.331-.208.619-.292.808-.352.189-.061.287-.087.291-.075Z"/>
  <path fill="#F2575D" d="m376.281 251.031 3.01 11.732 16.397-2.394.057-14.05-19.464 4.712Z"/>
  <path fill="#17282F" d="M398.825 268.674c-.04.025-.306-.331-.756-1.002-.454-.665-1.041-1.677-1.68-2.972-1.3-2.577-2.693-6.353-3.525-10.688-.819-4.34-.909-8.364-.647-11.237.118-1.439.292-2.596.471-3.383.172-.788.288-1.217.336-1.208.119.022-.199 1.771-.317 4.62-.134 2.847.033 6.802.84 11.078.82 4.273 2.117 8.01 3.286 10.61 1.158 2.607 2.095 4.118 1.992 4.182Zm-19.262-5.736c-.184.052-1.068-2.526-1.975-5.755-.905-3.231-1.491-5.891-1.305-5.943.184-.052 1.068 2.524 1.974 5.755.906 3.229 1.491 5.891 1.306 5.943Z"/>
</svg>
