<svg xmlns="http://www.w3.org/2000/svg" width="346" height="334" fill="none" viewBox="0 0 346 334">
  <g clip-path="url(#a)">
    <path fill="#E7E8E5" d="M299.146 285.935h29.165v-9.291h-29.165v9.291Zm-70.993-91.64h29.165v-9.289h-29.165v9.289Zm87.263 103.354-.197-9.29-.004-.194.201-.003 7.291-.091 7.291-.071 14.582-.055.416-.002-.002.416-.035 9.29-.002.38-.377-.002-7.356-.035-7.326-.1-14.482-.243Zm0 0 14.682-.243 7.256-.1 7.226-.035-.378.378-.036-9.29.414.414-14.582-.056-7.291-.07-7.291-.091.197-.197-.197 9.29ZM130.273 71.16l-.198-9.29-.004-.195.202-.002 7.291-.091 7.29-.07 14.583-.057.416-.002-.001.417-.037 9.29-.001.38-.377-.002-7.356-.035-7.327-.1-14.481-.244Zm0 0 14.683-.243 7.256-.1 7.225-.035-.378.377-.036-9.289.414.414-14.583-.056-7.29-.07-7.291-.091.196-.197-.196 9.29Zm16.269 11.714-.197-9.29-.004-.194.201-.003 7.291-.09 7.291-.07 14.582-.057.416-.002-.001.417-.036 9.29-.002.38-.377-.002-7.356-.036-7.326-.1-14.482-.243Zm0 0 14.683-.242 7.255-.1 7.226-.036-.378.378-.036-9.29.414.415-14.582-.056-7.291-.071-7.291-.09.197-.197-.197 9.29Zm16.204-11.714h29.165v-9.29h-29.165v9.29ZM1.417 297.649h29.164v-9.29H1.417v9.29ZM17.686 10.764H46.85v-9.29H17.685v9.29ZM1.417 22.478l-.197-9.29-.004-.194.201-.003 7.291-.091L16 12.83l14.582-.056.416-.002-.001.416-.036 9.29-.002.38-.377-.002-7.356-.035-7.326-.1-14.482-.243Zm0 0 14.683-.243 7.256-.1 7.225-.035-.378.378-.036-9.29.414.414L16 13.546l-7.29-.07-7.292-.091.197-.197-.197 9.29Zm297.73-11.714-.197-9.29-.004-.195.201-.002 7.292-.09 7.29-.071 14.583-.057.416-.001-.002.416-.036 9.29-.001.38-.377-.002-7.356-.035-7.327-.1-14.482-.243Zm0 0 14.683-.243 7.256-.1 7.226-.036-.378.379-.037-9.29.415.415-14.583-.057-7.29-.07-7.292-.092.197-.196-.197 9.29Z"/>
    <path fill="#E7E8E5" d="M327.144 157.992h-97.37V3.879h97.37v154.113ZM225.895-.003v161.877h105.128V-.003H225.895Z"/>
    <path fill="#fff" d="M229.774 157.992h97.37V3.88h-97.37v154.112Z"/>
    <path fill="#E7E8E5" d="M229.771 82.874h97.371v-3.881h-97.371v3.881Z"/>
    <path fill="#D4D6D3" d="M218.749 173.014h119.414v-11.141H218.749v11.141ZM323.549 7.47h-90.187v92.52h90.187V7.47Zm-93.778-3.594h97.371v99.708h-97.371V3.875Z"/>
    <path fill="#D4D6D3" d="M294.125 99.99h1.939V3.875h-1.939v96.113Zm-33.277 0h1.938V3.875h-1.938v96.113Z"/>
    <path fill="#E7E8E5" d="M116.23 157.992H18.86V3.879h97.37v154.113ZM14.98-.003v161.877h105.13V-.003H14.98Z"/>
    <path fill="#fff" d="M18.86 157.992h97.37V3.88H18.86v154.112Z"/>
    <path fill="#E7E8E5" d="M18.856 82.874h97.371v-3.881h-97.37v3.881Z"/>
    <path fill="#D4D6D3" d="M7.835 173.014h119.414v-11.141H7.835v11.141ZM112.635 7.47H22.448v92.52h90.187V7.47ZM18.856 3.876h97.371v99.708h-97.37V3.875Z"/>
    <path fill="#D4D6D3" d="M83.21 99.99h1.94V3.875h-1.94v96.113Zm-33.277 0h1.939V3.875h-1.94v96.113Z"/>
    <path fill="#17282F" d="m0 333.586 43.25-.202 43.25-.073 86.498-.139 86.499.138 43.251.073 43.25.203-43.25.203-43.251.073-86.499.138-86.499-.139-43.25-.073L0 333.586Z"/>
    <path fill="#33535F" d="M345.486 226.6h-105.26v-14.951h105.26V226.6Zm-2.509 4.856H242.736V226.6h100.241v4.856Z"/>
    <path fill="#17282F" d="M342.977 228.208H242.736V226.6h100.241v1.608Z"/>
    <path fill="#33535F" d="M243.723 334h-4.008l11.666-102.544h10.23L243.723 334Z"/>
    <path fill="#17282F" d="m261.609 231.458-1.197 6.861h-9.808l.779-6.861h10.226Z"/>
    <path fill="#33535F" d="M341.989 334h4.008L334.33 231.456h-10.229L341.989 334Z"/>
    <path fill="#17282F" d="m324.103 231.458 1.197 6.861h9.808l-.778-6.861h-10.227Z"/>
    <path fill="#F2575D" d="M318.657 272.241c-.706 3.006-1.452 5.962-1.597 9.046.081.151.065.711-.025.559-.018.496-.774.406-.774-.084.007-.32.015-.639.031-.95-1.767-2.194-4.331-3.585-6.404-5.491-1.675-1.545-2.875-3.384-3.509-5.591-1.719-5.93-.108-12.214-2.176-18.128-1.782-5.101-4.98-9.535-7.686-14.156-2.855-4.886-4.963-10.021-5.174-15.745-.168-4.383.354-10.222 3.689-13.506 3.536-3.484 7.917-.873 10.626 2.234 7.849 9.015 11.48 20.407 12.949 32.056.809 6.448 1.65 12.933 1.456 19.441-.111 3.498-.613 6.918-1.406 10.315Z"/>
    <path fill="#17282F" d="M317.094 283.654c.406-6.093.381-12.196-.215-18.264l.03-.066c.099-4.938.491-9.855.297-14.798-.21-5.37-.996-10.633-2.172-15.872l-.096.016a103.569 103.569 0 0 1 1.717 15.521c.1 2.789.08 5.581-.067 8.368-.048.907-.132 1.821-.192 2.735l-.001-.009c-1.989-13.893-7.113-27.074-14.677-38.87-.103-.16-.387.011-.286.175 5.446 8.901 9.462 18.678 11.946 28.821-3.774-6.998-9.475-12.753-13.705-19.477l-.064.039c3.8 7.486 10.077 13.39 14.078 20.767.694 3.005 1.262 6.04 1.685 9.093.581 4.192.854 8.41.91 12.633-2.298-4.301-4.685-8.414-6.566-12.962-.049-.121-.224-.038-.183.082 1.6 4.725 3.751 9.814 6.762 13.843.016 2.99-.072 5.983-.248 8.969-.47 7.974-1.83 15.841-2.46 23.79-.018.239.318.267.364.039 1.655-8.022 2.599-16.404 3.143-24.573Z"/>
    <path fill="#17282F" d="m308.634 222.159-.089.04c1.455 4.027 2.277 8.108 3.329 12.237.048.188.32.147.3-.049-.428-4.189-1.922-8.367-3.54-12.228Z"/>
    <path fill="#F2575D" d="M345.587 239.039c-.943 2.366-2.114 4.656-3.347 6.881-2.62 4.763-5.354 9.127-5.848 14.673-.221 2.476-.3 4.964-1.054 7.35-.651 2.065-1.709 3.971-2.926 5.753-2.841 4.141-6.391 7.709-9.022 12.005a50.531 50.531 0 0 0-5.995 14.467c-.065.279-.504.204-.439-.074l.017-.064-.026-.058c-.417-11.891.531-23.876 4.155-35.267a121.866 121.866 0 0 1 5.758-14.67c1.941-4.13 4.36-8.101 7.769-11.187 2.211-1.994 7.007-5.772 10.155-3.773 1.512.962 1.399 2.48.803 3.964Z"/>
    <path fill="#17282F" d="M333.646 265.996c-2.038 3.486-4.453 6.732-6.905 9.934-1.15 1.503-2.316 2.993-3.465 4.499-.542.71-1.15 1.419-1.649 2.182.315-1.25.62-2.503.939-3.751 1.533-6.009 3.007-12.069 5.29-17.846 2.232-5.647 5.2-10.95 8.249-16.185.081-.138-.142-.238-.222-.105-2.511 4.132-5.059 8.259-7.17 12.615-1.179 2.434-2.171 4.938-3.042 7.486 1.026-5.462 2.256-10.706 4.05-15.994l-.071-.033c-2.189 5.186-3.765 11.016-4.204 16.636l.008.027a103.425 103.425 0 0 0-1.43 4.675c-1.872 6.651-3.515 13.374-5.039 20.12.026-4.455.306-8.829 1.147-13.224.019-.1-.132-.123-.156-.026-1.104 4.526-1.603 9.289-1.148 13.94a734.458 734.458 0 0 0-1.683 7.702c-1.168 5.481-2.604 11.06-3.285 16.626-.019.145.182.175.219.037.815-3 1.306-6.11 1.973-9.148a711.815 711.815 0 0 1 2.066-9.126 862.299 862.299 0 0 1 3.214-13.244c.736-1.617 2.158-3.05 3.224-4.406 1.17-1.488 2.34-2.976 3.478-4.487 2.119-2.815 4.065-5.739 5.717-8.854l-.105-.05Z"/>
    <path fill="#17282F" d="M334.152 260.911c-2.576 3.31-4.916 6.974-6.756 10.745l.082.052c2.273-3.567 4.51-7.161 6.779-10.731l-.105-.066Z"/>
    <path fill="#F2575D" d="M283.576 250.313c1.539 2.654 3.296 5.841 2.635 9.028-.419 2.017-1.894 3.655-2.16 5.713-.596 4.542 3.926 7.543 7.199 9.689 8.158 5.358 19.347 10.134 20.83 21.074.057.388.726.291.678-.089l-.017-.072.041-.065c1.056-5.543 1.032-11.19-.153-16.709-1.217-5.64-3.676-10.706-6.579-15.66-4.909-8.383-10.108-16.967-17.533-23.389-2.055-1.775-6.264-4.97-7.9-.96-1.588 3.897 1.072 8.205 2.959 11.44Z"/>
    <path fill="#17282F" d="M291.042 268.087c5.41 5.86 14.009 9.145 18.665 15.71-2.759-10.061-7.325-19.109-14.345-26.967-.18-.202.101-.489.298-.299 5.14 4.944 8.945 10.723 11.722 16.992-1.248-4.476-2.995-8.711-5.047-12.92-.078-.158.148-.296.239-.14 2.615 4.461 4.353 9.471 5.441 14.523 6.135 14.864 6.704 32.297 5.418 47.965-.019.223-.36.23-.353 0 .352-12.347.153-24.91-2.803-36.968-.063-.252-.131-.5-.195-.75-5.065-7.067-13.627-10.342-19.133-17.052l.093-.094Z"/>
    <path fill="#17282F" d="M289.789 263.054c2.839 2.606 5.634 5.273 8.479 7.878l-.042.055c-3.096-2.096-6.24-4.867-8.606-7.764-.097-.118.053-.276.169-.169Zm-.449-11.296c2.578 4.136 5.284 8.015 8.496 11.695l-.072.071c-3.448-3.324-6.511-7.345-8.576-11.678-.049-.101.092-.186.152-.088Z"/>
    <path fill="#33535F" d="M302.124 334h24.872l-3.352-33.491h-17.689L302.124 334Z"/>
    <path fill="#17282F" d="M305.33 305.953h18.861l-.546-5.444h-17.692l-.623 5.444Z"/>
    <path fill="#33535F" d="M302.903 302.147h23.314v-5.348h-23.314v5.348Z"/>
    <path fill="#17282F" d="M32.311 105.647v223.868h-4.48V105.647h4.48Z"/>
    <path fill="#17282F" d="M109.626 29.649 3.169 136.194 0 133.024 106.458 26.477l3.168 3.172ZM54.358 329.515V334H5.785v-4.485h48.573Z"/>
    <path fill="#F2575D" d="m110.079 43.006 15.013-14.114L110.955 17.4 99.712 27.982l10.367 15.024Z"/>
    <path fill="#E0E1DE" d="m125.09 28.892-3.944-3.207 3.946 3.205-.002.002Z"/>
    <path fill="#CC4341" d="m110.08 43.004-4.123-5.974 12.869-13.23 2.32 1.885 3.944 3.207-15.01 14.112Z"/>
    <path fill="#F2575D" d="m108.525 66.578 40.519-38.105-19.353-10.43-30.365 28.556 9.199 19.98Z"/>
    <path fill="#E5E6E4" d="M264.198 183.658h-3.524c-3.594-2.529-7.63-6.266-8.37-10.644h9.69c-.707 4.161.749 8.015 2.204 10.644Z"/>
    <path fill="#DBDCD9" d="M270.853 161.874h-6.42c-.991-.744-1.788-1.491-2.283-2.249.754-.549 1.504-1.093 2.227-1.633h9.427c-.812 1.361-1.841 2.65-2.951 3.882Z"/>
    <path fill="#E5E5E3" d="M273.804 157.992h-9.427c3.542-2.646 6.477-5.209 6.477-7.967 0-6.954-8.142-11.044-8.142-11.044s12.859 4.397 12.859 13.192c0 2.088-.693 4.017-1.767 5.819Z"/>
    <path fill="#D4D6D3" d="M261.995 173.014h-9.691a8.483 8.483 0 0 1-.119-1.41c0-3.267 2.515-6.106 5.7-8.735 1.324 2.144 3.775 4.095 6.271 5.972-1.048 1.261-1.815 2.48-2.068 3.683-.035.163-.066.327-.093.49Zm6.413-8.596c-1.469-.855-2.847-1.699-3.974-2.545h6.419a67.808 67.808 0 0 1-2.445 2.545Z"/>
    <path fill="#E5E6E4" d="M273.062 183.658h-3.363c1.505-1.814 2.779-4.182 2.322-6.724-.242-1.342-1.232-2.635-2.6-3.92h10.38c.299.616.464 1.252.464 1.91 0 3.499-3.603 6.554-7.203 8.734Z"/>
    <path fill="#DBDCD9" d="M259.131 161.874h-1.77a5.572 5.572 0 0 1-.485-2.227c0-.576.09-1.128.253-1.655h4.465c.009.552.206 1.096.556 1.633a125.723 125.723 0 0 0-3.019 2.249Z"/>
    <path fill="#E5E5E3" d="M261.594 157.992h-4.465c1.799-5.812 12.607-8.718 12.607-8.718s-8.142 3.216-8.142 8.684v.034Z"/>
    <path fill="#D4D6D3" d="M279.8 173.014h-10.38c-1.472-1.383-3.382-2.757-5.265-4.173 1.173-1.411 2.7-2.874 4.252-4.423 4.487 2.613 9.812 5.337 11.393 8.596Zm-21.915-10.145a7.672 7.672 0 0 1-.524-.996h1.771c-.423.328-.842.661-1.247.996Z"/>
    <path fill="#D6D8D5" d="M264.433 161.874h-5.301c.984-.764 2.006-1.511 3.019-2.249.494.758 1.291 1.505 2.282 2.249Z"/>
    <path fill="#D4D6D3" d="M264.155 168.841c-2.496-1.877-4.946-3.828-6.27-5.972.405-.335.823-.668 1.247-.996h5.301c1.127.846 2.505 1.69 3.974 2.545-1.552 1.549-3.079 3.012-4.252 4.423Z"/>
    <path fill="#F2575D" d="M259.581 211.649h13.693v-2.14h-13.693v2.14Z"/>
    <path fill="#CC4341" d="M273.274 210.92h-13.693v-1.144c.869.205 1.677.257 2.367.257h8.96c.689 0 1.498-.052 2.366-.257v1.144Z"/>
    <path fill="#F2575D" d="M289.529 203.759c-1.62 2.278-4.487 3.909-7.711 3.301a7.898 7.898 0 0 1-1.39-.399 9.943 9.943 0 0 1-1.935-1.019l1.74-2.582c.353.246.697.437 1.028.584 3.26 1.48 5.324-1.094 5.73-1.681 1.877-2.64 2.549-8.67.647-10.99-.125-.171-.674-.443-2.88.026-.407.092-.869.194-1.391.339-.579.164-.924.258-1.252.27l-.056-1.55-.151-1.547c.142-.026.365-.089.654-.172.832-.222 1.953-.527 3.113-.646 1.623-.168 3.324.026 4.368 1.309 3.089 3.787 1.836 11.448-.514 14.757Z"/>
    <path fill="#CC4341" d="M280.428 206.661a9.769 9.769 0 0 1-1.633-.823c.474-.669.931-1.442 1.362-2.337.056-.121.113-.246.17-.376.32.215.632.386.933.519l-.832 3.017Zm3.053-15.354c.044-.243.087-.483.127-.72.086-.515.171-1.02.258-1.502.021-.14.042-.268.063-.397.041-.244.082-.487.117-.721a14.236 14.236 0 0 1 1.63-.274l-.918 3.306c-.377.086-.801.18-1.277.308Z"/>
    <path fill="#F2575D" d="M248.209 183.658s.118 1.018.353 2.627c.044.247.075.515.118.783.161 1.105.375 2.414.621 3.819.011.075.033.161.044.247.364 2.016.803 4.215 1.318 6.285.021.097.054.182.075.268.14.558.29 1.105.439 1.63.15.526.311 1.041.472 1.535.332.986.675 1.887 1.039 2.649 2.841 5.878 6.806 6.532 9.26 6.532h8.96c2.454 0 6.419-.654 9.249-6.532.085-.183.171-.375.257-.58.064-.139.129-.289.182-.44.064-.15.128-.299.182-.46.043-.107.086-.226.129-.333.547-1.501 1.039-3.271 1.468-5.094.022-.076.043-.14.054-.216l.021-.085c.172-.73.332-1.47.483-2.199.257-1.202.482-2.381.675-3.507.085-.515.171-1.02.257-1.502.022-.14.042-.268.064-.397.054-.322.107-.643.15-.944.043-.3.086-.589.129-.868.043-.279.075-.547.117-.794.215-1.491.322-2.424.322-2.424h-36.438Z"/>
    <path fill="#CC4341" d="M262.612 204.126c-.043 0-.085-.001-.128-.003-1.072-.033-2.101-.386-3.001-.977-.9-.589-1.693-1.361-2.497-2.123-.793-.762-1.629-1.534-2.572-2.146a9.36 9.36 0 0 0-3.076-1.33 7.63 7.63 0 0 0-.675-.128c-.514-2.07-.954-4.269-1.318-6.285.322-.279.643-.547.975-.805.656-.523 1.459-.979 2.262-.979.219 0 .438.034.653.11.986.354 1.683 1.277 2.336 2.135.665.88 1.276 1.812 2.037 2.649.364.429.804.815 1.276 1.148.492.289 1.039.589 1.65.6a.942.942 0 0 0 .204.021c.235 0 .474-.068.706-.085.279-.097.569-.193.826-.333a7.309 7.309 0 0 0 1.372-1.029c.824-.783 1.543-1.641 2.272-2.478.717-.836 1.436-1.662 2.272-2.338.728-.586 1.588-1.056 2.487-1.056.12 0 .241.008.363.026 1.061.14 2.058.59 2.894 1.266.836.675 1.543 1.523 2.272 2.36.729.836 1.479 1.673 2.358 2.381a9.167 9.167 0 0 0 2.937 1.619c.288.097.589.172.878.247-.429 1.824-.921 3.594-1.468 5.095a1.894 1.894 0 0 1-.772-.033c-1.018-.246-1.8-1.104-2.54-1.887-.74-.815-1.446-1.684-2.282-2.446a6.814 6.814 0 0 0-1.372-1.018c-.474-.223-.992-.437-1.538-.437-.059 0-.117.002-.177.007a.92.92 0 0 0-.117-.008c-.259 0-.512.112-.772.159a5.492 5.492 0 0 0-.793.407c-.472.332-.89.74-1.266 1.158-.749.859-1.382 1.781-2.014 2.682-.633.901-1.275 1.792-2.047 2.553-.72.71-1.617 1.301-2.605 1.301Z"/>
    <path fill="#fff" d="M249.302 190.886c.011.076.032.161.043.248.322-.279.643-.547.975-.805.836-.665 1.908-1.223 2.915-.869.986.354 1.683 1.277 2.336 2.134.665.88 1.276 1.813 2.037 2.65.364.429.804.815 1.276 1.148.492.289 1.039.589 1.65.6.3.065.611-.043.911-.064.278-.097.568-.193.825-.333a7.276 7.276 0 0 0 1.372-1.029c.825-.783 1.543-1.641 2.272-2.478.718-.836 1.436-1.662 2.272-2.338.825-.665 1.822-1.18 2.85-1.03 1.061.14 2.059.59 2.894 1.265.836.676 1.544 1.524 2.272 2.361.729.836 1.479 1.673 2.358 2.381a9.167 9.167 0 0 0 2.937 1.619c.289.097.589.172.878.247.022-.075.044-.139.054-.215-.278-.085-.568-.171-.847-.279-2.1-.707-3.697-2.305-5.058-4.022-.708-.847-1.415-1.727-2.305-2.456a6.389 6.389 0 0 0-3.107-1.384c-1.222-.182-2.369.418-3.237 1.116-.9.708-1.64 1.555-2.368 2.392-.729.837-1.426 1.694-2.208 2.446-.783.718-1.704 1.426-2.722 1.308-1.03-.054-1.919-.762-2.626-1.566-.729-.804-1.361-1.717-2.047-2.596-.697-.848-1.425-1.812-2.572-2.198-.569-.205-1.19-.108-1.726.096-.536.203-1.007.536-1.447.89-.3.247-.579.494-.857.761Z"/>
    <path fill="#fff" d="M250.663 197.419c.022.097.054.183.076.268.181.032.364.076.535.118 2.154.505 3.901 1.931 5.434 3.508.782.783 1.564 1.587 2.518 2.22.954.633 2.079 1.03 3.237 1.072 1.221.076 2.315-.632 3.108-1.415.825-.794 1.479-1.706 2.132-2.606.633-.913 1.244-1.835 1.962-2.65.696-.793 1.554-1.588 2.572-1.577 1.028-.042 1.982.579 2.765 1.309.804.729 1.522 1.577 2.293 2.381.772.772 1.586 1.662 2.765 1.941.237.054.483.065.719.033.043-.107.085-.226.128-.333a1.877 1.877 0 0 1-.771-.032c-1.019-.247-1.801-1.105-2.54-1.888-.74-.815-1.447-1.684-2.283-2.445a6.828 6.828 0 0 0-1.372-1.019c-.525-.247-1.104-.483-1.715-.429-.299-.044-.589.096-.889.15a5.399 5.399 0 0 0-.793.408c-.472.332-.89.739-1.265 1.158-.75.858-1.382 1.781-2.015 2.681-.632.901-1.275 1.792-2.047 2.553-.75.74-1.693 1.352-2.733 1.298-1.072-.032-2.1-.386-3-.976-.9-.59-1.694-1.362-2.497-2.124-.793-.761-1.63-1.534-2.573-2.145a9.318 9.318 0 0 0-3.751-1.459Z"/>
    <path fill="#BEBFBD" d="m105.713 282.471-63.339 51.115h3.569l73.152-51.115h-13.382Z"/>
    <path fill="#BEBFBD" d="m111.664 282.471-31.298 51.115h3.568l38.36-51.115h-10.63Z"/>
    <path fill="#BEBFBD" d="m127.008 282.471 31.298 51.115h-3.568l-38.36-51.115h10.63Z"/>
    <path fill="#BEBFBD" d="m132.476 282.471 63.338 51.115h-3.567l-73.152-51.115h13.381Z"/>
    <path fill="#33535F" d="M238.189 263.721v-14.955l-86.978-3.57-45.944-122.766H0l37.245 141.291 88.987 25h5.575l106.382-25Z"/>
    <path fill="#273E47" d="M0 122.43h12.043L50.85 251.222l78.728 22.321 108.612-24.777v14.955l-106.382 25h-5.575l-88.987-25L0 122.43Z"/>
    <path fill="#E7E8E5" d="M302.156 333.074c-2.807.063-75.597-22.455-77.826-25.065-.241-.289.896-11.076 2.775-19.64.088-.409-25.848-34.421-25.848-34.421l46.894-18.255 22.432 46.52 5.837 12.097s24.281 24.431 26.432 27.56c2.124 3.132 2.11 11.14-.696 11.204Z"/>
    <path fill="#F2575D" d="M304.204 333.483c-2.925.078-78.914-23.137-81.254-25.855-.892-1.026.467-5.731 4.155-19.26l49.819 6.005s25.713 24.165 27.958 27.421c2.23 3.252 2.248 11.611-.678 11.689Z"/>
    <path fill="#17282F" d="M304.043 330.108c-12.642-4.204-64.031-19.969-76.848-23.163-.103-.027-.125.043-.024.079 12.44 4.442 63.954 19.789 76.809 23.293.271.074.33-.12.063-.209Zm-3.214-12.542c-2.983-1.047-6.373-.513-8.569.784-2.111 1.247-4.206 3.266-4.923 5.937-.021.077.119.122.154.047 2.248-4.767 8.12-7.764 13.29-6.609.104.023.151-.124.048-.159Zm-18.759-18.163c-5.077-1.628-11.538-1.633-15.979 1.572-.172.124.007.367.183.336 5.333-.971 10.255-1.404 15.692-1.253.383.011.467-.538.104-.655Zm3.466 2.738c-5.076-1.628-11.537-1.633-15.978 1.572-.172.124.007.367.182.335 5.334-.97 10.256-1.403 15.693-1.252.383.011.467-.538.103-.655Zm3.468 2.738c-5.077-1.628-11.537-1.633-15.978 1.572-.172.124.007.368.182.335 5.334-.97 10.255-1.403 15.692-1.252.383.011.468-.538.104-.655Zm3.468 2.738c-5.077-1.629-11.538-1.633-15.978 1.573-.173.123.007.367.182.335 5.333-.97 10.255-1.403 15.692-1.253.383.011.467-.538.104-.655Z"/>
    <path fill="#17282F" d="M282.169 296.404c-2.145.743-4.313 1.377-6.431 2.199 1.686-2.264 3.266-4.59 5.179-6.684.913-.997 1.869-2.006 2.912-2.872 1.622-1.348 7.926-4.083 6.741 1.623-.654 3.147-5.843 4.848-8.401 5.734Zm9.563-8.934c-1.927-2.93-5.817-1.829-8.086-.092-3.676 2.814-6.987 7.322-8.613 11.632-.039.107.03.176.115.195-.003.399.335.838.791.692 4.396-1.404 9.27-2.36 13.105-5.072 2.239-1.583 4.511-4.584 2.688-7.355Z"/>
    <path fill="#17282F" d="M259.597 293.188c-2.115-5.431 4.556-3.779 6.379-2.719 1.171.681 2.282 1.517 3.347 2.35 2.234 1.747 4.177 3.778 6.215 5.732-2.225-.46-4.468-.725-6.708-1.102-2.668-.449-8.068-1.267-9.233-4.261Zm2.192 3.845c4.232 2.038 9.196 2.172 13.765 2.827.473.068.734-.42.665-.813.08-.033.138-.113.081-.211-2.318-3.982-6.329-7.878-10.42-10.043-2.526-1.338-6.544-1.777-7.96 1.432-1.338 3.036 1.399 5.617 3.869 6.808Zm11.167-12.65-51.694 7.642s-28.209-51.265-39.603-64.017l-.027-.022c-.748-.841-1.446-1.521-2.084-2.037l-.021-.007c-.722-.415-1.982-.723-3.731-.933l-.021-.008c-7.407-.901-23.303-.191-41.768.52-19.641.755-42.187 1.512-60.51.328l16.601-22.21 7.357-9.852c40.049-4.572 89.195-20.959 111.373-9.826 24.087 12.094 64.128 100.422 64.128 100.422Z"/>
    <path fill="#273E47" d="M266.477 275.596c-8.787 1.132-6.28.69-15.055 1.915-4.293.601-25.883 3.564-29.795 4.79-.086.027-.065.169.025.17 4.1.032 25.62-3.397 29.902-4.076 8.751-1.385 6.224-1.077 14.959-2.556.164-.028.129-.264-.036-.243Zm-44.949 5.983c-5.85-9.789-32.486-58.108-37.787-60.011-4.825-1.731-101.375.278-102.804.288-.102 0-.11.159-.007.157 11.428-.146 99.679-.46 102.196.537 5.232 2.071 37.085 58.122 37.867 59.292.209.312.735.073.535-.263Z"/>
    <path fill="#17282F" d="M46.493 205.64s-3.052 29.138 11.72 43.631c17.68 17.345 134.347 12.964 152.428 7.115 18.08-5.849 18.646-35.049-1.12-41.816-18.798-6.435-102.164-10.133-104.138-10.922-1.974-.788-7.754-10.021-7.754-10.021L46.493 205.64Z"/>
    <path fill="#273E47" d="M71.183 204.819c-.023-.138-.24-.094-.239.039.016 3.68-1.346 7.551-3.76 10.341-2.769 3.199-6.852 4.991-10.551 6.864-.356.179-.087.737.282.626 2.255-.677 4.477-1.661 6.533-2.817 1.872-1.052 3.601-2.372 4.913-4.088 2.419-3.164 3.477-7.021 2.822-10.965Zm33.404-2.988c-.826-1.055-1.725-2.059-2.587-3.085-2.036-2.426-4.083-4.862-6.218-7.202-.201-.222-.598.092-.412.335 1.438 1.881 2.96 3.702 4.457 5.536.767.941 1.537 1.878 2.313 2.812.725.871 1.621 1.736 2.159 2.741.557 1.043-.176 1.934-1.256 2.05-.967.103-1.859-.39-2.601-.959-1.685-1.292-3.01-3.142-4.412-4.721-.858-.965-1.715-1.93-2.586-2.884-.926-1.015-1.913-1.976-2.837-2.989l-.12.098c.806 1.107 1.551 2.266 2.36 3.376a173.124 173.124 0 0 0 2.462 3.297 76.92 76.92 0 0 0 2.447 3.03c.715.841 1.528 1.66 2.485 2.224 1.547.911 4.232 1.108 5.055-.892.407-.988-.102-1.99-.709-2.767Z"/>
    <path fill="#273E47" d="M208.168 256.495c-6.225.116-12.447.478-18.673.611a624.194 624.194 0 0 1-55.71-1.338c-12.507-.865-25.996-2.112-38.418-3.835-5.944-.823-11.97-1.51-17.844-2.774-5.3-1.141-10.107-3.345-14.075-7.196-8.046-7.81-11.174-19.294-12.459-30.263a124.253 124.253 0 0 1-.433-4.425c-.008-.1-.16-.098-.152.004.726 11.249 2.474 22.977 9.543 32.021 3.058 3.912 6.95 7.118 11.516 8.949 5.563 2.23 11.738 2.754 17.612 3.551 12.473 1.693 26.015 3.001 38.559 3.975 12.625.98 25.279 1.59 37.938 1.777 12.658.187 25.329.008 37.973-.613 1.545-.077 3.085-.167 4.626-.303.087-.007.085-.142-.003-.141Z"/>
    <path fill="#273E47" d="M224.787 229.266c-1.187-4.94-4.159-9.081-8.336-11.935-4.48-3.063-9.841-4.456-15.146-5.229-6.002-.873-12.082-1.319-18.117-1.906a2542.409 2542.409 0 0 0-37.18-3.337c-12.394-1.02-39.089-3.095-40.59-3.153-.131-.006-.158.217-.025.231 11.963 1.331 22.849 2.473 34.837 3.563a4595.749 4595.749 0 0 1 36.127 3.434c5.998.594 11.995 1.195 17.99 1.814 5.555.575 11.271 1.141 16.482 3.289 4.471 1.842 8.49 4.805 10.77 9.158 2.202 4.205 2.666 9.23 1.786 13.853-.818 4.293-2.837 8.476-5.785 11.713-2.903 3.189-6.588 5.631-10.837 6.548-1.096.236-2.419.407-3.428.607-.077.016-.155.178-.078.18 8.961.227 17.251-6.322 20.487-14.513 1.782-4.513 2.18-9.592 1.043-14.317Z"/>
    <path fill="#F57A76" d="M81.33 133.936c5.928 23.263 17.713 51.036 22.564 55.474 6.135 5.611 43.67 12.977 45.653 13.17 1.634.159 4.138-8.195 5.843-16.549 1.692-8.292 2.597-16.583 1.082-16.55-8.031.181-32.769-2.337-34.543-4.075-1.842-1.818-14.406-16.917-27.364-34.007-8.943-11.811-16.914-11.897-13.235 2.537Z"/>
    <path fill="#F57A76" d="M146.501 201.186c.543.26 8.265 3.917 13.015 5.173 3.545.936 13.82 3.358 15.237-.445.97-2.592-4.905-4.729-9.024-6.332-2.171-.844-4.874-3.032-4.273-4.43 1.049-2.444 6.64-.149 10.329 1.88 7.134 3.922 16.682 11.062 20.895 7.386 1.59-1.389-.355-3.803-3.172-6.148 4.545 2.702 9.377 4.893 11.204 3.419 1.049-.839 1.073-1.957.446-3.218 1.394.416 2.614.299 3.444-.623 1.419-1.559.656-3.793-.992-6.061.509-.065.962-.337 1.301-.901 2.97-4.777-12.781-17.911-18.147-19.047-15.787-3.358-32.311-2.265-32.311-2.265-6.047 5.079-7.965 31.602-7.952 31.612Z"/>
    <path fill="#17282F" d="M169.236 186.17c3.711.49 7.383 1.787 10.568 3.782 4.042 2.533 6.755 5.546 10.168 8.565.09.079-.03.221-.12.142-1.627-1.435-8.352-6.814-10.085-8.032-3.177-2.23-6.703-3.766-10.543-4.393l.012-.064Zm2.766-6.737c4.153 1.03 8.408 2.07 12.283 3.931 4.242 2.037 7.605 5.443 10.91 8.718a183.977 183.977 0 0 1 5.821 6.031c.079.087-.035.229-.121.142a233.876 233.876 0 0 0-10.365-9.848c-3.345-2.985-7.049-5.243-11.278-6.74-2.383-.844-4.825-1.503-7.264-2.161l.014-.073Zm4.268-5.936c4.028.728 7.542 1.349 11.143 3.413 4.767 2.734 9.418 7.42 11.05 9.081a158.469 158.469 0 0 1 5.254 5.651c.071.079-.064.202-.136.125a133.229 133.229 0 0 0-12.518-11.827c-2.111-1.747-4.395-3.258-6.944-4.285-2.52-1.016-5.207-1.561-7.854-2.129l.005-.029Z"/>
    <path fill="#F2575D" d="m153.842 167.237-11.28 38.995s-33.275-8.648-39.47-15.023c-6.196-6.374-18.15-39.767-21.82-56.002-3.67-16.235 4.583-16.03 12.404-5.926 7.823 10.105 27.28 34.582 28.347 35.098 1.067.516 31.819 2.858 31.819 2.858Z"/>
    <path fill="#17282F" d="M138.979 189.115c1.369-4.599 2.775-9.188 3.974-13.838.681-2.642 1.376-5.281 2.032-7.93.025-.099-.142-.156-.176-.057-1.556 4.561-3.108 9.139-4.455 13.771-1.341 4.608-2.721 9.205-4.002 13.832a133.526 133.526 0 0 0-1.945 7.946l.093.031c1.711-4.513 3.1-9.125 4.479-13.755Z"/>
    <path fill="#142228" d="M137.765 204.927c-6.688-1.887-18.92-5.542-27.169-9.239h.001c8.248 3.698 20.474 7.35 27.164 9.233 0 .001.002.005.004.006Z"/>
    <path fill="#CC4341" d="M137.761 204.92c-6.69-1.883-18.915-5.534-27.164-9.233 2.273-.566 3.625-.94 3.713-1.051.601-.762-4.674-24.092-12.144-44.404 10.707 16.31 22.915 35.356 32.742 50.35-.173.75-.339 1.502-.5 2.257l.093.031c.234-.62.463-1.24.686-1.862.879 1.34 1.737 2.644 2.574 3.912Z"/>
    <path fill="#142228" d="m134.5 202.87-.093-.031c.161-.754.328-1.506.5-2.257l.28.426c-.223.623-.452 1.243-.687 1.862Z"/>
    <path fill="#F2575D" d="M43.133 210.686c.187.19 70.524-15.229 71.176-16.05.91-1.155-11.659-54.088-24.922-69.886-3.317-3.95-13.874-3.678-18.6.31-23.42 19.759-28.32 84.944-27.654 85.626Z"/>
    <path fill="#F57A76" d="M65.318 128.848c-14.027 10.798-50.996 54.457-43.268 64.815 7.783 10.434 60.692 6.91 76.145 2.452 4.597-1.326-7.199-30.596-12.105-32.047-2.025-.598-8.685.631-14.936 1.862-6.354 1.25-12.284 2.5-12.492 1.83-.468-1.502 4.611-11.18 12.804-28.867 9.447-20.392.047-14.816-6.148-10.045Zm42.33 31.809c10.22.262 12.804 1.9 21.548-2.464 5.737-2.863 10.025-.425 6.127 4.989-6.376 8.854-19.633 11.287-24.472 10.807l-3.203-13.332Z"/>
    <path fill="#F57A76" d="M79.52 165.888s12.257-4.379 23.176-5.179c7.551-.552 24.113.079 36.984 18.667 3.053 4.41 4.28 12.859-3.32 7.471-5.399-3.828-7.666-7.888-11.211-9.542 0 0 .285 10.933-4.248 13.821-2.025 1.291-7.637 4.685-12.383 6.705 0 0-.717-.916-1.461-2.207 0 0-4.488 2.299-11.899.334l-15.638-30.07Z"/>
    <path fill="#F57A76" d="M109.986 161.334c3.173 2.386 9.811 7.556 13.77 13.677 4.399 6.798 11.041 21.078 5.993 24.276-3.7 2.345-6.716-2.885-6.716-2.885s1.503 6.483-2.303 7.869c-3.469 1.263-5.559-2.922-5.559-2.922s.236 4.089-3.339 4.662c-4.3.689-4.089-7.994-9.047-11.062-1.113-.689 7.201-33.615 7.201-33.615Z"/>
    <path fill="#17282F" d="M115.805 178.464c2.615 2.734 6.963 10.468 7.309 17.791.007.166-.114.26-.153.111-2.092-7.982-5.567-14.979-7.221-17.861l.065-.041Zm-6.728 4.643c2.014 2.591 6.14 10.763 6.236 18.196.001.166-.126.253-.159.101-1.842-8.429-4.665-15.285-6.143-18.259l.066-.038Zm16.085-5.868c3.097 1.498 4.95 3.447 7.382 5.812 1.203 1.169 2.428 2.324 3.754 3.353 1.208.937 2.984 2.346 4.583 1.456.889-.495 1.066-1.636 1.04-2.563-.03-1.04-.717-3.067-1.177-4.003l.083-.042c.429.836 1.235 2.7 1.411 3.625.159.838.235 1.793-.126 2.592-.776 1.718-2.932 1.603-4.349.86-.848-.444-1.618-1.062-2.357-1.665a37.571 37.571 0 0 1-2.071-1.837c-1.374-1.302-2.672-2.683-4.032-4.001-1.493-1.449-2.564-2.214-4.208-3.486l.067-.101Z"/>
    <path fill="#17282F" d="M130.084 189.832c-.534-1.998-3.817-10.492-5.001-12.527l.078-.053c2.139 2.828 5.16 9.898 5.772 12.104.604 2.18 1.258 4.947.886 7.204-.563 3.405-2.926 3.676-3.788 3.705-1.028.033-1.999-.343-2.816-.954-.91-.681-1.696-1.911-2.216-2.903l.078-.053c.956 1.536 2.696 3.185 4.585 3.247.819.027 1.691-.203 2.291-.787.705-.687.921-1.708.997-2.653.172-2.138-.316-4.279-.866-6.33Z"/>
    <path fill="#F2575D" d="m79.52 164.416 10.64 37.069s-66.22 3.779-69.89-8.256c-3.67-12.036 28.324-51.464 41.594-62.292 15.378-12.548 16.206-7.277 11.199 5.273-5.242 13.14-14.269 31.903-14.269 31.903l20.726-3.697Z"/>
    <path fill="#17282F" d="M37.876 174.05c3.29-1.581 6.734-2.845 10.215-3.932 3.448-1.078 6.996-1.779 10.56-2.337 2.037-.319 4.081-.538 6.129-.772l.009.098c-3.587.503-7.146 1.325-10.648 2.239a295.036 295.036 0 0 0-10.406 2.921c-1.953.587-3.877 1.267-5.809 1.92-.09.03-.134-.097-.05-.137Z"/>
    <path fill="#17282F" d="M79.366 164.287c-.336.031-18.75 2.909-19.367 3.081.117-.251 4.785-9.025 5.48-10.307.068-.128.131-.258.2-.386.418-.555.84-1.106 1.236-1.677.508-.732 1.012-1.467 1.516-2.201l-.034-.027c-.536.709-1.074 1.417-1.606 2.131-.246.329-.481.666-.715 1.004a141.943 141.943 0 0 0 3.451-7.183l-.074-.032c-1.375 2.557-2.83 5.068-4.211 7.62-1.38 2.548-6.624 11.931-6.594 11.928.027.031 20.354-3.607 20.75-3.701.155-.037.133-.265-.032-.25ZM76.837 186.9c-1.162-4.133-2.293-8.277-3.609-12.367-.747-2.324-1.483-4.654-2.253-6.971-.029-.087-.182-.05-.16.041 1.002 4.195 2.018 8.4 3.213 12.548 1.188 4.128 2.342 8.265 3.584 12.378.706 2.338 1.48 4.646 2.328 6.94l.084-.021c-.863-4.233-2.016-8.386-3.187-12.548Z"/>
    <path fill="#17282F" d="M90.896 202.159c-.465-1.163-1.02-2.822-1.532-3.966-.136-.301-.355-.279-.258.03.328 1.041.553 2.189.871 3.254-.925.03-1.852.04-2.779.08-1.07.045-2.141.096-3.212.138-2.098.082-4.196.144-6.294.183-4.25.08-8.502.07-12.752-.032-8.518-.201-17.05-.714-25.505-1.8a141.668 141.668 0 0 1-7.072-1.074c-2.383-.428-4.956-.906-6.89-1.483l-.03.11c1.978.76 3.842 1.337 5.91 1.784 2.112.458 4.237.857 6.372 1.186 4.252.654 8.538 1.081 12.828 1.393a307.72 307.72 0 0 0 25.572.773c2.39-.025 4.78-.079 7.168-.161 1.205-.042 2.41-.083 3.615-.148 1.204-.064 4.067-.068 3.988-.267Z"/>
    <path fill="#33535F" d="M95.487 207.037v3.421h84.73v-3.421h-84.73Z"/>
    <path fill="#999B9B" d="M95.487 207.037v3.421h46.884v-3.421H95.487Z"/>
    <path fill="#999B9B" d="M140.948 210.455h74.26l10.493-50.477h-74.26l-10.493 50.477Z"/>
    <path fill="#BEBFBD" d="M144.315 210.455h74.261l10.492-50.477h-74.26l-10.493 50.477Z"/>
    <path fill="#E7E8E5" d="M181.742 186.344c-.287 2.736 1.696 4.953 4.429 4.953 2.734 0 5.183-2.217 5.47-4.953.287-2.736-1.695-4.954-4.429-4.954s-5.183 2.218-5.47 4.954Z"/>
    <path fill="#F2575D" d="M84.062 141.682s-12.385-12.326-20.477-12.115l-6.915 6.044s-2.26.721-2.946-.714c-1.695-3.55-1.969-12.103 5.425-17.594 6.771-5.026 17.787-4.559 26.96-2.059 8.81 2.401 16.422 8.328 13.665 14.069-2.756 5.741-15.712 12.369-15.712 12.369Z"/>
    <path fill="#CC4341" d="m70.614 130.76 19.287 4.048 7.416-18.908H63.644l6.97 14.86Z"/>
    <path fill="#F2575D" d="M84.97 138.981s-9.872-17.042-22.359-18.822l.974 9.408s7.458.08 20.477 12.115l.908-2.701Z"/>
    <path fill="#17282F" d="M60.214 129.712c2.29-.265 4.56.26 6.702.956 2.155.705 4.186 1.742 6.12 2.918 1.954 1.151 3.776 2.515 5.564 3.915l2.595 2.215 2.496 2.338.28.262.316-.159a57.685 57.685 0 0 0 6.771-4.01c1.078-.747 2.146-1.512 3.129-2.386.986-.863 1.942-1.771 2.741-2.808-1.865 1.832-4.046 3.25-6.246 4.609a60.844 60.844 0 0 1-3.386 1.902c-1.143.601-2.297 1.206-3.459 1.744l.596.103-2.498-2.411a118.13 118.13 0 0 0-2.635-2.269c-.929-.697-1.844-1.413-2.799-2.074-.978-.629-1.934-1.291-2.968-1.83a27.237 27.237 0 0 0-6.435-2.673c-.557-.163-1.134-.266-1.702-.385-.578-.077-1.152-.169-1.733-.201-1.154-.087-2.335-.06-3.45.244Z"/>
    <path fill="#17282F" d="M56.67 135.611c1.296-.842 2.482-1.811 3.642-2.81 1.147-1.014 2.266-2.059 3.273-3.233-1.297.841-2.483 1.81-3.643 2.809-1.145 1.016-2.264 2.062-3.272 3.234Z"/>
    <path fill="#F2575D" d="M79.91 135.915s-1.041 4.84-1.192 11.843c-.06 2.772 1.003 12.715 4.082 12.356 3.079-.358-1.934-6.776-2.813-12.021-.891-5.323.523-9.083.711-12.223l-.788.045Z"/>
    <path fill="#CC4341" d="M82.639 160.124c-2.877-.002-3.924-9.142-3.923-12.137 0-.081 0-.158.002-.229.15-7.003 1.192-11.843 1.192-11.843l.788-.045a19.775 19.775 0 0 1-.202 1.775c-.064.418-.137.849-.212 1.294-.278 1.655-.589 3.501-.589 5.629 0 1.097.082 2.267.292 3.525.677 4.036 3.8 8.767 3.802 10.896 0 .639-.28 1.043-.989 1.125-.054.007-.108.01-.161.01Z"/>
    <path fill="#F2575D" d="M90.831 136.465s1.435 5.238 2.289 11.532c.338 2.491.4 11.559-2.41 11.552-2.81-.005 1.047-6.304 1.3-11.12.259-4.888-1.402-9.114-1.893-11.924l.714-.04Z"/>
    <path fill="#CC4341" d="M90.713 159.549h-.003c-.744-.001-1.02-.444-1.021-1.183 0-2.053 2.135-6.396 2.321-9.937.019-.343.027-.684.028-1.021.001-3.434-.87-6.501-1.478-8.923a49.046 49.046 0 0 1-.182-.74 21.396 21.396 0 0 1-.261-1.24l.714-.04s1.435 5.238 2.288 11.532c.092.671.163 1.82.163 3.14 0 3.577-.518 8.412-2.569 8.412Z"/>
    <path fill="#F57A76" d="M86.008 137.068c-3.214-.209-9.201-6.923-11.24-12.252-.137-.366.87-3.878 1.894-8.204.61-2.628 1.228-5.568 1.598-8.291l16.504 6.473s-2.454 5.482-3.07 10.234a6.187 6.187 0 0 0-.035 1.133v.189c.057 2.17-.619 11.046-5.651 10.718Z"/>
    <path fill="#17282F" d="M91.657 126.163c-.001.053.01.11.003.188a10.85 10.85 0 0 1-1.771-.146c-9.673-1.543-10.439-13.701-10.435-17.416l15.317 6.003s-2.455 5.481-3.084 10.239a7.247 7.247 0 0 0-.03 1.132Z"/>
    <path fill="#F57A76" d="M81.618 87.013c-3.458 5.373-5.164 23.243-2.057 28.216 4.505 7.21 14.277 10.548 21.002 4.58 6.519-5.784 8.332-29.112 4.638-33.878-5.442-7.02-18.474-6.855-23.582 1.082Z"/>
    <path fill="#17282F" d="M92.76 100.048c.544-.066 1.035-.217 1.566-.337.599-.136 1.09-.183 1.531-.649.236-.25.215-.755-.005-1.007-.516-.59-1.29-.605-2.019-.471-.79.146-1.361.46-1.881 1.072-.504.591.091 1.478.809 1.392Zm12.1 1.653c-.525-.155-.984-.387-1.486-.595-.569-.235-1.045-.363-1.401-.897-.191-.285-.086-.78.174-.992.606-.494 1.374-.379 2.069-.124.754.276 1.265.681 1.674 1.371.398.669-.337 1.443-1.03 1.237Zm-13.024 12.397c.251.317.488.741.919.833.412.088.925-.038 1.326-.138l.044.068c-.37.421-1.06.626-1.604.457-.53-.164-.74-.667-.807-1.181l.122-.039Zm1.717-3.43c.538 1.126 1.451 1.82 2.492 2.164.463.156.963.237 1.459.254.097.01.195.012.284.003.09.001.17.001.268-.006.143-.003.234-.108.275-.238v-.009l.005-.124.002-.009.01-.105c.144-.921.233-2.336.233-2.336.316.211 1.936 1.205 1.97.719.27-4.024.57-8.5-.01-12.563-.013-.134-.218-.129-.223.004-.413 3.857-.144 7.762-.497 11.643-.522-.279-1.367-.779-1.852-.831-.135.021-.123 2.74-.22 3.147l-.014.043c-1.575.001-2.684-.616-4.057-1.85-.08-.08-.185-.011-.125.094Z"/>
    <path fill="#17282F" d="M97.02 112.549s-.96 1-2.13 1.256c-.432.095-.884.098-1.334-.086-.925-.374-.837-1.256-.565-1.985.22-.601.575-1.097.575-1.097s1.23 1.487 3.453 1.912Z"/>
    <path fill="#F578BA" d="M94.89 113.805c-.432.095-.884.098-1.334-.086-.925-.374-.837-1.256-.565-1.985 1.012.235 1.939 1.061 1.899 2.071Z"/>
    <path fill="#17282F" d="m95.113 103.317-.108.091c-.151 1.191-.524 2.531-1.658 2.755l-.001.068c1.337.024 1.815-1.76 1.767-2.914Z"/>
    <path fill="#17282F" d="M94.251 101.91c-1.883-.448-2.64 3.355-.896 3.77 1.717.409 2.474-3.393.896-3.77Zm7.8 2.318.069.123c-.28 1.168-.406 2.554.577 3.165l-.025.063c-1.259-.452-1.074-2.289-.621-3.351Z"/>
    <path fill="#17282F" d="M103.355 103.218c1.92.248 1.282 4.073-.497 3.842-1.75-.226-1.112-4.05.497-3.842Z"/>
    <path fill="#33535F" d="M83.32 98.522c2.455-3.068 2.573-9.65 4.888-10.587 5.01-2.027 10.38 7.297 15.679 9.257 5.135 1.899 8.055-.788 8.64-5.305.585-4.516-1.944-8.612-7.407-11.572-5.65-3.062-11.97-2.628-15.618-1.804 0 0 2.055-1.615 1.804-2.44-.251-.824-3.499.267-4.58.842-1.096.584-2.157 2.025-2.157 2.025s-.838-.62-2.263-1.096c-1.32-.442-3.34-.014-3.546.26-.204.274 1.582 1.193 2.87 1.736 0 0-3.626 2.365-4.582 5.169-.957 2.803-1.42 17.602-.432 18.123 1.27.668 5.708-3.362 6.705-4.608Z"/>
    <path fill="#33535F" d="m82.262 79.685.037.098c-1.644.627-3.115 1.52-4.21 2.929-1.274 1.638-1.874 3.685-2.136 5.717-.511 3.953.072 7.919.401 11.858.01.115-.185.135-.202.021-.616-4.15-1.155-8.611-.444-12.78.607-3.553 2.77-7.108 6.554-7.843Zm6.231 6.825c1.587.337 3.216 1.09 4.558 2 1.32.895 2.237 2.253 3.282 3.435 2.348 2.65 5.108 5.047 8.561 6.066l-.021.068c-3.228-.733-5.915-2.75-8.162-5.111-1.133-1.192-2.081-2.653-3.351-3.7-1.443-1.19-3.235-1.813-4.954-2.476-.18-.07-.099-.322.087-.283Zm4.71-8.311c2.453-.307 4.957-.184 7.394.213 2.337.381 4.662 1.023 6.741 2.185 3.586 2.006 6.212 5.71 5.684 9.952-.266 2.15-1.264 4.255-2.932 5.667-.112.095-.257-.063-.154-.169 2.81-2.862 3.704-7.244 1.711-10.83-2.14-3.85-6.456-5.652-10.583-6.445-2.598-.5-5.22-.596-7.858-.543l-.003-.03Z"/>
    <path fill="#273E47" d="M93.657 99.216a4.829 4.829 0 0 0-6.11 4.541c-.058 2.658 2.056 4.872 4.712 4.928a4.828 4.828 0 0 0 4.925-4.716 4.832 4.832 0 0 0-3.527-4.753Zm-2.782 10.012a5.578 5.578 0 0 1-4.072-5.487 5.572 5.572 0 0 1 5.684-5.445 5.572 5.572 0 0 1 5.44 5.689 5.574 5.574 0 0 1-5.684 5.445 5.598 5.598 0 0 1-1.368-.202Zm14.854-8.232a2.506 2.506 0 0 0-.276-.06c-.874-.136-1.779.215-2.548.988-.798.804-1.35 1.96-1.552 3.254-.408 2.629.759 5.002 2.617 5.29 1.852.288 3.69-1.616 4.099-4.243.202-1.295.027-2.564-.49-3.574-.444-.866-1.093-1.445-1.85-1.655Zm-2.229 10.13c-2.05-.57-3.327-3.191-2.881-6.062.225-1.448.85-2.75 1.76-3.665.939-.947 2.073-1.373 3.188-1.199 1.12.172 2.065.923 2.674 2.112.589 1.148.788 2.579.562 4.027-.472 3.033-2.691 5.215-4.946 4.864a3.233 3.233 0 0 1-.357-.077Z"/>
    <path fill="#273E47" d="m97.643 104.593-.385-.637c.942-.57 3.017-1.213 4.136.434l-.616.419c-1-1.477-3.048-.267-3.135-.216Zm-24.713-2.399-.6-.439c.206-.281 2.05-2.738 3.732-2.749 1.572-.006 11.28 2.452 11.691 2.557l-.183.722c-2.782-.709-10.289-2.542-11.503-2.534-1.11.006-2.64 1.766-3.136 2.443Z"/>
    <path fill="#F57A76" d="M81.326 101.889s-2.414-6.536-5.28-5.814c-2.865.721-2.057 9.489.598 11.355 2.653 1.866 4.427-.559 4.427-.559l.255-4.982Z"/>
    <path fill="#17282F" d="m76.34 98.583-.035.075c1.843 1.375 2.428 3.573 2.669 5.756-.413-.924-1.139-1.561-2.352-1.099l.027.125c.892.04 1.463.346 1.856 1.173.28.585.397 1.263.542 1.893.048.21.406.198.392-.033l-.005-.052c.74-2.618-.34-6.834-3.093-7.838Z"/>
  </g>
  <defs>
    <clipPath id="a">
      <path fill="#fff" d="M0 0h346v334H0z"/>
    </clipPath>
  </defs>
</svg>
